<svg width="386" height="113" viewBox="0 0 386 113" fill="none" xmlns="http://www.w3.org/2000/svg">
<path d="M1 103.368L1.46297 102.138C1.72369 101.445 2.52685 101.084 3.25688 101.332C3.5779 101.44 3.84622 101.656 4.01176 101.939C4.3723 102.555 5.19065 102.777 5.83961 102.434C6.13795 102.277 6.36208 102.018 6.46652 101.71L8.255 96.4308C8.70484 95.103 10.204 94.3726 11.6035 94.7994C12.4496 95.0574 13.1041 95.6991 13.3482 96.5098L14.1029 99.0157C14.5567 100.523 16.2122 101.395 17.8006 100.965C18.4283 100.795 18.9801 100.434 19.3718 99.9388C20.1049 99.0113 21.4918 98.8233 22.4693 99.5189C22.9889 99.8887 23.311 100.456 23.3503 101.071L23.5882 104.796C23.6333 105.503 24.2733 106.04 25.0176 105.998C25.6237 105.963 26.1307 105.548 26.2567 104.985L26.5426 103.706C26.7761 102.662 27.8574 101.995 28.9579 102.216C29.7254 102.371 30.3312 102.93 30.5153 103.653C30.7876 104.724 31.923 105.382 33.0512 105.124C33.828 104.946 34.4312 104.365 34.6076 103.626L38.8542 85.8314C39.1089 84.764 40.2275 84.0945 41.3526 84.3362C41.8361 84.4401 42.2649 84.7037 42.5624 85.08C43.2317 85.9267 44.4978 86.0983 45.3902 85.4633C45.7878 85.1804 46.0615 84.7683 46.1589 84.306L48.3672 73.8303C48.7758 71.8922 50.763 70.6352 52.8058 71.0229C54.0063 71.2507 55.0157 72.0172 55.5129 73.0787L58.1266 78.6582C58.6113 79.6928 59.8883 80.1588 60.9788 79.6989C61.5216 79.47 61.9411 79.0393 62.1388 78.5078C62.4813 77.5873 63.5454 77.1045 64.5156 77.4294C65.0577 77.6109 65.4811 78.0197 65.6629 78.5372L70.4687 92.2162C71.3784 94.8052 74.3279 96.2044 77.0568 95.3414C78.8191 94.784 80.1352 93.3783 80.5106 91.6521L82.1082 84.3065C82.5101 82.4589 84.4145 81.2702 86.3619 81.6514C87.5154 81.8773 88.4796 82.6241 88.9435 83.6513L91.2833 88.8309C91.8772 90.1457 93.482 90.7548 94.8678 90.1913C95.4193 89.967 95.8776 89.5766 96.1718 89.0804C96.9016 87.8495 98.5449 87.413 99.8423 88.1053C100.367 88.3852 100.777 88.8236 101.009 89.3506L107.079 103.172C107.818 104.855 109.855 105.651 111.629 104.95C112.611 104.561 113.352 103.768 113.64 102.796L114.699 99.2222C114.995 98.2247 116.087 97.6435 117.139 97.924C117.749 98.0868 118.24 98.5173 118.459 99.0815C118.906 100.233 120.253 100.823 121.467 100.399C122.089 100.181 122.586 99.7231 122.832 99.1386L126.486 90.4706C127.195 88.79 129.205 87.9726 130.976 88.6448C131.652 88.9013 132.225 89.3538 132.614 89.9377C133.468 91.2201 135.256 91.6031 136.607 90.7932C137.237 90.4158 137.689 89.8227 137.87 89.1372L139.452 83.1321C139.854 81.6058 141.484 80.6778 143.093 81.0594C144.149 81.3098 144.98 82.0829 145.264 83.0798L146.704 88.1354C147.127 89.6213 148.74 90.5003 150.306 90.0987C150.939 89.9364 151.496 89.578 151.889 89.0804C152.994 87.6835 155.083 87.4003 156.555 88.4481C157.056 88.8046 157.441 89.2879 157.666 89.8425L158.515 91.9379C159.249 93.7477 161.39 94.6506 163.298 93.9545C164.159 93.64 164.866 93.0312 165.279 92.2477L167.443 88.1412C168.718 85.7224 169.81 83.2209 170.711 80.6555L172.544 75.4394C172.822 74.6474 173.725 74.2193 174.559 74.4833C174.895 74.5896 175.185 74.7992 175.381 75.0789C175.823 75.7072 176.717 75.877 177.38 75.4581C177.678 75.2694 177.891 74.9821 177.978 74.6521L181.739 60.3799C182.317 58.1873 184.659 56.8542 186.97 57.4024C188.563 57.7802 189.791 58.9834 190.139 60.5059L192.829 72.2861C193.151 73.6956 194.616 74.5906 196.102 74.2852C196.72 74.1582 197.273 73.833 197.668 73.3644C199.316 71.4101 202.322 71.0932 204.382 72.6567C204.619 72.8366 204.837 73.0375 205.034 73.2567L208.209 76.7934C210.088 78.8861 213.4 79.1374 215.605 77.3547C216.489 76.6406 217.098 75.6686 217.337 74.591L218.751 68.221C219.256 65.9429 221.612 64.4849 224.014 64.9645C225.61 65.2833 226.893 66.4062 227.358 67.8897L228.481 71.479C229.205 73.7948 231.771 75.1147 234.212 74.4272C235.856 73.9643 237.093 72.6744 237.424 71.0785C237.913 68.7166 240.328 67.1787 242.818 67.6433C244.496 67.9566 245.853 69.1292 246.337 70.6862L246.459 71.0785C247.047 72.97 249.14 74.0509 251.134 73.4928C252.6 73.0823 253.659 71.8712 253.813 70.4282L255.407 55.5212C255.603 53.6931 257.323 52.3614 259.25 52.5469C259.979 52.617 260.667 52.9022 261.216 53.3622C263.581 55.3413 267.188 55.1274 269.274 52.8844C269.498 52.6431 269.7 52.3833 269.876 52.1082L272.589 47.8605C274.38 45.0563 278.228 44.1608 281.184 45.8603C282.172 46.4283 282.975 47.2446 283.504 48.2188C284.499 50.0522 286.873 50.7729 288.805 49.8284C289.865 49.3102 290.621 48.3639 290.859 47.2553L292.384 40.1658C292.799 38.2366 294.784 36.9918 296.817 37.3855C297.979 37.6105 298.961 38.3426 299.466 39.3607C300.299 41.0399 302.409 41.7605 304.179 40.9703C305.229 40.5013 305.97 39.5737 306.163 38.4876L312.375 3.47526C312.661 1.85919 314.275 0.769618 315.978 1.04163C317.135 1.22638 318.085 2.0099 318.44 3.07093L321.464 12.1192C322.058 13.8964 322.743 15.6448 323.517 17.3584L325.066 20.7872C325.501 21.7514 326.678 22.1981 327.695 21.7848C328.324 21.5289 328.772 20.9854 328.882 20.3441L330.258 12.3237C330.535 10.7102 332.138 9.6152 333.839 9.87786C334.896 10.0412 335.791 10.7077 336.209 11.6433L337.783 15.1616C338.547 16.8707 340.627 17.6684 342.428 16.9433C343.092 16.6759 343.655 16.2225 344.04 15.6437C344.769 14.5486 346.296 14.2215 347.45 14.9132C348.066 15.2824 348.479 15.8907 348.579 16.5757L349.705 24.3188C349.944 25.964 350.258 27.5986 350.648 29.2178L355.282 48.4978C355.744 50.4167 357.757 51.6175 359.78 51.1799C360.964 50.9236 361.945 50.1398 362.412 49.076C363.136 47.4274 365.131 46.6478 366.869 47.3347C367.947 47.7608 368.72 48.6807 368.917 49.7725L373.791 76.703C374.036 78.0544 375.389 78.9618 376.813 78.7297C377.982 78.5394 378.869 77.6277 378.976 76.5076L380.026 65.5552C380.16 64.1594 381.461 63.1308 382.932 63.2577C383.794 63.332 384.564 63.7972 385 64.5063" stroke="#06D6A0" stroke-width="2" stroke-linecap="round" stroke-linejoin="round"/>
<path d="M1 103.368L1.46297 102.138C1.72369 101.445 2.52685 101.084 3.25688 101.332C3.5779 101.44 3.84622 101.656 4.01177 101.939C4.3723 102.555 5.19065 102.777 5.83961 102.434C6.13795 102.277 6.36208 102.018 6.46652 101.71L8.255 96.4308C8.70484 95.103 10.204 94.3726 11.6035 94.7994C12.4496 95.0574 13.1041 95.6991 13.3482 96.5098L14.1029 99.0157C14.5567 100.523 16.2122 101.395 17.8006 100.965C18.4283 100.795 18.9801 100.434 19.3718 99.9388C20.1049 99.0113 21.4918 98.8233 22.4693 99.519C22.9889 99.8887 23.311 100.456 23.3503 101.071L23.5882 104.796C23.6333 105.503 24.2733 106.04 25.0176 105.998C25.6237 105.963 26.1307 105.548 26.2567 104.985L26.5426 103.706C26.7761 102.662 27.8574 101.995 28.9579 102.216C29.7254 102.371 30.3312 102.93 30.5153 103.653C30.7876 104.724 31.923 105.382 33.0512 105.124C33.828 104.946 34.4312 104.365 34.6076 103.626L38.8542 85.8314C39.1089 84.764 40.2275 84.0945 41.3526 84.3362C41.8361 84.4401 42.2649 84.7037 42.5624 85.08C43.2317 85.9267 44.4978 86.0983 45.3902 85.4633C45.7878 85.1804 46.0615 84.7683 46.1589 84.306L48.3672 73.8303C48.7758 71.8922 50.763 70.6352 52.8058 71.0229C54.0063 71.2507 55.0157 72.0172 55.5129 73.0787L58.1266 78.6581C58.6113 79.6928 59.8883 80.1588 60.9788 79.6989C61.5216 79.47 61.9411 79.0393 62.1388 78.5078C62.4813 77.5873 63.5454 77.1045 64.5156 77.4294C65.0577 77.6109 65.4811 78.0197 65.6629 78.5372L70.4687 92.2161C71.3784 94.8052 74.3279 96.2044 77.0568 95.3414C78.8191 94.784 80.1352 93.3783 80.5106 91.6521L82.1082 84.3065C82.5101 82.4589 84.4145 81.2702 86.3619 81.6514C87.5154 81.8773 88.4796 82.6241 88.9435 83.6513L91.2833 88.8309C91.8772 90.1457 93.482 90.7547 94.8678 90.1913C95.4193 89.967 95.8776 89.5766 96.1718 89.0804C96.9016 87.8495 98.5449 87.413 99.8423 88.1053C100.367 88.3852 100.777 88.8236 101.009 89.3506L107.079 103.172C107.818 104.855 109.855 105.651 111.629 104.95C112.611 104.561 113.352 103.768 113.64 102.796L114.699 99.2222C114.995 98.2247 116.087 97.6435 117.139 97.924C117.749 98.0868 118.24 98.5173 118.459 99.0816C118.906 100.233 120.253 100.823 121.467 100.399C122.089 100.181 122.586 99.7231 122.832 99.1386L126.486 90.4706C127.195 88.79 129.205 87.9726 130.976 88.6448C131.652 88.9013 132.225 89.3538 132.614 89.9377C133.468 91.2201 135.256 91.6031 136.607 90.7932C137.237 90.4158 137.689 89.8227 137.87 89.1372L139.452 83.1321C139.854 81.6058 141.484 80.6778 143.093 81.0594C144.149 81.3098 144.98 82.0829 145.264 83.0798L146.704 88.1354C147.127 89.6213 148.74 90.5003 150.306 90.0987C150.939 89.9364 151.496 89.578 151.889 89.0804C152.994 87.6835 155.083 87.4003 156.555 88.4481C157.056 88.8046 157.441 89.2879 157.666 89.8425L158.515 91.9379C159.249 93.7477 161.39 94.6506 163.298 93.9545C164.159 93.64 164.866 93.0312 165.279 92.2477L167.443 88.1412C168.718 85.7224 169.81 83.2209 170.711 80.6555L172.544 75.4394C172.822 74.6473 173.725 74.2193 174.559 74.4833C174.895 74.5896 175.185 74.7992 175.381 75.0789C175.823 75.7072 176.717 75.877 177.38 75.4581C177.678 75.2694 177.891 74.9821 177.978 74.6521L181.739 60.3799C182.317 58.1873 184.659 56.8542 186.97 57.4024C188.562 57.7802 189.791 58.9834 190.139 60.5059L192.829 72.2861C193.151 73.6956 194.616 74.5906 196.102 74.2852C196.72 74.1582 197.273 73.833 197.668 73.3644C199.316 71.4101 202.322 71.0932 204.382 72.6567C204.619 72.8366 204.837 73.0375 205.034 73.2567L208.209 76.7934C210.088 78.8861 213.4 79.1374 215.605 77.3547C216.489 76.6406 217.098 75.6686 217.337 74.591L218.751 68.221C219.256 65.9429 221.612 64.4849 224.014 64.9645C225.61 65.2833 226.893 66.4062 227.358 67.8897L228.481 71.479C229.205 73.7948 231.771 75.1147 234.212 74.4272C235.856 73.9643 237.093 72.6744 237.424 71.0785C237.913 68.7166 240.328 67.1787 242.818 67.6433C244.496 67.9566 245.853 69.1292 246.337 70.6862L246.459 71.0785C247.047 72.97 249.14 74.0509 251.134 73.4928C252.6 73.0823 253.659 71.8712 253.813 70.4282L255.407 55.5212C255.603 53.6931 257.323 52.3614 259.25 52.5469C259.979 52.617 260.667 52.9022 261.216 53.3622C263.581 55.3413 267.188 55.1274 269.274 52.8844C269.498 52.6431 269.7 52.3834 269.876 52.1082L272.589 47.8605C274.38 45.0563 278.228 44.1608 281.184 45.8603C282.172 46.4283 282.975 47.2446 283.504 48.2188C284.499 50.0522 286.873 50.7729 288.805 49.8284C289.865 49.3102 290.621 48.3639 290.859 47.2553L292.384 40.1658C292.799 38.2366 294.784 36.9918 296.817 37.3855C297.979 37.6105 298.961 38.3426 299.466 39.3607C300.299 41.0399 302.409 41.7605 304.179 40.9703C305.229 40.5013 305.97 39.5737 306.163 38.4876L312.375 3.47526C312.661 1.85919 314.275 0.769618 315.978 1.04163C317.135 1.22638 318.085 2.0099 318.44 3.07093L321.464 12.1192C322.058 13.8964 322.743 15.6448 323.517 17.3584L325.066 20.7872C325.501 21.7514 326.678 22.1981 327.695 21.7848C328.324 21.5289 328.772 20.9854 328.882 20.3441L330.258 12.3237C330.535 10.7102 332.138 9.6152 333.839 9.87786C334.896 10.0412 335.791 10.7077 336.209 11.6433L337.783 15.1616C338.547 16.8707 340.627 17.6684 342.428 16.9433C343.092 16.6759 343.655 16.2225 344.04 15.6437C344.769 14.5486 346.296 14.2215 347.45 14.9132C348.066 15.2824 348.479 15.8907 348.579 16.5757L349.705 24.3188C349.944 25.964 350.258 27.5986 350.648 29.2178L355.282 48.4978C355.744 50.4167 357.757 51.6175 359.78 51.1799C360.964 50.9236 361.945 50.1398 362.412 49.076C363.136 47.4274 365.131 46.6478 366.869 47.3347C367.947 47.7608 368.72 48.6807 368.917 49.7725L373.791 76.703C374.036 78.0544 375.389 78.9618 376.813 78.7297C377.982 78.5394 378.869 77.6277 378.976 76.5076L380.026 65.5552C380.16 64.1594 381.461 63.1308 382.932 63.2577C383.793 63.332 384.564 63.7972 385 64.5063V112.5H1V103.368Z" fill="url(#paint0_linear_1412_17310)"/>
<path d="M2.2777 16L6.60795 7.42898V7.35938H1.58168V5.81818H8.51705V7.39418L4.19176 16H2.2777ZM13.6713 16H10.2211V5.81818H13.7409C14.7518 5.81818 15.6202 6.02202 16.3461 6.42969C17.0752 6.83404 17.6354 7.41572 18.0265 8.17472C18.4176 8.93371 18.6131 9.84186 18.6131 10.8991C18.6131 11.9598 18.4159 12.8712 18.0215 13.6335C17.6304 14.3958 17.0653 14.9808 16.3262 15.3885C15.5904 15.7962 14.7054 16 13.6713 16ZM12.0655 14.4041H13.5819C14.2911 14.4041 14.8828 14.2749 15.3567 14.0163C15.8307 13.7545 16.187 13.3651 16.4256 12.848C16.6642 12.3277 16.7836 11.678 16.7836 10.8991C16.7836 10.1203 16.6642 9.47396 16.4256 8.96023C16.187 8.44318 15.834 8.05706 15.3667 7.80185C14.9026 7.54332 14.3259 7.41406 13.6365 7.41406H12.0655V14.4041ZM25.1458 16H23.177L26.7615 5.81818H29.0385L32.628 16H30.6593L27.9398 7.90625H27.8603L25.1458 16ZM25.2104 12.0078H30.5797V13.4893H25.2104V12.0078ZM33.9691 16V5.81818H37.7873C38.5695 5.81818 39.2257 5.96401 39.756 6.25568C40.2897 6.54735 40.6924 6.94839 40.9641 7.45881C41.2392 7.96591 41.3768 8.54261 41.3768 9.18892C41.3768 9.84186 41.2392 10.4219 40.9641 10.929C40.689 11.4361 40.283 11.8355 39.7461 12.1271C39.2092 12.4155 38.5479 12.5597 37.7624 12.5597H35.2319V11.0433H37.5138C37.9712 11.0433 38.3458 10.9638 38.6374 10.8047C38.9291 10.6456 39.1445 10.4268 39.2837 10.1484C39.4263 9.87003 39.4975 9.55019 39.4975 9.18892C39.4975 8.82765 39.4263 8.50947 39.2837 8.23438C39.1445 7.95928 38.9274 7.7455 38.6325 7.59304C38.3408 7.43726 37.9646 7.35938 37.5039 7.35938H35.8136V16H33.9691ZM42.2828 5.81818H44.3659L46.8567 10.3224H46.9561L49.4469 5.81818H51.53L47.8262 12.2017V16H45.9867V12.2017L42.2828 5.81818ZM59.7592 16H56.3089V5.81818H59.8288C60.8397 5.81818 61.7081 6.02202 62.4339 6.42969C63.1631 6.83404 63.7232 7.41572 64.1143 8.17472C64.5054 8.93371 64.701 9.84186 64.701 10.8991C64.701 11.9598 64.5038 12.8712 64.1094 13.6335C63.7183 14.3958 63.1532 14.9808 62.4141 15.3885C61.6783 15.7962 60.7933 16 59.7592 16ZM58.1534 14.4041H59.6697C60.379 14.4041 60.9706 14.2749 61.4446 14.0163C61.9186 13.7545 62.2749 13.3651 62.5135 12.848C62.7521 12.3277 62.8714 11.678 62.8714 10.8991C62.8714 10.1203 62.7521 9.47396 62.5135 8.96023C62.2749 8.44318 61.9219 8.05706 61.4545 7.80185C60.9905 7.54332 60.4138 7.41406 59.7244 7.41406H58.1534V14.4041ZM69.7546 16.1491C68.989 16.1491 68.3278 15.9901 67.771 15.6719C67.2174 15.3504 66.7915 14.8963 66.4933 14.3097C66.195 13.7197 66.0458 13.0253 66.0458 12.2266C66.0458 11.4411 66.195 10.7517 66.4933 10.1584C66.7949 9.56179 67.2158 9.09777 67.756 8.76633C68.2963 8.43158 68.931 8.2642 69.6602 8.2642C70.1308 8.2642 70.5749 8.34044 70.9925 8.4929C71.4135 8.64205 71.7847 8.87405 72.1062 9.18892C72.431 9.50379 72.6862 9.90483 72.8718 10.392C73.0574 10.8759 73.1502 11.4527 73.1502 12.1222V12.674H66.891V11.4609H71.4251C71.4218 11.1162 71.3472 10.8097 71.2013 10.5412C71.0555 10.2694 70.8517 10.0556 70.5898 9.89986C70.3313 9.74408 70.0297 9.66619 69.685 9.66619C69.3171 9.66619 68.994 9.75568 68.7156 9.93466C68.4371 10.1103 68.2201 10.3423 68.0643 10.6307C67.9118 10.9157 67.8339 11.2289 67.8306 11.5703V12.6293C67.8306 13.0734 67.9118 13.4545 68.0742 13.7727C68.2366 14.0876 68.4637 14.3295 68.7553 14.4986C69.047 14.6643 69.3884 14.7472 69.7795 14.7472C70.0413 14.7472 70.2783 14.7107 70.4904 14.6378C70.7025 14.5616 70.8865 14.4505 71.0423 14.3047C71.198 14.1589 71.3157 13.9782 71.3952 13.7628L73.0756 13.9517C72.9696 14.3958 72.7674 14.7836 72.4691 15.1151C72.1741 15.4432 71.7963 15.6984 71.3356 15.8807C70.8749 16.0597 70.3479 16.1491 69.7546 16.1491ZM76.4725 5.81818V16H74.6728V5.81818H76.4725ZM82.1364 8.36364V9.75568H77.7464V8.36364H82.1364ZM78.8303 6.53409H80.63V13.7031C80.63 13.9451 80.6664 14.1307 80.7393 14.2599C80.8156 14.3859 80.915 14.4721 81.0376 14.5185C81.1603 14.5649 81.2962 14.5881 81.4453 14.5881C81.558 14.5881 81.6607 14.5798 81.7536 14.5632C81.8497 14.5466 81.9226 14.5317 81.9723 14.5185L82.2756 15.9254C82.1795 15.9586 82.0419 15.995 81.8629 16.0348C81.6873 16.0746 81.4718 16.0978 81.2166 16.1044C80.7659 16.1177 80.3598 16.0497 79.9986 15.9006C79.6373 15.7481 79.3506 15.5128 79.1385 15.1946C78.9297 14.8764 78.8269 14.4787 78.8303 14.0014V6.53409ZM85.839 16.1541C85.3551 16.1541 84.9192 16.0679 84.5314 15.8956C84.147 15.7199 83.842 15.4614 83.6167 15.12C83.3946 14.7786 83.2836 14.3577 83.2836 13.8572C83.2836 13.4264 83.3631 13.0701 83.5222 12.7884C83.6813 12.5066 83.8984 12.2812 84.1735 12.1122C84.4486 11.9432 84.7585 11.8156 85.1032 11.7294C85.4512 11.6399 85.8108 11.5753 86.182 11.5355C86.6294 11.4891 86.9924 11.4477 87.2708 11.4112C87.5492 11.3714 87.7514 11.3118 87.8773 11.2322C88.0066 11.1494 88.0712 11.0218 88.0712 10.8494V10.8196C88.0712 10.4451 87.9602 10.1551 87.7381 9.94957C87.516 9.74408 87.1962 9.64134 86.7786 9.64134C86.3378 9.64134 85.9881 9.73745 85.7296 9.92969C85.4744 10.1219 85.302 10.349 85.2125 10.6108L83.5321 10.3722C83.6647 9.90814 83.8835 9.52036 84.1884 9.20881C84.4933 8.89394 84.8662 8.65862 85.307 8.50284C85.7478 8.34375 86.235 8.2642 86.7686 8.2642C87.1365 8.2642 87.5028 8.30729 87.8674 8.39347C88.2319 8.47964 88.565 8.62216 88.8667 8.82102C89.1683 9.01657 89.4102 9.28338 89.5925 9.62145C89.7781 9.95952 89.8709 10.3821 89.8709 10.8892V16H88.1408V14.951H88.0811C87.9718 15.1631 87.8176 15.362 87.6188 15.5476C87.4232 15.7299 87.1763 15.8774 86.878 15.9901C86.583 16.0994 86.2367 16.1541 85.839 16.1541ZM86.3063 14.8317C86.6676 14.8317 86.9808 14.7604 87.2459 14.6179C87.5111 14.4721 87.7149 14.2798 87.8574 14.0412C88.0033 13.8026 88.0762 13.5424 88.0762 13.2607V12.3608C88.0198 12.4072 87.9237 12.4503 87.7878 12.4901C87.6552 12.5298 87.5061 12.5646 87.3404 12.5945C87.1747 12.6243 87.0106 12.6508 86.8482 12.674C86.6858 12.6972 86.5449 12.7171 86.4256 12.7337C86.1571 12.7701 85.9168 12.8298 85.7047 12.9126C85.4926 12.9955 85.3252 13.1115 85.2026 13.2607C85.08 13.4065 85.0186 13.5954 85.0186 13.8274C85.0186 14.1589 85.1396 14.4091 85.3816 14.5781C85.6235 14.7472 85.9318 14.8317 86.3063 14.8317Z" fill="#A1ADC4"/>
<defs>
<linearGradient id="paint0_linear_1412_17310" x1="193" y1="-16.5" x2="193" y2="112" gradientUnits="userSpaceOnUse">
<stop stop-color="#06D6A0" stop-opacity="0.65"/>
<stop offset="1" stop-color="#06D6A0" stop-opacity="0"/>
</linearGradient>
</defs>
</svg>
