<svg width="143" height="141" viewBox="0 0 143 141" fill="none" xmlns="http://www.w3.org/2000/svg">
<path d="M36.0539 88.2966L33.0494 102.101L10.8148 87.9577L0 76.3796V65.9713L25.2323 54.8918L34.8711 53.9214L36.0539 88.2966Z" fill="#1C4B7E"/>
<path d="M143 80.236V90.8104L134.075 99.5438L111.589 106.928L91.6722 108.104L91.3799 108.078L101.977 93.6684L103.004 71.0108L89.7825 58.5886L84.766 56.4751L79.0017 54.0425L85.4933 54.5543L114.852 62.7825L132.879 71.1769L143 80.236Z" fill="#1C4B7E"/>
<path d="M142.999 80.2359L132.877 71.1769L114.85 62.7824L85.492 54.5542L79.0004 54.0424H78.9936L76.159 53.8164L53.5574 52.0352L41.8453 53.2182L34.8711 53.9228L25.2323 54.8932L0 65.9727L4.93498 58.5752L30.9014 48.0074L37.4134 47.7483L60.5996 46.8311L90.4746 50.028L108.556 55.4049L118.113 58.2496L136.14 69.4953L142.999 80.2359Z" fill="#255B8F"/>
<path d="M79.5982 61.2139L76.1586 53.8164L53.5638 52.0352L41.8517 53.2182L40.4583 88.185L43.4356 91.9934L51.7897 86.4104L58.0841 86.1844L72.019 92.8175L81.2024 87.7397L79.5982 61.2139ZM51.7828 79.0462C51.7828 81.4256 49.8116 83.3531 47.3781 83.3531C44.9446 83.3531 42.9733 81.4256 42.9733 79.0462V74.2342C42.9733 71.8548 44.9446 69.9273 47.3781 69.9273C48.5948 69.9273 49.696 70.4125 50.4913 71.1901C51.2867 71.9677 51.776 73.0445 51.776 74.2342V79.0462H51.7828ZM75.2342 79.0462C75.2342 81.4256 73.2629 83.3531 70.8294 83.3531C68.3959 83.3531 66.4247 81.4256 66.4247 79.0462V74.2342C66.4247 71.8548 68.3959 69.9273 70.8294 69.9273C72.0462 69.9273 73.1474 70.4125 73.9427 71.1901C74.738 71.9677 75.2342 73.0445 75.2342 74.2342V79.0462Z" fill="#FFE97F"/>
<g filter="url(#filter0_d_1606_92)">
<path d="M43.4264 91.9929L72.0098 92.8171L81.1933 87.7392L79.5958 61.2134L76.1563 53.816L78.9909 54.0419H78.9977L84.7619 56.4745L88.4054 88.2975L78.2771 106.735L65.7834 129.479L62.3098 140L43.4264 124.886L32.4417 104.914L33.0466 102.102L36.0511 88.2975L34.8684 53.9223L41.8426 53.2178L40.4559 88.1845L43.4264 91.9929Z" fill="white"/>
</g>
<path d="M103.003 71.0093L101.977 93.6669L91.3793 108.076L87.899 112.802L82.06 116.996L62.3132 139.999L65.7868 129.478L78.2805 106.734L88.4088 88.2966L84.7654 56.4736L89.7819 58.5872L103.003 71.0093Z" fill="#BFC6CD"/>
<path d="M51.7855 74.2326V79.0446C51.7855 81.424 49.8142 83.3515 47.3807 83.3515C44.9472 83.3515 42.976 81.424 42.976 79.0446V74.2326C42.976 71.8532 44.9472 69.9258 47.3807 69.9258C48.5975 69.9258 49.6987 70.4109 50.494 71.1886C51.2961 71.9662 51.7855 73.0429 51.7855 74.2326Z" fill="#151D26"/>
<path d="M75.2329 74.2326V79.0446C75.2329 81.424 73.2616 83.3515 70.8281 83.3515C68.3946 83.3515 66.4233 81.424 66.4233 79.0446V74.2326C66.4233 71.8532 68.3946 69.9258 70.8281 69.9258C72.0449 69.9258 73.1461 70.4109 73.9414 71.1886C74.7367 71.9662 75.2329 73.0429 75.2329 74.2326Z" fill="#151D26"/>
<path d="M106.095 14.436L90.2972 35.2525L90.4739 50.0275L60.599 46.8306L37.4127 47.7478L47.3779 24.173L75.234 3.52924L97.1627 0L119.486 5.87542L120.682 8.39442L106.095 14.436Z" fill="#255B8F"/>
<path d="M104.722 30.0481L108.556 55.4041L90.4747 50.0272L90.298 35.2522L106.095 14.4356L120.683 8.39404L108.495 17.4598L104.722 30.0481Z" fill="#1C4B7E"/>
<path opacity="0.7" d="M34.8706 53.9228L35.027 58.5487L53.2578 56.475L74.7719 56.2357L86.7898 58.5487L93.6009 62.1776L89.7807 58.5885L78.9999 54.0424L53.5569 52.0352L34.8706 53.9228Z" fill="#848589"/>
<path d="M97.1627 0L77.6335 4.85852L56.0039 23.9936L51.7826 47.1828L37.4127 47.7478L47.3779 24.173L75.234 3.52924L97.1627 0Z" fill="#4F99CB"/>
<path d="M0 65.9729L25.2323 54.8933L42.9738 50.0282H75.2346C75.2346 50.0282 91.8001 50.1677 90.4678 50.0282C89.1423 49.8886 60.5996 46.8379 60.5996 46.8379L30.9014 48.0143L4.93498 58.5821L0 65.9729Z" fill="#4F99CB"/>
<path opacity="0.5" d="M34.8711 53.9214L25.2323 54.8918L0 65.9713V76.3796L10.8148 87.9577L33.0494 102.101L19.7807 82.4943L20.2973 72.425L35.245 64.8414L34.8711 53.9214Z" fill="#20436F"/>
<path opacity="0.5" d="M79.0017 54.0425L85.4933 54.5543L114.852 62.7825L132.879 71.1769L114.974 69.9274L103.004 71.0108L89.7825 58.5886L79.0017 54.0425Z" fill="#20436F"/>
<path d="M42.976 74.2329L47.3807 76.6389L42.976 79.0449V74.2329Z" fill="white"/>
<path d="M66.4233 74.2329L70.8281 76.6389L66.4233 79.0449V74.2329Z" fill="white"/>
<path d="M62.8793 98.7658C62.8113 99.2842 62.7093 99.8093 62.5734 100.334C61.0168 101.451 59.229 102.295 57.3053 102.8L53.3764 102.594C51.2964 102.003 49.3999 101.012 47.7957 99.6963C48.0744 99.1313 48.3599 98.5664 48.6521 98.0014C49.7058 97.9549 50.6914 97.7622 51.5819 97.4697C52.6491 97.9948 53.8998 98.573 55.1098 98.7591C56.0274 98.7658 57.6112 98.6395 58.5085 98.4401C59.0659 98.3404 59.6233 98.2075 60.1671 98.028C61.2003 98.48 61.6082 98.6262 62.8793 98.7658Z" fill="#FFE97F"/>
<path d="M37.5436 96.0408L39.4061 100.474L42.8592 103.511L49.6975 101.404L52.2873 95.8015L58.1944 96.1339L65.0326 103.511L67.3574 106.177L71.9389 105.745C71.9389 105.745 78.2469 102.747 78.2469 102.109C78.2469 101.471 79.3073 97.1308 79.3073 97.1308L76.8806 95.4891L49.8198 90.0059L37.5436 96.0408Z" fill="#BFC6CD"/>
<path d="M50.4706 85.0737L54.7394 84.7148L55.9154 85.5523L58.3353 85.4592L57.071 86.1837L53.3187 86.31L50.4706 85.0737Z" fill="#BFC6CD"/>
<path d="M60.2531 84.4219L65.4667 86.5952L79.3132 97.1298L70.8299 92.8163L60.2531 84.4219Z" fill="#BFC6CD"/>
<path d="M41.7172 91.9921L37.5436 96.0464L39.6304 99.8548L41.7172 101.437L48.5011 98.2331L51.492 94.9298H58.4663L60.757 97.7213L65.8144 103.205L71.6126 102.553L76.3912 98.7449C76.3912 98.7449 76.9894 95.9534 76.8874 95.4881C76.7855 95.0229 71.667 92.8163 71.667 92.8163L60.254 84.4219L57.066 86.1831L53.3138 86.3094L50.4724 85.0732L41.7172 91.9921Z" fill="white"/>
<path d="M53.3773 102.593L58.7269 103.105L61.8606 102.427L63.3696 101.709L62.282 100.54L60.1476 101.663L57.3062 102.799L53.3773 102.593Z" fill="#8EACAF"/>
<defs>
<filter id="filter0_d_1606_92" x="32.4417" y="53.2178" width="55.9637" height="87.7822" filterUnits="userSpaceOnUse" color-interpolation-filters="sRGB">
<feFlood result="BackgroundImageFix"/>
<feColorMatrix in="SourceAlpha" type="matrix" values="0 0 0 0 0 0 0 0 0 0 0 0 0 0 0 0 0 0 127 0" result="hardAlpha"/>
<feOffset dy="1"/>
<feComposite in2="hardAlpha" operator="out"/>
<feColorMatrix type="matrix" values="0 0 0 0 0 0 0 0 0 0 0 0 0 0 0 0 0 0 0.1 0"/>
<feBlend mode="normal" in2="BackgroundImageFix" result="effect1_dropShadow_1606_92"/>
<feBlend mode="normal" in="SourceGraphic" in2="effect1_dropShadow_1606_92" result="shape"/>
</filter>
</defs>
</svg>
