<svg width="2636" height="660" viewBox="0 0 2636 660" fill="none" xmlns="http://www.w3.org/2000/svg">
<path d="M1029.18 186.596H1105.32V484.527H1029.18V449.366C1006.34 478.353 974.276 492.875 932.917 492.875C893.541 492.875 859.774 477.666 831.672 447.307C803.514 416.891 789.463 379.671 789.463 335.59C789.463 291.509 803.514 254.232 831.672 223.873C859.83 193.457 893.597 178.306 932.917 178.306C974.276 178.306 1006.34 192.828 1029.18 221.815V186.596ZM888.612 396.023C903.965 411.745 923.455 419.578 947.081 419.578C970.707 419.578 990.253 411.745 1005.83 396.023C1021.36 380.357 1029.18 360.175 1029.18 335.533C1029.18 310.891 1021.41 290.766 1005.83 275.043C990.253 259.378 970.707 251.488 947.081 251.488C923.455 251.488 903.965 259.321 888.612 275.043C873.258 290.766 865.609 310.891 865.609 335.533C865.609 360.175 873.258 380.357 888.612 396.023Z" fill="white"/>
<path d="M1236.53 237.826C1243.61 218.788 1255.34 204.437 1271.66 194.946C1287.98 185.398 1306.22 180.653 1326.28 180.653V266.47C1303.05 263.669 1282.31 268.471 1263.95 280.763C1245.65 293.056 1236.48 313.524 1236.48 342.111V484.53H1160.33V186.599H1236.48V237.826H1236.53Z" fill="white"/>
<path d="M1494.94 492.878C1450.46 492.878 1413.35 477.784 1383.61 447.597C1353.86 417.409 1339.02 380.075 1339.02 335.594C1339.02 291.113 1353.86 253.778 1383.61 223.59C1413.35 193.403 1450.41 178.309 1494.94 178.309C1523.66 178.309 1549.84 185.284 1573.46 199.178C1597.09 213.071 1614.99 231.766 1627.17 255.208L1561.62 293.914C1555.73 281.622 1546.78 271.845 1534.77 264.698C1522.76 257.552 1509.27 253.95 1494.31 253.95C1471.48 253.95 1452.56 261.611 1437.6 276.876C1422.64 292.199 1415.17 311.752 1415.17 335.594C1415.17 359.035 1422.64 378.417 1437.6 393.682C1452.56 409.004 1471.43 416.609 1494.31 416.609C1509.67 416.609 1523.32 413.121 1535.33 406.203C1547.34 399.285 1556.3 389.623 1562.19 377.33L1628.31 415.465C1615.33 438.906 1597.03 457.659 1573.41 471.781C1549.84 485.846 1523.66 492.878 1494.94 492.878Z" fill="white"/>
<path d="M1877.43 186.599H1953.58V484.531H1877.43V449.369C1854.6 478.356 1822.54 492.878 1781.18 492.878C1741.8 492.878 1708.03 477.67 1679.93 447.311C1651.77 416.894 1637.72 379.674 1637.72 335.594C1637.72 291.513 1651.77 254.236 1679.93 223.877C1708.09 193.46 1741.86 178.309 1781.18 178.309C1822.54 178.309 1854.6 192.831 1877.43 221.818V186.599ZM1736.93 396.026C1752.28 411.749 1771.77 419.582 1795.4 419.582C1819.02 419.582 1838.57 411.749 1854.15 396.026C1869.67 380.361 1877.49 360.178 1877.49 335.536C1877.49 310.895 1869.73 290.769 1854.15 275.047C1838.57 259.381 1819.02 251.491 1795.4 251.491C1771.77 251.491 1752.28 259.324 1736.93 275.047C1721.57 290.769 1713.93 310.895 1713.93 335.536C1713.87 360.178 1721.57 380.361 1736.93 396.026Z" fill="white"/>
<path d="M2172.78 178.252C2205.08 178.252 2231.7 189.173 2252.78 211.013C2273.86 232.853 2284.4 263.041 2284.4 301.576V484.531H2208.25V311.124C2208.25 291.285 2202.92 276.077 2192.33 265.557C2181.68 255.037 2167.51 249.777 2149.84 249.777C2130.18 249.777 2114.43 255.951 2102.59 268.244C2090.8 280.536 2084.85 299.06 2084.85 323.645V484.531H2008.65V186.6H2084.85V219.989C2103.32 192.146 2132.67 178.252 2172.78 178.252Z" fill="white"/>
<path d="M2559.86 186.599H2636V484.531H2559.86V449.369C2537.02 478.356 2504.96 492.878 2463.6 492.878C2424.22 492.878 2390.45 477.67 2362.35 447.311C2334.19 416.894 2320.14 379.674 2320.14 335.594C2320.14 291.513 2334.19 254.236 2362.35 223.877C2390.51 193.46 2424.28 178.309 2463.6 178.309C2504.96 178.309 2537.02 192.831 2559.86 221.818V186.599ZM2419.35 396.026C2434.7 411.749 2454.19 419.582 2477.82 419.582C2501.44 419.582 2520.99 411.749 2536.57 396.026C2552.09 380.361 2559.91 360.178 2559.91 335.536C2559.91 310.895 2552.15 290.769 2536.57 275.047C2520.99 259.381 2501.44 251.491 2477.82 251.491C2454.19 251.491 2434.7 259.324 2419.35 275.047C2403.99 290.769 2396.35 310.895 2396.35 335.536C2396.29 360.178 2403.99 380.361 2419.35 396.026Z" fill="white"/>
<path d="M164.437 415.626L150.734 480.606L49.3249 414.03L-4.57764e-05 359.53V310.537L115.081 258.384L159.043 253.816L164.437 415.626Z" fill="#1C4B7E"/>
<path d="M652.206 377.683V427.459L611.499 468.568L508.943 503.326L418.106 508.864L416.772 508.739L465.105 440.912L469.787 334.259L409.487 275.786L386.607 265.837L360.317 254.387L389.924 256.796L523.824 295.527L606.043 335.041L652.206 377.683Z" fill="#1C4B7E"/>
<path d="M652.2 377.681L606.037 335.039L523.819 295.525L389.919 256.794L360.311 254.385H360.28L347.352 253.321L244.269 244.936L190.851 250.505L159.043 253.822L115.081 258.389L-4.57764e-05 310.542L22.5078 275.722L140.937 225.977L170.638 224.757L276.387 220.44L412.643 235.488L495.11 260.798L538.7 274.189L620.919 327.124L652.2 377.681Z" fill="#255B8F"/>
<path d="M363.038 288.143L347.351 253.322L244.298 244.938L190.881 250.506L184.525 415.1L198.105 433.027L236.207 406.747L264.915 405.683L328.47 436.906L370.355 413.004L363.038 288.143ZM236.176 372.082C236.176 383.283 227.185 392.355 216.086 392.355C204.987 392.355 195.996 383.283 195.996 372.082V349.432C195.996 338.231 204.987 329.159 216.086 329.159C221.635 329.159 226.658 331.442 230.285 335.103C233.913 338.763 236.145 343.831 236.145 349.432V372.082H236.176ZM343.134 372.082C343.134 383.283 334.144 392.355 323.045 392.355C311.946 392.355 302.955 383.283 302.955 372.082V349.432C302.955 338.231 311.946 329.159 323.045 329.159C328.594 329.159 333.617 331.442 337.244 335.103C340.871 338.763 343.134 343.831 343.134 349.432V372.082Z" fill="#FFE97F"/>
<g filter="url(#filter0_d_1606_39)">
<path d="M198.063 433.025L328.428 436.904L370.313 413.002L363.027 288.141L347.34 253.32L360.268 254.384H360.299L386.589 265.834L403.206 415.63L357.012 502.416L300.03 609.475L284.187 659.001L198.063 587.857L147.962 493.844L150.722 480.61L164.425 415.63L159.03 253.821L190.839 250.504L184.514 415.098L198.063 433.025Z" fill="white"/>
</g>
<path d="M469.784 334.252L465.103 440.905L416.77 508.732L400.896 530.976L374.265 550.717L284.203 658.997L300.045 609.472L357.028 502.412L403.222 415.626L386.604 265.831L409.484 275.779L469.784 334.252Z" fill="#BFC6CD"/>
<path d="M236.187 349.423V372.074C236.187 383.274 227.197 392.347 216.098 392.347C204.999 392.347 196.008 383.274 196.008 372.074V349.423C196.008 338.223 204.999 329.15 216.098 329.15C221.647 329.15 226.67 331.434 230.297 335.095C233.955 338.755 236.187 343.823 236.187 349.423Z" fill="#151D26"/>
<path d="M343.128 349.423V372.074C343.128 383.274 334.137 392.347 323.038 392.347C311.939 392.347 302.949 383.274 302.949 372.074V349.423C302.949 338.223 311.939 329.15 323.038 329.15C328.588 329.15 333.61 331.434 337.238 335.095C340.865 338.755 343.128 343.823 343.128 349.423Z" fill="#151D26"/>
<path d="M483.885 67.9525L411.835 165.939L412.641 235.487L276.385 220.439L170.635 224.756L216.085 113.786L343.133 16.6127L443.147 0L544.96 27.6565L550.416 39.5137L483.885 67.9525Z" fill="#255B8F"/>
<path d="M477.625 141.442L495.111 260.796L412.644 235.486L411.838 165.938L483.888 67.9519L550.419 39.5132L494.832 82.1868L477.625 141.442Z" fill="#1C4B7E"/>
<path opacity="0.7" d="M159.041 253.823L159.754 275.598L242.902 265.836L341.026 264.71L395.838 275.598L426.903 292.679L409.479 275.785L360.309 254.386L244.267 244.938L159.041 253.823Z" fill="#848589"/>
<path d="M443.147 0L354.077 22.8698L255.427 112.941L236.174 222.097L170.635 224.756L216.085 113.786L343.133 16.6127L443.147 0Z" fill="#4F99CB"/>
<path d="M-4.57764e-05 310.544L115.081 258.391L195.998 235.49H343.136C343.136 235.49 418.689 236.147 412.613 235.49C406.567 234.833 276.388 220.473 276.388 220.473L140.938 226.01L22.5078 275.754L-4.57764e-05 310.544Z" fill="#4F99CB"/>
<path opacity="0.5" d="M159.043 253.816L115.081 258.384L-4.57764e-05 310.537V359.53L49.3249 414.03L150.734 480.606L90.2172 388.313L92.5734 340.916L160.748 305.219L159.043 253.816Z" fill="#20436F"/>
<path opacity="0.5" d="M360.317 254.387L389.924 256.796L523.824 295.527L606.043 335.041L524.382 329.159L469.787 334.259L409.487 275.786L360.317 254.387Z" fill="#20436F"/>
<path d="M196.008 349.426L216.098 360.752L196.008 372.077V349.426Z" fill="white"/>
<path d="M302.949 349.426L323.038 360.752L302.949 372.077V349.426Z" fill="white"/>
<path d="M286.785 464.905C286.475 467.346 286.01 469.817 285.39 472.289C278.29 477.545 270.137 481.518 261.363 483.896L243.443 482.926C233.957 480.141 225.307 475.48 217.99 469.285C219.261 466.626 220.564 463.967 221.897 461.307C226.702 461.088 231.197 460.181 235.259 458.805C240.126 461.276 245.831 463.998 251.349 464.874C255.534 464.905 262.758 464.311 266.85 463.372C269.393 462.903 271.935 462.277 274.415 461.433C279.127 463.56 280.987 464.248 286.785 464.905Z" fill="#FFE97F"/>
<path d="M171.232 452.078L179.726 472.945L195.476 487.243L226.664 477.325L238.476 450.952L265.417 452.516L296.606 487.243L307.209 499.788L328.104 497.755C328.104 497.755 356.875 483.645 356.875 480.642C356.875 477.638 361.711 457.209 361.711 457.209L350.643 449.481L227.222 423.67L171.232 452.078Z" fill="#BFC6CD"/>
<path d="M230.19 400.454L249.66 398.765L255.023 402.707L266.06 402.269L260.294 405.679L243.18 406.273L230.19 400.454Z" fill="#BFC6CD"/>
<path d="M274.807 397.387L298.586 407.617L361.738 457.205L323.047 436.9L274.807 397.387Z" fill="#BFC6CD"/>
<path d="M190.267 433.021L171.232 452.105L180.749 470.032L190.267 477.478L221.208 462.398L234.849 446.849H266.657L277.105 459.989L300.171 485.8L326.616 482.734L348.411 464.807C348.411 464.807 351.139 451.667 350.674 449.477C350.209 447.287 326.864 436.9 326.864 436.9L274.811 397.387L260.271 405.677L243.157 406.272L230.198 400.453L190.267 433.021Z" fill="white"/>
<path d="M243.448 482.922L267.846 485.331L282.139 482.139L289.021 478.761L284.061 473.254L274.326 478.542L261.367 483.891L243.448 482.922Z" fill="#8EACAF"/>
<defs>
<filter id="filter0_d_1606_39" x="147.962" y="250.504" width="255.244" height="409.496" filterUnits="userSpaceOnUse" color-interpolation-filters="sRGB">
<feFlood flood-opacity="0" result="BackgroundImageFix"/>
<feColorMatrix in="SourceAlpha" type="matrix" values="0 0 0 0 0 0 0 0 0 0 0 0 0 0 0 0 0 0 127 0" result="hardAlpha"/>
<feOffset dy="1"/>
<feComposite in2="hardAlpha" operator="out"/>
<feColorMatrix type="matrix" values="0 0 0 0 0 0 0 0 0 0 0 0 0 0 0 0 0 0 0.1 0"/>
<feBlend mode="normal" in2="BackgroundImageFix" result="effect1_dropShadow_1606_39"/>
<feBlend mode="normal" in="SourceGraphic" in2="effect1_dropShadow_1606_39" result="shape"/>
</filter>
</defs>
</svg>
