<svg width="1360" height="1099" viewBox="0 0 1360 1099" fill="none" xmlns="http://www.w3.org/2000/svg">
<g opacity="0.15">
<path d="M458.456 -308.436C453.147 -308.436 447.991 -311.196 445.144 -316.122C440.912 -323.466 443.43 -332.855 450.772 -337.088L672.309 -464.946C679.652 -469.179 689.039 -466.661 693.271 -459.316C697.514 -451.972 694.997 -442.582 687.654 -438.339L466.117 -310.492C463.699 -309.096 461.061 -308.436 458.456 -308.436Z" fill="url(#paint0_linear_1439_20072)"/>
<path d="M901.509 -308.354C898.904 -308.354 896.266 -309.013 893.847 -310.41L672.311 -438.344C664.968 -442.588 662.451 -451.977 666.694 -459.322C670.926 -466.655 680.313 -469.184 687.656 -464.94L909.204 -337.006C916.535 -332.762 919.053 -323.372 914.821 -316.039C911.974 -311.113 906.818 -308.354 901.509 -308.354Z" fill="url(#paint1_linear_1439_20072)"/>
<path d="M680.111 -180.482C674.813 -180.482 669.657 -183.187 666.81 -188.068C662.557 -195.369 664.909 -204.692 672.197 -208.969L672.384 -209.09L893.843 -337.002C901.186 -341.246 910.574 -338.729 914.817 -331.384C919.049 -324.04 916.531 -314.65 909.199 -310.417L687.85 -182.56C685.409 -181.153 682.749 -180.482 680.111 -180.482Z" fill="url(#paint2_linear_1439_20072)"/>
<path d="M679.894 -180.399C677.322 -180.399 674.716 -181.059 672.309 -182.444L450.761 -310.5C443.419 -314.733 440.901 -324.133 445.144 -331.467C449.387 -338.811 458.775 -341.329 466.117 -337.085L687.467 -209.151C694.81 -204.907 697.415 -195.462 693.172 -188.118C690.325 -183.181 685.181 -180.399 679.894 -180.399Z" fill="url(#paint3_linear_1439_20072)"/>
<path d="M901.523 203.414C893.048 203.414 886.178 196.542 886.178 188.065V-323.705C886.178 -332.182 893.048 -339.064 901.523 -339.064C909.998 -339.064 916.868 -332.182 916.868 -323.705V188.065C916.868 196.542 909.998 203.414 901.523 203.414Z" fill="url(#paint4_linear_1439_20072)"/>
<path d="M679.998 331.272C674.688 331.272 669.533 328.512 666.686 323.586C662.454 316.242 664.971 306.852 672.314 302.619L893.851 174.762C901.194 170.518 910.581 173.047 914.813 180.391C919.056 187.736 916.539 197.125 909.196 201.358L687.659 329.216C685.241 330.612 682.603 331.272 679.998 331.272Z" fill="url(#paint5_linear_1439_20072)"/>
<path d="M679.967 331.272C677.362 331.272 674.723 330.612 672.316 329.216L450.768 201.358C443.426 197.125 440.908 187.736 445.14 180.391C449.372 173.047 458.76 170.518 466.113 174.762L687.65 302.619C694.993 306.852 697.51 316.242 693.278 323.586C690.431 328.512 685.276 331.272 679.967 331.272Z" fill="url(#paint6_linear_1439_20072)"/>
<path d="M458.44 203.362C449.965 203.362 443.095 196.545 443.095 188.057V-323.79C443.095 -332.267 449.965 -339.138 458.44 -339.138C466.915 -339.138 473.785 -332.267 473.785 -323.79V187.958C473.785 196.435 466.915 203.362 458.44 203.362Z" fill="url(#paint7_linear_1439_20072)"/>
<path d="M236.806 843.047C234.201 843.047 231.563 842.376 229.145 840.991L7.67368 713.013C0.330887 708.769 -2.17535 699.38 2.05664 692.035C6.29963 684.691 15.687 682.184 23.0298 686.417L244.501 814.395C251.843 818.639 254.35 828.028 250.118 835.373C247.271 840.287 242.104 843.047 236.806 843.047Z" fill="url(#paint8_linear_1439_20072)"/>
<path d="M15.3532 715.067C6.87821 715.067 0.00808692 708.195 0.00808692 699.718V443.839C0.00808692 435.362 6.87821 428.49 15.3532 428.49C23.8282 428.49 30.6983 435.362 30.6983 443.839V699.718C30.6983 708.195 23.8282 715.067 15.3532 715.067Z" fill="url(#paint9_linear_1439_20072)"/>
<path d="M236.894 587.124C234.289 587.124 231.651 586.464 229.232 585.068L7.67366 457.133C0.330871 452.9 -2.17535 443.511 2.05665 436.167C6.29964 428.822 15.676 426.304 23.0298 430.548L244.589 558.471C251.92 562.715 254.438 572.105 250.206 579.438C247.359 584.364 242.203 587.124 236.894 587.124Z" fill="url(#paint10_linear_1439_20072)"/>
<path d="M236.818 843.036C228.343 843.036 221.462 836.153 221.473 827.677L221.55 571.896C221.55 563.408 228.42 556.47 236.906 556.47C245.381 556.47 252.251 563.276 252.251 571.764L252.163 827.688C252.163 836.164 245.293 843.036 236.818 843.036Z" fill="url(#paint11_linear_1439_20072)"/>
<path d="M15.3698 459.2C10.0605 459.2 4.9052 456.44 2.05822 451.514C-2.17377 444.181 0.343441 434.791 7.67524 430.547L450.782 174.668C458.114 170.424 467.512 172.942 471.744 180.286C475.987 187.631 473.47 197.02 466.127 201.264L23.0313 457.144C20.6131 458.54 17.9749 459.2 15.3698 459.2Z" fill="url(#paint12_linear_1439_20072)"/>
<path d="M679.911 331.301C677.306 331.301 674.668 330.63 672.239 329.234L450.757 201.245C443.414 197.001 440.908 187.611 445.151 180.278C449.383 172.933 458.77 170.415 466.113 174.659L687.606 302.649C694.949 306.893 697.455 316.282 693.212 323.627C690.365 328.552 685.209 331.301 679.911 331.301Z" fill="url(#paint13_linear_1439_20072)"/>
<path d="M679.995 587.119C671.52 587.119 664.65 580.247 664.65 571.77L664.584 315.934C664.584 307.458 671.454 300.575 679.929 300.575H679.94C688.415 300.575 695.285 307.447 695.285 315.924L695.34 571.759C695.351 580.247 688.47 587.119 679.995 587.119Z" fill="url(#paint14_linear_1439_20072)"/>
<path d="M236.831 843.039C231.521 843.039 226.366 840.279 223.519 835.354C219.287 828.02 221.804 818.631 229.136 814.387L672.254 558.485C672.638 558.266 673.023 558.068 673.43 557.87C681.124 554.275 690.281 557.595 693.864 565.28C697.316 572.691 694.381 581.431 687.28 585.269L244.492 840.983C242.074 842.38 239.436 843.039 236.831 843.039Z" fill="url(#paint15_linear_1439_20072)"/>
<path d="M1344.58 715.216C1336.09 715.216 1329.22 708.333 1329.23 699.856L1329.3 444.032C1329.3 435.555 1336.17 428.683 1344.64 428.683C1353.12 428.683 1360 435.566 1360 444.043L1359.92 699.867C1359.92 708.344 1353.05 715.216 1344.58 715.216Z" fill="url(#paint16_linear_1439_20072)"/>
<path d="M1123.05 843.156C1117.74 843.156 1112.58 840.396 1109.74 835.471C1105.51 828.137 1108.02 818.748 1115.35 814.504L1336.9 686.569C1344.24 682.314 1353.63 684.843 1357.86 692.188C1362.11 699.532 1359.59 708.922 1352.25 713.155L1130.71 841.1C1128.29 842.496 1125.65 843.156 1123.05 843.156Z" fill="url(#paint17_linear_1439_20072)"/>
<path d="M1123.03 843.152C1114.56 843.152 1107.69 836.28 1107.69 827.803L1107.67 571.913C1107.67 563.436 1114.54 556.564 1123.01 556.564C1131.49 556.564 1138.37 563.436 1138.37 571.913L1138.38 827.803C1138.38 836.28 1131.51 843.152 1123.03 843.152Z" fill="url(#paint18_linear_1439_20072)"/>
<path d="M1123.03 587.274C1117.72 587.274 1112.56 584.514 1109.72 579.588C1105.49 572.244 1108.01 562.854 1115.35 558.621L1336.98 430.742C1344.33 426.498 1353.71 429.016 1357.95 436.36C1362.18 443.716 1359.66 453.105 1352.32 457.338L1130.68 585.218C1128.28 586.614 1125.64 587.274 1123.03 587.274Z" fill="url(#paint19_linear_1439_20072)"/>
<path d="M1123.02 843.156C1120.41 843.156 1117.78 842.496 1115.36 841.1L672.263 585.209C664.92 580.976 662.402 571.587 666.645 564.243C670.877 556.898 680.276 554.369 687.608 558.624L1130.71 814.504C1138.05 818.748 1140.56 828.137 1136.33 835.471C1133.48 840.396 1128.33 843.156 1123.02 843.156Z" fill="url(#paint20_linear_1439_20072)"/>
<path d="M679.937 587.27C671.462 587.27 664.592 580.387 664.592 571.91L664.647 316.074C664.647 307.598 671.517 300.726 679.992 300.726C688.478 300.726 695.348 307.609 695.337 316.086L695.282 571.921C695.282 580.398 688.412 587.27 679.937 587.27Z" fill="url(#paint21_linear_1439_20072)"/>
<path d="M680.009 331.437C674.699 331.437 669.544 328.688 666.697 323.762C662.465 316.418 664.971 307.028 672.314 302.784L893.796 174.817C901.139 170.584 910.526 173.091 914.769 180.435C919.012 187.769 916.495 197.158 909.152 201.402L687.67 329.381C685.252 330.766 682.614 331.437 680.009 331.437Z" fill="url(#paint22_linear_1439_20072)"/>
<path d="M1344.63 459.394C1342.03 459.394 1339.39 458.734 1336.97 457.338L893.799 201.403C886.456 197.17 883.95 187.781 888.182 180.437C892.414 173.092 901.812 170.563 909.155 174.818L1352.33 430.742C1359.66 434.986 1362.18 444.375 1357.94 451.709C1355.1 456.634 1349.94 459.394 1344.63 459.394Z" fill="url(#paint23_linear_1439_20072)"/>
<path d="M680.172 -180.5H679.787C671.312 -180.5 664.431 -187.372 664.431 -195.849C664.431 -204.337 671.312 -211.208 679.787 -211.208H679.985C688.46 -211.208 695.429 -204.337 695.429 -195.849C695.429 -187.372 688.647 -180.5 680.172 -180.5Z" fill="url(#paint24_linear_1439_20072)"/>
<path d="M236.9 587.246C232.976 587.246 229.04 585.751 226.051 582.75C224.314 581.012 222.907 578.693 222.159 576.362C219.598 568.281 224.061 559.639 232.14 557.077C239.197 554.812 246.672 557.946 250.167 564.169C253.597 570.04 252.784 577.714 247.749 582.75C244.759 585.751 240.824 587.246 236.9 587.246Z" fill="url(#paint25_linear_1439_20072)"/>
<path d="M1122.99 587.389C1120.55 587.389 1118.07 586.807 1115.78 585.575C1108.39 581.639 1105.54 572.525 1109.31 565.092C1113 557.605 1122 554.416 1129.57 557.957C1137.26 561.541 1140.58 570.677 1136.99 578.363C1136.88 578.605 1136.67 579.011 1136.54 579.264C1133.78 584.443 1128.48 587.389 1122.99 587.389Z" fill="url(#paint26_linear_1439_20072)"/>
<path d="M458.456 -308.436C453.147 -308.436 447.991 -311.196 445.144 -316.122C440.912 -323.466 443.43 -332.855 450.772 -337.088L672.309 -464.946C679.652 -469.179 689.039 -466.661 693.271 -459.316C697.514 -451.972 694.997 -442.582 687.654 -438.339L466.117 -310.492C463.699 -309.096 461.061 -308.436 458.456 -308.436Z" fill="url(#paint27_linear_1439_20072)"/>
<path d="M901.509 -308.354C898.904 -308.354 896.266 -309.013 893.847 -310.41L672.311 -438.344C664.968 -442.588 662.451 -451.977 666.694 -459.322C670.926 -466.655 680.313 -469.184 687.656 -464.94L909.204 -337.006C916.535 -332.762 919.053 -323.372 914.821 -316.039C911.974 -311.113 906.818 -308.354 901.509 -308.354Z" fill="url(#paint28_linear_1439_20072)"/>
<path d="M680.111 -180.482C674.813 -180.482 669.657 -183.187 666.81 -188.068C662.557 -195.369 664.909 -204.692 672.197 -208.969L672.384 -209.09L893.843 -337.002C901.186 -341.246 910.574 -338.729 914.817 -331.384C919.049 -324.04 916.531 -314.65 909.199 -310.417L687.85 -182.56C685.409 -181.153 682.749 -180.482 680.111 -180.482Z" fill="url(#paint29_linear_1439_20072)"/>
<path d="M679.894 -180.399C677.322 -180.399 674.716 -181.059 672.309 -182.444L450.761 -310.5C443.419 -314.733 440.901 -324.133 445.144 -331.467C449.387 -338.811 458.775 -341.329 466.117 -337.085L687.467 -209.151C694.81 -204.907 697.415 -195.462 693.172 -188.118C690.325 -183.181 685.181 -180.399 679.894 -180.399Z" fill="url(#paint30_linear_1439_20072)"/>
<path d="M901.523 203.414C893.048 203.414 886.178 196.542 886.178 188.065V-323.705C886.178 -332.182 893.048 -339.064 901.523 -339.064C909.998 -339.064 916.868 -332.182 916.868 -323.705V188.065C916.868 196.542 909.998 203.414 901.523 203.414Z" fill="url(#paint31_linear_1439_20072)"/>
<path d="M679.998 331.272C674.688 331.272 669.533 328.512 666.686 323.586C662.454 316.242 664.971 306.852 672.314 302.619L893.851 174.762C901.194 170.518 910.581 173.047 914.813 180.391C919.056 187.736 916.539 197.125 909.196 201.358L687.659 329.216C685.241 330.612 682.603 331.272 679.998 331.272Z" fill="url(#paint32_linear_1439_20072)"/>
<path d="M679.967 331.272C677.362 331.272 674.723 330.612 672.316 329.216L450.768 201.358C443.426 197.125 440.908 187.736 445.14 180.391C449.372 173.047 458.76 170.518 466.113 174.762L687.65 302.619C694.993 306.852 697.51 316.242 693.278 323.586C690.431 328.512 685.276 331.272 679.967 331.272Z" fill="url(#paint33_linear_1439_20072)"/>
<path d="M458.44 203.362C449.965 203.362 443.095 196.545 443.095 188.057V-323.79C443.095 -332.267 449.965 -339.138 458.44 -339.138C466.915 -339.138 473.785 -332.267 473.785 -323.79V187.958C473.785 196.435 466.915 203.362 458.44 203.362Z" fill="url(#paint34_linear_1439_20072)"/>
<path d="M236.806 843.047C234.201 843.047 231.563 842.376 229.145 840.991L7.67368 713.013C0.330887 708.769 -2.17535 699.38 2.05664 692.035C6.29963 684.691 15.687 682.184 23.0298 686.417L244.501 814.395C251.843 818.639 254.35 828.028 250.118 835.373C247.271 840.287 242.104 843.047 236.806 843.047Z" fill="url(#paint35_linear_1439_20072)"/>
<path d="M15.3532 715.067C6.87821 715.067 0.00808692 708.195 0.00808692 699.718V443.839C0.00808692 435.362 6.87821 428.49 15.3532 428.49C23.8282 428.49 30.6983 435.362 30.6983 443.839V699.718C30.6983 708.195 23.8282 715.067 15.3532 715.067Z" fill="url(#paint36_linear_1439_20072)"/>
<path d="M236.894 587.124C234.289 587.124 231.651 586.464 229.232 585.068L7.67366 457.133C0.330871 452.9 -2.17535 443.511 2.05665 436.167C6.29964 428.822 15.676 426.304 23.0298 430.548L244.589 558.471C251.92 562.715 254.438 572.105 250.206 579.438C247.359 584.364 242.203 587.124 236.894 587.124Z" fill="url(#paint37_linear_1439_20072)"/>
<path d="M236.818 843.036C228.343 843.036 221.462 836.153 221.473 827.677L221.55 571.896C221.55 563.408 228.42 556.47 236.906 556.47C245.381 556.47 252.251 563.276 252.251 571.764L252.163 827.688C252.163 836.164 245.293 843.036 236.818 843.036Z" fill="url(#paint38_linear_1439_20072)"/>
<path d="M15.3698 459.2C10.0605 459.2 4.9052 456.44 2.05822 451.514C-2.17377 444.181 0.343441 434.791 7.67524 430.547L450.782 174.668C458.114 170.424 467.512 172.942 471.744 180.286C475.987 187.631 473.47 197.02 466.127 201.264L23.0313 457.144C20.6131 458.54 17.9749 459.2 15.3698 459.2Z" fill="url(#paint39_linear_1439_20072)"/>
<path d="M679.911 331.301C677.306 331.301 674.668 330.63 672.239 329.234L450.757 201.245C443.414 197.001 440.908 187.611 445.151 180.278C449.383 172.933 458.77 170.415 466.113 174.659L687.606 302.649C694.949 306.893 697.455 316.282 693.212 323.627C690.365 328.552 685.209 331.301 679.911 331.301Z" fill="url(#paint40_linear_1439_20072)"/>
<path d="M679.995 587.119C671.52 587.119 664.65 580.247 664.65 571.77L664.584 315.934C664.584 307.458 671.454 300.575 679.929 300.575H679.94C688.415 300.575 695.285 307.447 695.285 315.924L695.34 571.759C695.351 580.247 688.47 587.119 679.995 587.119Z" fill="url(#paint41_linear_1439_20072)"/>
<path d="M236.831 843.039C231.521 843.039 226.366 840.279 223.519 835.354C219.287 828.02 221.804 818.631 229.136 814.387L672.254 558.485C672.638 558.266 673.023 558.068 673.43 557.87C681.124 554.275 690.281 557.595 693.864 565.28C697.316 572.691 694.381 581.431 687.28 585.269L244.492 840.983C242.074 842.38 239.436 843.039 236.831 843.039Z" fill="url(#paint42_linear_1439_20072)"/>
<path d="M1344.58 715.216C1336.09 715.216 1329.22 708.333 1329.23 699.856L1329.3 444.032C1329.3 435.555 1336.17 428.683 1344.64 428.683C1353.12 428.683 1360 435.566 1360 444.043L1359.92 699.867C1359.92 708.344 1353.05 715.216 1344.58 715.216Z" fill="url(#paint43_linear_1439_20072)"/>
<path d="M1123.05 843.156C1117.74 843.156 1112.58 840.396 1109.74 835.471C1105.51 828.137 1108.02 818.748 1115.35 814.504L1336.9 686.569C1344.24 682.314 1353.63 684.843 1357.86 692.188C1362.11 699.532 1359.59 708.922 1352.25 713.155L1130.71 841.1C1128.29 842.496 1125.65 843.156 1123.05 843.156Z" fill="url(#paint44_linear_1439_20072)"/>
<path d="M1123.03 843.152C1114.56 843.152 1107.69 836.28 1107.69 827.803L1107.67 571.913C1107.67 563.436 1114.54 556.564 1123.01 556.564C1131.49 556.564 1138.37 563.436 1138.37 571.913L1138.38 827.803C1138.38 836.28 1131.51 843.152 1123.03 843.152Z" fill="url(#paint45_linear_1439_20072)"/>
<path d="M1123.03 587.274C1117.72 587.274 1112.56 584.514 1109.72 579.588C1105.49 572.244 1108.01 562.854 1115.35 558.621L1336.98 430.742C1344.33 426.498 1353.71 429.016 1357.95 436.36C1362.18 443.716 1359.66 453.105 1352.32 457.338L1130.68 585.218C1128.28 586.614 1125.64 587.274 1123.03 587.274Z" fill="url(#paint46_linear_1439_20072)"/>
<path d="M1123.02 843.156C1120.41 843.156 1117.78 842.496 1115.36 841.1L672.263 585.209C664.92 580.976 662.402 571.587 666.645 564.243C670.877 556.898 680.276 554.369 687.608 558.624L1130.71 814.504C1138.05 818.748 1140.56 828.137 1136.33 835.471C1133.48 840.396 1128.33 843.156 1123.02 843.156Z" fill="url(#paint47_linear_1439_20072)"/>
<path d="M679.937 587.27C671.462 587.27 664.592 580.387 664.592 571.91L664.647 316.074C664.647 307.598 671.517 300.726 679.992 300.726C688.478 300.726 695.348 307.609 695.337 316.086L695.282 571.921C695.282 580.398 688.412 587.27 679.937 587.27Z" fill="url(#paint48_linear_1439_20072)"/>
<path d="M680.009 331.437C674.699 331.437 669.544 328.688 666.697 323.762C662.465 316.418 664.971 307.028 672.314 302.784L893.796 174.817C901.139 170.584 910.526 173.091 914.769 180.435C919.012 187.769 916.495 197.158 909.152 201.402L687.67 329.381C685.252 330.766 682.614 331.437 680.009 331.437Z" fill="url(#paint49_linear_1439_20072)"/>
<path d="M1344.63 459.394C1342.03 459.394 1339.39 458.734 1336.97 457.338L893.799 201.403C886.456 197.17 883.95 187.781 888.182 180.437C892.414 173.092 901.812 170.563 909.155 174.818L1352.33 430.742C1359.66 434.986 1362.18 444.375 1357.94 451.709C1355.1 456.634 1349.94 459.394 1344.63 459.394Z" fill="url(#paint50_linear_1439_20072)"/>
<path d="M680.172 -180.5H679.787C671.312 -180.5 664.431 -187.372 664.431 -195.849C664.431 -204.337 671.312 -211.208 679.787 -211.208H679.985C688.46 -211.208 695.429 -204.337 695.429 -195.849C695.429 -187.372 688.647 -180.5 680.172 -180.5Z" fill="url(#paint51_linear_1439_20072)"/>
<path d="M236.9 587.246C232.976 587.246 229.04 585.751 226.051 582.75C224.314 581.012 222.907 578.693 222.159 576.362C219.598 568.281 224.061 559.639 232.14 557.077C239.197 554.812 246.672 557.946 250.167 564.169C253.597 570.04 252.784 577.714 247.749 582.75C244.759 585.751 240.824 587.246 236.9 587.246Z" fill="url(#paint52_linear_1439_20072)"/>
<path d="M1122.99 587.389C1120.55 587.389 1118.07 586.807 1115.78 585.575C1108.39 581.639 1105.54 572.525 1109.31 565.092C1113 557.605 1122 554.416 1129.57 557.957C1137.26 561.541 1140.58 570.677 1136.99 578.363C1136.88 578.605 1136.67 579.011 1136.54 579.264C1133.78 584.443 1128.48 587.389 1122.99 587.389Z" fill="url(#paint53_linear_1439_20072)"/>
<path d="M15.3653 203.425C6.89027 203.425 0.0201464 196.553 0.0201464 188.077V-67.748C0.0201464 -76.2359 6.89027 -83.1076 15.3653 -83.1076C23.8402 -83.1076 30.7104 -76.2359 30.7104 -67.748V188.077C30.7104 196.553 23.8402 203.425 15.3653 203.425Z" fill="url(#paint54_linear_1439_20072)"/>
<path d="M15.3779 -52.3969C10.0686 -52.3969 4.91329 -55.1565 2.06631 -60.0712C-2.16569 -67.4156 0.351528 -76.8051 7.68332 -81.049L229.22 -209.027C236.574 -213.271 245.95 -210.742 250.193 -203.409C254.436 -196.064 251.919 -186.675 244.576 -182.431L23.0394 -54.4529C20.6211 -53.0565 17.983 -52.3969 15.3779 -52.3969Z" fill="url(#paint55_linear_1439_20072)"/>
<path d="M453.165 -43.8428C450.362 -43.8428 447.537 -44.6125 444.987 -46.2177L228.716 -182.75C221.538 -187.269 219.394 -196.757 223.923 -203.926C228.452 -211.094 237.927 -213.238 245.094 -208.708L461.377 -72.1872C468.544 -67.6573 470.687 -58.1799 466.158 -51.0114C463.245 -46.3826 458.255 -43.8428 453.165 -43.8428Z" fill="url(#paint56_linear_1439_20072)"/>
<path d="M244.253 331.437C241.725 331.437 239.153 330.81 236.778 329.48L7.87676 201.468C0.479006 197.334 -2.17012 187.978 1.96295 180.578C6.10701 173.179 15.4394 170.529 22.8591 174.674L251.761 302.685C259.158 306.82 261.797 316.165 257.663 323.575C254.849 328.6 249.639 331.437 244.253 331.437Z" fill="url(#paint57_linear_1439_20072)"/>
<path d="M901.534 -43.6486C896.39 -43.6486 891.356 -46.2433 888.454 -50.938C884.002 -58.1616 886.244 -67.617 893.455 -72.0699L1115 -208.822C1122.21 -213.264 1131.67 -211.032 1136.13 -203.819C1140.58 -196.596 1138.34 -187.14 1131.12 -182.687L909.581 -45.9355C907.075 -44.3962 904.282 -43.6486 901.534 -43.6486Z" fill="url(#paint58_linear_1439_20072)"/>
<path d="M1344.59 -52.4612C1341.98 -52.4612 1339.34 -53.1209 1336.93 -54.5173L1115.39 -182.462C1108.05 -186.695 1105.53 -196.085 1109.77 -203.429C1114 -210.774 1123.4 -213.292 1130.73 -209.048L1352.28 -81.1134C1359.61 -76.8695 1362.13 -67.48 1357.9 -60.1465C1355.05 -55.2209 1349.9 -52.4612 1344.59 -52.4612Z" fill="url(#paint59_linear_1439_20072)"/>
<path d="M1344.6 203.343C1336.13 203.343 1329.26 196.471 1329.26 187.994V-67.8196C1329.26 -76.2965 1336.13 -83.1682 1344.6 -83.1682C1353.08 -83.1682 1359.95 -76.2965 1359.95 -67.8196V187.994C1359.95 196.471 1353.08 203.343 1344.6 203.343Z" fill="url(#paint60_linear_1439_20072)"/>
<path d="M1119.26 329.229C1113.88 329.229 1108.66 326.393 1105.85 321.357C1101.72 313.958 1104.37 304.601 1111.77 300.467L1337.12 174.589C1344.52 170.455 1353.87 173.105 1358 180.504C1362.14 187.903 1359.49 197.26 1352.09 201.394L1126.74 327.272C1124.36 328.603 1121.79 329.229 1119.26 329.229Z" fill="url(#paint61_linear_1439_20072)"/>
<path d="M461.495 971.062C453.02 971.062 446.15 964.19 446.15 955.713V697.943C446.15 689.466 453.02 682.583 461.495 682.583C469.97 682.583 476.84 689.466 476.84 697.943V955.713C476.84 964.19 469.97 971.062 461.495 971.062Z" fill="url(#paint62_linear_1439_20072)"/>
<path d="M679.965 1099C677.327 1099 674.667 1098.32 672.226 1096.89L453.745 968.955C446.424 964.678 443.962 955.266 448.249 947.955C452.536 940.632 461.945 938.181 469.244 942.458L687.736 1070.39C695.046 1074.68 697.508 1084.08 693.232 1091.4C690.374 1096.28 685.241 1099 679.965 1099Z" fill="url(#paint63_linear_1439_20072)"/>
<path d="M679.996 1099C674.687 1099 669.532 1096.24 666.685 1091.33C662.453 1083.98 664.959 1074.59 672.302 1070.35L893.85 942.348C901.192 938.115 910.58 940.621 914.812 947.966C919.055 955.31 916.548 964.7 909.206 968.944L687.658 1096.94C685.24 1098.33 682.602 1099 679.996 1099Z" fill="url(#paint64_linear_1439_20072)"/>
<path d="M901.523 970.997C893.048 970.997 886.178 964.126 886.178 955.649V715.283C886.178 706.806 893.048 699.934 901.523 699.934C909.998 699.934 916.868 706.806 916.868 715.283V955.649C916.868 964.126 909.998 970.997 901.523 970.997Z" fill="url(#paint65_linear_1439_20072)"/>
<path d="M15.3803 203.43C10.082 203.43 4.91569 200.681 2.06871 195.756C-2.16329 188.411 0.342932 179.022 7.68572 174.778L229.222 46.7557C236.565 42.5338 245.953 45.0295 250.196 52.374C254.439 59.7184 251.921 69.1079 244.579 73.3519L23.0418 201.374C20.6235 202.759 17.9854 203.43 15.3803 203.43Z" fill="url(#paint66_linear_1439_20072)"/>
<path d="M236.902 75.4074C228.427 75.4074 221.557 68.5357 221.557 60.0588V-195.733C221.557 -204.21 228.427 -211.081 236.902 -211.081C245.377 -211.081 252.248 -204.21 252.248 -195.733V60.0588C252.248 68.5357 245.377 75.4074 236.902 75.4074Z" fill="url(#paint67_linear_1439_20072)"/>
<path d="M1123.06 75.4708C1114.59 75.4708 1107.72 68.5991 1107.72 60.1222V-195.757C1107.72 -204.234 1114.59 -211.106 1123.06 -211.106C1131.54 -211.106 1138.41 -204.234 1138.41 -195.757V60.1222C1138.41 68.5991 1131.54 75.4708 1123.06 75.4708Z" fill="url(#paint68_linear_1439_20072)"/>
<path d="M1344.59 203.348C1341.98 203.348 1339.34 202.688 1336.94 201.292L1115.39 73.4122C1108.05 69.1793 1105.53 59.7899 1109.77 52.4454C1114 45.1009 1123.39 42.5831 1130.73 46.8161L1352.27 174.695C1359.61 178.928 1362.13 188.318 1357.9 195.662C1355.05 200.588 1349.9 203.348 1344.59 203.348Z" fill="url(#paint69_linear_1439_20072)"/>
<path d="M461.513 971.065C456.236 971.065 451.114 968.349 448.256 963.468C443.969 956.145 446.42 946.745 453.741 942.457L672.222 814.467C679.532 810.18 688.941 812.631 693.228 819.954C697.515 827.265 695.053 836.677 687.743 840.954L469.251 968.954C466.822 970.383 464.151 971.065 461.513 971.065Z" fill="url(#paint70_linear_1439_20072)"/>
<path d="M901.509 971.001C898.904 971.001 896.266 970.342 893.847 968.945L672.311 841C664.968 836.767 662.451 827.378 666.694 820.033C670.926 812.689 680.313 810.171 687.656 814.415L909.204 942.349C916.535 946.593 919.053 955.983 914.821 963.316C911.974 968.242 906.818 971.001 901.509 971.001Z" fill="url(#paint71_linear_1439_20072)"/>
<path d="M458.423 203.31C455.818 203.31 453.18 202.651 450.761 201.254L229.225 73.353C221.893 69.1201 219.376 59.7307 223.608 52.3752C227.84 45.0417 237.238 42.5129 244.581 46.7569L466.117 174.658C473.449 178.891 475.966 188.281 471.734 195.625C468.887 200.551 463.732 203.31 458.423 203.31Z" fill="url(#paint72_linear_1439_20072)"/>
<path d="M901.491 203.467C896.182 203.467 891.027 200.708 888.18 195.782C883.948 188.449 886.464 179.061 893.796 174.817L1115.39 46.8259C1122.73 42.582 1132.12 45.0997 1136.36 52.4442C1140.59 59.7886 1138.08 69.1781 1130.73 73.4111L909.153 201.411C906.734 202.808 904.096 203.467 901.491 203.467Z" fill="url(#paint73_linear_1439_20072)"/>
<path d="M679.98 843.061C671.505 843.061 664.635 836.19 664.635 827.713L664.58 571.921C664.58 563.444 671.45 556.562 679.925 556.562H679.936C688.411 556.562 695.281 563.433 695.281 571.91L695.325 827.702C695.325 836.179 688.455 843.061 679.98 843.061Z" fill="url(#paint74_linear_1439_20072)"/>
<path d="M679.993 331.432C671.507 331.432 664.637 324.549 664.648 316.072L664.824 -195.852C664.824 -204.34 671.694 -211.211 680.169 -211.211C688.644 -211.2 695.525 -204.329 695.525 -195.852L695.339 316.083C695.339 324.56 688.468 331.432 679.993 331.432Z" fill="url(#paint75_linear_1439_20072)"/>
<path d="M236.806 587.06C231.497 587.06 226.331 584.301 223.495 579.375C219.263 572.031 221.78 562.641 229.123 558.408L672.328 302.781C679.671 298.537 689.058 301.066 693.29 308.411C697.522 315.755 695.005 325.145 687.662 329.378L244.457 585.004C242.049 586.401 239.411 587.06 236.806 587.06Z" fill="url(#paint76_linear_1439_20072)"/>
<path d="M1123.07 587.224C1120.47 587.224 1117.83 586.565 1115.42 585.168L672.326 329.377C664.983 325.144 662.466 315.754 666.698 308.41C670.941 301.054 680.329 298.548 687.66 302.781L1130.76 558.572C1138.1 562.805 1140.62 572.195 1136.38 579.539C1133.54 584.465 1128.38 587.224 1123.07 587.224Z" fill="url(#paint77_linear_1439_20072)"/>
</g>
<defs>
<linearGradient id="paint0_linear_1439_20072" x1="680" y1="1099" x2="680" y2="-467" gradientUnits="userSpaceOnUse">
<stop offset="0.605" stop-color="#1C212C"/>
<stop offset="1" stop-color="#151921"/>
</linearGradient>
<linearGradient id="paint1_linear_1439_20072" x1="680" y1="1099" x2="680" y2="-467" gradientUnits="userSpaceOnUse">
<stop offset="0.605" stop-color="#1C212C"/>
<stop offset="1" stop-color="#151921"/>
</linearGradient>
<linearGradient id="paint2_linear_1439_20072" x1="680" y1="1099" x2="680" y2="-467" gradientUnits="userSpaceOnUse">
<stop offset="0.605" stop-color="#1C212C"/>
<stop offset="1" stop-color="#151921"/>
</linearGradient>
<linearGradient id="paint3_linear_1439_20072" x1="680" y1="1099" x2="680" y2="-467" gradientUnits="userSpaceOnUse">
<stop offset="0.605" stop-color="#1C212C"/>
<stop offset="1" stop-color="#151921"/>
</linearGradient>
<linearGradient id="paint4_linear_1439_20072" x1="680" y1="1099" x2="680" y2="-467" gradientUnits="userSpaceOnUse">
<stop offset="0.605" stop-color="#1C212C"/>
<stop offset="1" stop-color="#151921"/>
</linearGradient>
<linearGradient id="paint5_linear_1439_20072" x1="680" y1="1099" x2="680" y2="-467" gradientUnits="userSpaceOnUse">
<stop offset="0.605" stop-color="#1C212C"/>
<stop offset="1" stop-color="#151921"/>
</linearGradient>
<linearGradient id="paint6_linear_1439_20072" x1="680" y1="1099" x2="680" y2="-467" gradientUnits="userSpaceOnUse">
<stop offset="0.605" stop-color="#1C212C"/>
<stop offset="1" stop-color="#151921"/>
</linearGradient>
<linearGradient id="paint7_linear_1439_20072" x1="680" y1="1099" x2="680" y2="-467" gradientUnits="userSpaceOnUse">
<stop offset="0.605" stop-color="#1C212C"/>
<stop offset="1" stop-color="#151921"/>
</linearGradient>
<linearGradient id="paint8_linear_1439_20072" x1="680" y1="1099" x2="680" y2="-467" gradientUnits="userSpaceOnUse">
<stop offset="0.605" stop-color="#1C212C"/>
<stop offset="1" stop-color="#151921"/>
</linearGradient>
<linearGradient id="paint9_linear_1439_20072" x1="680" y1="1099" x2="680" y2="-467" gradientUnits="userSpaceOnUse">
<stop offset="0.605" stop-color="#1C212C"/>
<stop offset="1" stop-color="#151921"/>
</linearGradient>
<linearGradient id="paint10_linear_1439_20072" x1="680" y1="1099" x2="680" y2="-467" gradientUnits="userSpaceOnUse">
<stop offset="0.605" stop-color="#1C212C"/>
<stop offset="1" stop-color="#151921"/>
</linearGradient>
<linearGradient id="paint11_linear_1439_20072" x1="680" y1="1099" x2="680" y2="-467" gradientUnits="userSpaceOnUse">
<stop offset="0.605" stop-color="#1C212C"/>
<stop offset="1" stop-color="#151921"/>
</linearGradient>
<linearGradient id="paint12_linear_1439_20072" x1="680" y1="1099" x2="680" y2="-467" gradientUnits="userSpaceOnUse">
<stop offset="0.605" stop-color="#1C212C"/>
<stop offset="1" stop-color="#151921"/>
</linearGradient>
<linearGradient id="paint13_linear_1439_20072" x1="680" y1="1099" x2="680" y2="-467" gradientUnits="userSpaceOnUse">
<stop offset="0.605" stop-color="#1C212C"/>
<stop offset="1" stop-color="#151921"/>
</linearGradient>
<linearGradient id="paint14_linear_1439_20072" x1="680" y1="1099" x2="680" y2="-467" gradientUnits="userSpaceOnUse">
<stop offset="0.605" stop-color="#1C212C"/>
<stop offset="1" stop-color="#151921"/>
</linearGradient>
<linearGradient id="paint15_linear_1439_20072" x1="680" y1="1099" x2="680" y2="-467" gradientUnits="userSpaceOnUse">
<stop offset="0.605" stop-color="#1C212C"/>
<stop offset="1" stop-color="#151921"/>
</linearGradient>
<linearGradient id="paint16_linear_1439_20072" x1="680" y1="1099" x2="680" y2="-467" gradientUnits="userSpaceOnUse">
<stop offset="0.605" stop-color="#1C212C"/>
<stop offset="1" stop-color="#151921"/>
</linearGradient>
<linearGradient id="paint17_linear_1439_20072" x1="680" y1="1099" x2="680" y2="-467" gradientUnits="userSpaceOnUse">
<stop offset="0.605" stop-color="#1C212C"/>
<stop offset="1" stop-color="#151921"/>
</linearGradient>
<linearGradient id="paint18_linear_1439_20072" x1="680" y1="1099" x2="680" y2="-467" gradientUnits="userSpaceOnUse">
<stop offset="0.605" stop-color="#1C212C"/>
<stop offset="1" stop-color="#151921"/>
</linearGradient>
<linearGradient id="paint19_linear_1439_20072" x1="680" y1="1099" x2="680" y2="-467" gradientUnits="userSpaceOnUse">
<stop offset="0.605" stop-color="#1C212C"/>
<stop offset="1" stop-color="#151921"/>
</linearGradient>
<linearGradient id="paint20_linear_1439_20072" x1="680" y1="1099" x2="680" y2="-467" gradientUnits="userSpaceOnUse">
<stop offset="0.605" stop-color="#1C212C"/>
<stop offset="1" stop-color="#151921"/>
</linearGradient>
<linearGradient id="paint21_linear_1439_20072" x1="680" y1="1099" x2="680" y2="-467" gradientUnits="userSpaceOnUse">
<stop offset="0.605" stop-color="#1C212C"/>
<stop offset="1" stop-color="#151921"/>
</linearGradient>
<linearGradient id="paint22_linear_1439_20072" x1="680" y1="1099" x2="680" y2="-467" gradientUnits="userSpaceOnUse">
<stop offset="0.605" stop-color="#1C212C"/>
<stop offset="1" stop-color="#151921"/>
</linearGradient>
<linearGradient id="paint23_linear_1439_20072" x1="680" y1="1099" x2="680" y2="-467" gradientUnits="userSpaceOnUse">
<stop offset="0.605" stop-color="#1C212C"/>
<stop offset="1" stop-color="#151921"/>
</linearGradient>
<linearGradient id="paint24_linear_1439_20072" x1="680" y1="1099" x2="680" y2="-467" gradientUnits="userSpaceOnUse">
<stop offset="0.605" stop-color="#1C212C"/>
<stop offset="1" stop-color="#151921"/>
</linearGradient>
<linearGradient id="paint25_linear_1439_20072" x1="680" y1="1099" x2="680" y2="-467" gradientUnits="userSpaceOnUse">
<stop offset="0.605" stop-color="#1C212C"/>
<stop offset="1" stop-color="#151921"/>
</linearGradient>
<linearGradient id="paint26_linear_1439_20072" x1="680" y1="1099" x2="680" y2="-467" gradientUnits="userSpaceOnUse">
<stop offset="0.605" stop-color="#1C212C"/>
<stop offset="1" stop-color="#151921"/>
</linearGradient>
<linearGradient id="paint27_linear_1439_20072" x1="680" y1="1099" x2="680" y2="-467" gradientUnits="userSpaceOnUse">
<stop offset="0.605" stop-color="#1C212C"/>
<stop offset="1" stop-color="#151921"/>
</linearGradient>
<linearGradient id="paint28_linear_1439_20072" x1="680" y1="1099" x2="680" y2="-467" gradientUnits="userSpaceOnUse">
<stop offset="0.605" stop-color="#1C212C"/>
<stop offset="1" stop-color="#151921"/>
</linearGradient>
<linearGradient id="paint29_linear_1439_20072" x1="680" y1="1099" x2="680" y2="-467" gradientUnits="userSpaceOnUse">
<stop offset="0.605" stop-color="#1C212C"/>
<stop offset="1" stop-color="#151921"/>
</linearGradient>
<linearGradient id="paint30_linear_1439_20072" x1="680" y1="1099" x2="680" y2="-467" gradientUnits="userSpaceOnUse">
<stop offset="0.605" stop-color="#1C212C"/>
<stop offset="1" stop-color="#151921"/>
</linearGradient>
<linearGradient id="paint31_linear_1439_20072" x1="680" y1="1099" x2="680" y2="-467" gradientUnits="userSpaceOnUse">
<stop offset="0.605" stop-color="#1C212C"/>
<stop offset="1" stop-color="#151921"/>
</linearGradient>
<linearGradient id="paint32_linear_1439_20072" x1="680" y1="1099" x2="680" y2="-467" gradientUnits="userSpaceOnUse">
<stop offset="0.605" stop-color="#1C212C"/>
<stop offset="1" stop-color="#151921"/>
</linearGradient>
<linearGradient id="paint33_linear_1439_20072" x1="680" y1="1099" x2="680" y2="-467" gradientUnits="userSpaceOnUse">
<stop offset="0.605" stop-color="#1C212C"/>
<stop offset="1" stop-color="#151921"/>
</linearGradient>
<linearGradient id="paint34_linear_1439_20072" x1="680" y1="1099" x2="680" y2="-467" gradientUnits="userSpaceOnUse">
<stop offset="0.605" stop-color="#1C212C"/>
<stop offset="1" stop-color="#151921"/>
</linearGradient>
<linearGradient id="paint35_linear_1439_20072" x1="680" y1="1099" x2="680" y2="-467" gradientUnits="userSpaceOnUse">
<stop offset="0.605" stop-color="#1C212C"/>
<stop offset="1" stop-color="#151921"/>
</linearGradient>
<linearGradient id="paint36_linear_1439_20072" x1="680" y1="1099" x2="680" y2="-467" gradientUnits="userSpaceOnUse">
<stop offset="0.605" stop-color="#1C212C"/>
<stop offset="1" stop-color="#151921"/>
</linearGradient>
<linearGradient id="paint37_linear_1439_20072" x1="680" y1="1099" x2="680" y2="-467" gradientUnits="userSpaceOnUse">
<stop offset="0.605" stop-color="#1C212C"/>
<stop offset="1" stop-color="#151921"/>
</linearGradient>
<linearGradient id="paint38_linear_1439_20072" x1="680" y1="1099" x2="680" y2="-467" gradientUnits="userSpaceOnUse">
<stop offset="0.605" stop-color="#1C212C"/>
<stop offset="1" stop-color="#151921"/>
</linearGradient>
<linearGradient id="paint39_linear_1439_20072" x1="680" y1="1099" x2="680" y2="-467" gradientUnits="userSpaceOnUse">
<stop offset="0.605" stop-color="#1C212C"/>
<stop offset="1" stop-color="#151921"/>
</linearGradient>
<linearGradient id="paint40_linear_1439_20072" x1="680" y1="1099" x2="680" y2="-467" gradientUnits="userSpaceOnUse">
<stop offset="0.605" stop-color="#1C212C"/>
<stop offset="1" stop-color="#151921"/>
</linearGradient>
<linearGradient id="paint41_linear_1439_20072" x1="680" y1="1099" x2="680" y2="-467" gradientUnits="userSpaceOnUse">
<stop offset="0.605" stop-color="#1C212C"/>
<stop offset="1" stop-color="#151921"/>
</linearGradient>
<linearGradient id="paint42_linear_1439_20072" x1="680" y1="1099" x2="680" y2="-467" gradientUnits="userSpaceOnUse">
<stop offset="0.605" stop-color="#1C212C"/>
<stop offset="1" stop-color="#151921"/>
</linearGradient>
<linearGradient id="paint43_linear_1439_20072" x1="680" y1="1099" x2="680" y2="-467" gradientUnits="userSpaceOnUse">
<stop offset="0.605" stop-color="#1C212C"/>
<stop offset="1" stop-color="#151921"/>
</linearGradient>
<linearGradient id="paint44_linear_1439_20072" x1="680" y1="1099" x2="680" y2="-467" gradientUnits="userSpaceOnUse">
<stop offset="0.605" stop-color="#1C212C"/>
<stop offset="1" stop-color="#151921"/>
</linearGradient>
<linearGradient id="paint45_linear_1439_20072" x1="680" y1="1099" x2="680" y2="-467" gradientUnits="userSpaceOnUse">
<stop offset="0.605" stop-color="#1C212C"/>
<stop offset="1" stop-color="#151921"/>
</linearGradient>
<linearGradient id="paint46_linear_1439_20072" x1="680" y1="1099" x2="680" y2="-467" gradientUnits="userSpaceOnUse">
<stop offset="0.605" stop-color="#1C212C"/>
<stop offset="1" stop-color="#151921"/>
</linearGradient>
<linearGradient id="paint47_linear_1439_20072" x1="680" y1="1099" x2="680" y2="-467" gradientUnits="userSpaceOnUse">
<stop offset="0.605" stop-color="#1C212C"/>
<stop offset="1" stop-color="#151921"/>
</linearGradient>
<linearGradient id="paint48_linear_1439_20072" x1="680" y1="1099" x2="680" y2="-467" gradientUnits="userSpaceOnUse">
<stop offset="0.605" stop-color="#1C212C"/>
<stop offset="1" stop-color="#151921"/>
</linearGradient>
<linearGradient id="paint49_linear_1439_20072" x1="680" y1="1099" x2="680" y2="-467" gradientUnits="userSpaceOnUse">
<stop offset="0.605" stop-color="#1C212C"/>
<stop offset="1" stop-color="#151921"/>
</linearGradient>
<linearGradient id="paint50_linear_1439_20072" x1="680" y1="1099" x2="680" y2="-467" gradientUnits="userSpaceOnUse">
<stop offset="0.605" stop-color="#1C212C"/>
<stop offset="1" stop-color="#151921"/>
</linearGradient>
<linearGradient id="paint51_linear_1439_20072" x1="680" y1="1099" x2="680" y2="-467" gradientUnits="userSpaceOnUse">
<stop offset="0.605" stop-color="#1C212C"/>
<stop offset="1" stop-color="#151921"/>
</linearGradient>
<linearGradient id="paint52_linear_1439_20072" x1="680" y1="1099" x2="680" y2="-467" gradientUnits="userSpaceOnUse">
<stop offset="0.605" stop-color="#1C212C"/>
<stop offset="1" stop-color="#151921"/>
</linearGradient>
<linearGradient id="paint53_linear_1439_20072" x1="680" y1="1099" x2="680" y2="-467" gradientUnits="userSpaceOnUse">
<stop offset="0.605" stop-color="#1C212C"/>
<stop offset="1" stop-color="#151921"/>
</linearGradient>
<linearGradient id="paint54_linear_1439_20072" x1="680" y1="1099" x2="680" y2="-467" gradientUnits="userSpaceOnUse">
<stop offset="0.605" stop-color="#1C212C"/>
<stop offset="1" stop-color="#151921"/>
</linearGradient>
<linearGradient id="paint55_linear_1439_20072" x1="680" y1="1099" x2="680" y2="-467" gradientUnits="userSpaceOnUse">
<stop offset="0.605" stop-color="#1C212C"/>
<stop offset="1" stop-color="#151921"/>
</linearGradient>
<linearGradient id="paint56_linear_1439_20072" x1="680" y1="1099" x2="680" y2="-467" gradientUnits="userSpaceOnUse">
<stop offset="0.605" stop-color="#1C212C"/>
<stop offset="1" stop-color="#151921"/>
</linearGradient>
<linearGradient id="paint57_linear_1439_20072" x1="680" y1="1099" x2="680" y2="-467" gradientUnits="userSpaceOnUse">
<stop offset="0.605" stop-color="#1C212C"/>
<stop offset="1" stop-color="#151921"/>
</linearGradient>
<linearGradient id="paint58_linear_1439_20072" x1="680" y1="1099" x2="680" y2="-467" gradientUnits="userSpaceOnUse">
<stop offset="0.605" stop-color="#1C212C"/>
<stop offset="1" stop-color="#151921"/>
</linearGradient>
<linearGradient id="paint59_linear_1439_20072" x1="680" y1="1099" x2="680" y2="-467" gradientUnits="userSpaceOnUse">
<stop offset="0.605" stop-color="#1C212C"/>
<stop offset="1" stop-color="#151921"/>
</linearGradient>
<linearGradient id="paint60_linear_1439_20072" x1="680" y1="1099" x2="680" y2="-467" gradientUnits="userSpaceOnUse">
<stop offset="0.605" stop-color="#1C212C"/>
<stop offset="1" stop-color="#151921"/>
</linearGradient>
<linearGradient id="paint61_linear_1439_20072" x1="680" y1="1099" x2="680" y2="-467" gradientUnits="userSpaceOnUse">
<stop offset="0.605" stop-color="#1C212C"/>
<stop offset="1" stop-color="#151921"/>
</linearGradient>
<linearGradient id="paint62_linear_1439_20072" x1="680" y1="1099" x2="680" y2="-467" gradientUnits="userSpaceOnUse">
<stop offset="0.605" stop-color="#1C212C"/>
<stop offset="1" stop-color="#151921"/>
</linearGradient>
<linearGradient id="paint63_linear_1439_20072" x1="680" y1="1099" x2="680" y2="-467" gradientUnits="userSpaceOnUse">
<stop offset="0.605" stop-color="#1C212C"/>
<stop offset="1" stop-color="#151921"/>
</linearGradient>
<linearGradient id="paint64_linear_1439_20072" x1="680" y1="1099" x2="680" y2="-467" gradientUnits="userSpaceOnUse">
<stop offset="0.605" stop-color="#1C212C"/>
<stop offset="1" stop-color="#151921"/>
</linearGradient>
<linearGradient id="paint65_linear_1439_20072" x1="680" y1="1099" x2="680" y2="-467" gradientUnits="userSpaceOnUse">
<stop offset="0.605" stop-color="#1C212C"/>
<stop offset="1" stop-color="#151921"/>
</linearGradient>
<linearGradient id="paint66_linear_1439_20072" x1="680" y1="1099" x2="680" y2="-467" gradientUnits="userSpaceOnUse">
<stop offset="0.605" stop-color="#1C212C"/>
<stop offset="1" stop-color="#151921"/>
</linearGradient>
<linearGradient id="paint67_linear_1439_20072" x1="680" y1="1099" x2="680" y2="-467" gradientUnits="userSpaceOnUse">
<stop offset="0.605" stop-color="#1C212C"/>
<stop offset="1" stop-color="#151921"/>
</linearGradient>
<linearGradient id="paint68_linear_1439_20072" x1="680" y1="1099" x2="680" y2="-467" gradientUnits="userSpaceOnUse">
<stop offset="0.605" stop-color="#1C212C"/>
<stop offset="1" stop-color="#151921"/>
</linearGradient>
<linearGradient id="paint69_linear_1439_20072" x1="680" y1="1099" x2="680" y2="-467" gradientUnits="userSpaceOnUse">
<stop offset="0.605" stop-color="#1C212C"/>
<stop offset="1" stop-color="#151921"/>
</linearGradient>
<linearGradient id="paint70_linear_1439_20072" x1="680" y1="1099" x2="680" y2="-467" gradientUnits="userSpaceOnUse">
<stop offset="0.605" stop-color="#1C212C"/>
<stop offset="1" stop-color="#151921"/>
</linearGradient>
<linearGradient id="paint71_linear_1439_20072" x1="680" y1="1099" x2="680" y2="-467" gradientUnits="userSpaceOnUse">
<stop offset="0.605" stop-color="#1C212C"/>
<stop offset="1" stop-color="#151921"/>
</linearGradient>
<linearGradient id="paint72_linear_1439_20072" x1="680" y1="1099" x2="680" y2="-467" gradientUnits="userSpaceOnUse">
<stop offset="0.605" stop-color="#1C212C"/>
<stop offset="1" stop-color="#151921"/>
</linearGradient>
<linearGradient id="paint73_linear_1439_20072" x1="680" y1="1099" x2="680" y2="-467" gradientUnits="userSpaceOnUse">
<stop offset="0.605" stop-color="#1C212C"/>
<stop offset="1" stop-color="#151921"/>
</linearGradient>
<linearGradient id="paint74_linear_1439_20072" x1="680" y1="1099" x2="680" y2="-467" gradientUnits="userSpaceOnUse">
<stop offset="0.605" stop-color="#1C212C"/>
<stop offset="1" stop-color="#151921"/>
</linearGradient>
<linearGradient id="paint75_linear_1439_20072" x1="680" y1="1099" x2="680" y2="-467" gradientUnits="userSpaceOnUse">
<stop offset="0.605" stop-color="#1C212C"/>
<stop offset="1" stop-color="#151921"/>
</linearGradient>
<linearGradient id="paint76_linear_1439_20072" x1="680" y1="1099" x2="680" y2="-467" gradientUnits="userSpaceOnUse">
<stop offset="0.605" stop-color="#1C212C"/>
<stop offset="1" stop-color="#151921"/>
</linearGradient>
<linearGradient id="paint77_linear_1439_20072" x1="680" y1="1099" x2="680" y2="-467" gradientUnits="userSpaceOnUse">
<stop offset="0.605" stop-color="#1C212C"/>
<stop offset="1" stop-color="#151921"/>
</linearGradient>
</defs>
</svg>
