<svg width="277" height="104" viewBox="0 0 277 104" fill="none" xmlns="http://www.w3.org/2000/svg">
<path d="M235.55 -94.725C167.588 -188.735 36.2848 -209.851 -57.725 -141.89C-151.735 -73.9284 -172.851 57.3752 -104.89 151.385M235.55 -94.725C303.511 -0.715185 282.395 130.588 188.385 198.55M235.55 -94.725L-104.89 151.385M188.385 198.55C94.3752 266.511 -36.9284 245.395 -104.89 151.385M188.385 198.55L-57.7232 -141.888M31.9815 235.707L98.6825 -179.045M-142.044 -5.01992L272.708 61.681M32.1557 234.624L-140.962 -4.84612L98.5086 -177.964L271.626 61.5067L32.1557 234.624ZM-104.005 150.752L-57.0868 -140.988L234.654 -94.0703L187.736 197.67L-104.005 150.752Z" stroke="url(#paint0_linear_1382_205811)" stroke-width="2.4926" stroke-miterlimit="10" stroke-linecap="round" stroke-linejoin="round"/>
<defs>
<linearGradient id="paint0_linear_1382_205811" x1="29" y1="200" x2="264" y2="-13.5" gradientUnits="userSpaceOnUse">
<stop stop-color="#1C212C"/>
<stop offset="0.757039" stop-color="#151921"/>
</linearGradient>
</defs>
</svg>
