<svg width="24" height="24" viewBox="0 0 24 24" fill="none" xmlns="http://www.w3.org/2000/svg">
<path fillRule="evenodd" clip-rule="evenodd" d="M15.0199 -0.592644L15.0246 -0.597412C13.6207 -0.571101 12.2645 -0.192864 11.0983 0.546853C10.2237 1.47678 9.36786 2.42545 8.53952 3.4001C7.63779 4.45886 6.76795 5.54641 5.94048 6.6701C5.63263 7.09217 5.32934 7.52035 5.043 7.96551C5.48816 7.67917 5.91634 7.37588 6.33841 7.06803C6.83635 6.70036 7.32793 6.32476 7.81238 5.94202C10.1802 4.07382 12.3989 2.02829 14.5299 -0.0938561C14.6936 -0.259282 14.8564 -0.42558 15.0199 -0.592644ZM13.9701 4.96502C15.5496 3.36759 17.1146 1.75084 18.6354 0.0945063C18.0004 -0.164558 17.3487 -0.35151 16.6961 -0.464452C15.2887 0.846621 13.9081 2.18614 12.5425 3.53746C10.9713 5.12299 9.4155 6.72869 7.90403 8.37401C5.71224 10.7567 3.60923 13.222 1.67572 15.8318C4.03338 14.0844 6.27449 12.2002 8.4411 10.2352C10.3294 8.52536 12.163 6.75607 13.9701 4.96502ZM21.3465 1.74464C19.1171 4.21306 16.8053 6.60519 14.4656 8.96633C13.062 10.3592 11.6477 11.7414 10.2128 13.1014C7.07849 16.0732 3.84665 18.9428 0.416626 21.5878C3.12199 18.0794 6.06266 14.7782 9.10738 11.5765C10.4024 10.2154 11.7153 8.87218 13.038 7.53877C15.3407 5.25753 17.6733 3.00163 20.0761 0.823673C20.5154 1.09288 20.9405 1.39943 21.3465 1.74464ZM23.4444 4.16146C23.1721 3.72536 22.8617 3.30418 22.5143 2.90216C20.0442 5.13302 17.6497 7.44719 15.2871 9.78847C13.8934 11.1928 12.5097 12.6087 11.1481 14.0452C8.17702 17.1787 5.30987 20.4098 2.66566 23.8375C6.16767 21.1367 9.46425 18.2023 12.6605 15.1631C14.0271 13.8626 15.3757 12.5442 16.7146 11.216C19.0013 8.90793 21.2619 6.5706 23.4444 4.16146ZM24.1834 5.59313C24.4478 6.21928 24.6408 6.86311 24.7616 7.50788C23.4367 8.93269 22.0799 10.3287 20.7131 11.7116C19.112 13.2985 17.4898 14.8689 15.8272 16.3959C13.4601 18.5721 11.0103 20.6579 8.41881 22.5784C10.1577 20.231 12.0335 18.0001 13.9899 15.8421C15.7065 13.9434 17.4852 12.1005 19.2856 10.2841C20.8915 8.69588 22.5168 7.12231 24.1834 5.59313ZM23.949 12.9196C24.5918 11.7843 24.9119 10.4917 24.9162 9.15788C24.724 9.34471 24.5328 9.53242 24.3432 9.72025C22.1968 11.8755 20.1298 14.1193 18.2444 16.5168C17.8833 16.9761 17.5292 17.4408 17.1813 17.9118C16.8727 18.3346 16.5702 18.762 16.2838 19.2072C16.729 18.9208 17.1572 18.6176 17.5792 18.3097C18.6117 17.5485 19.6151 16.7521 20.5933 15.9273C21.7433 14.9593 22.8591 13.9524 23.949 12.9196Z" fill="url(#paint0_linear_41_1006)"/>
<defs>
<linearGradient id="paint0_linear_41_1006" x1="20.1516" y1="53.8882" x2="49.5823" y2="18.8206" gradientUnits="userSpaceOnUse">
<stop stop-color="#FF2189"/>
<stop offset="1" stop-color="#FF9D00"/>
</linearGradient>
</defs>
</svg>
