<svg width="1360" height="1566" viewBox="0 0 1360 1566" fill="none" xmlns="http://www.w3.org/2000/svg">
<g opacity="0.35">
<path d="M458.456 158.564C453.147 158.564 447.991 155.804 445.144 150.878C440.912 143.534 443.43 134.145 450.772 129.912L672.309 2.05433C679.652 -2.17863 689.039 0.339155 693.271 7.68361C697.514 15.0281 694.997 24.4175 687.654 28.6615L466.117 156.508C463.699 157.904 461.061 158.564 458.456 158.564Z" fill="url(#paint0_linear_1439_20072)"/>
<path d="M901.509 158.646C898.904 158.646 896.266 157.987 893.847 156.59L672.311 28.6561C664.968 24.4122 662.451 15.0227 666.694 7.67828C670.926 0.344816 680.313 -2.18396 687.656 2.05999L909.204 129.994C916.535 134.238 919.053 143.628 914.821 150.961C911.974 155.887 906.818 158.646 901.509 158.646Z" fill="url(#paint1_linear_1439_20072)"/>
<path d="M680.111 286.518C674.813 286.518 669.657 283.813 666.81 278.932C662.557 271.631 664.909 262.308 672.197 258.031L672.384 257.91L893.843 129.998C901.186 125.754 910.574 128.271 914.817 135.616C919.049 142.96 916.531 152.35 909.199 156.583L687.85 284.44C685.409 285.847 682.749 286.518 680.111 286.518Z" fill="url(#paint2_linear_1439_20072)"/>
<path d="M679.894 286.601C677.322 286.601 674.716 285.941 672.309 284.556L450.761 156.5C443.419 152.267 440.901 142.867 445.144 135.533C449.387 128.189 458.775 125.671 466.117 129.915L687.467 257.849C694.81 262.093 697.415 271.538 693.172 278.882C690.325 283.819 685.181 286.601 679.894 286.601Z" fill="url(#paint3_linear_1439_20072)"/>
<path d="M901.523 670.414C893.048 670.414 886.178 663.542 886.178 655.065V143.295C886.178 134.818 893.048 127.936 901.523 127.936C909.998 127.936 916.868 134.818 916.868 143.295V655.065C916.868 663.542 909.998 670.414 901.523 670.414Z" fill="url(#paint4_linear_1439_20072)"/>
<path d="M679.998 798.272C674.688 798.272 669.533 795.512 666.686 790.586C662.454 783.242 664.971 773.852 672.314 769.619L893.851 641.762C901.194 637.518 910.581 640.047 914.813 647.391C919.056 654.736 916.539 664.125 909.196 668.358L687.659 796.216C685.241 797.612 682.603 798.272 679.998 798.272Z" fill="url(#paint5_linear_1439_20072)"/>
<path d="M679.967 798.272C677.362 798.272 674.723 797.612 672.316 796.216L450.768 668.358C443.426 664.125 440.908 654.736 445.14 647.391C449.372 640.047 458.76 637.518 466.113 641.762L687.65 769.619C694.993 773.852 697.51 783.242 693.278 790.586C690.431 795.512 685.276 798.272 679.967 798.272Z" fill="url(#paint6_linear_1439_20072)"/>
<path d="M458.44 670.362C449.965 670.362 443.095 663.545 443.095 655.057V143.21C443.095 134.733 449.965 127.862 458.44 127.862C466.915 127.862 473.785 134.733 473.785 143.21V654.958C473.785 663.435 466.915 670.362 458.44 670.362Z" fill="url(#paint7_linear_1439_20072)"/>
<path d="M236.806 1310.05C234.201 1310.05 231.563 1309.38 229.145 1307.99L7.67368 1180.01C0.330887 1175.77 -2.17535 1166.38 2.05664 1159.04C6.29963 1151.69 15.687 1149.18 23.0298 1153.42L244.501 1281.4C251.843 1285.64 254.35 1295.03 250.118 1302.37C247.271 1307.29 242.104 1310.05 236.806 1310.05Z" fill="url(#paint8_linear_1439_20072)"/>
<path d="M15.3532 1182.07C6.87821 1182.07 0.00808692 1175.2 0.00808692 1166.72V910.839C0.00808692 902.362 6.87821 895.49 15.3532 895.49C23.8282 895.49 30.6983 902.362 30.6983 910.839V1166.72C30.6983 1175.2 23.8282 1182.07 15.3532 1182.07Z" fill="url(#paint9_linear_1439_20072)"/>
<path d="M236.894 1054.12C234.289 1054.12 231.651 1053.46 229.232 1052.07L7.67366 924.133C0.330871 919.9 -2.17535 910.511 2.05665 903.167C6.29964 895.822 15.676 893.304 23.0298 897.548L244.589 1025.47C251.92 1029.72 254.438 1039.1 250.206 1046.44C247.359 1051.36 242.203 1054.12 236.894 1054.12Z" fill="url(#paint10_linear_1439_20072)"/>
<path d="M236.818 1310.04C228.343 1310.04 221.462 1303.15 221.473 1294.68L221.55 1038.9C221.55 1030.41 228.42 1023.47 236.906 1023.47C245.381 1023.47 252.251 1030.28 252.251 1038.76L252.163 1294.69C252.163 1303.16 245.293 1310.04 236.818 1310.04Z" fill="url(#paint11_linear_1439_20072)"/>
<path d="M15.3698 926.2C10.0605 926.2 4.9052 923.44 2.05822 918.514C-2.17377 911.181 0.343441 901.791 7.67524 897.547L450.782 641.668C458.114 637.424 467.512 639.942 471.744 647.286C475.987 654.631 473.47 664.02 466.127 668.264L23.0313 924.144C20.6131 925.54 17.9749 926.2 15.3698 926.2Z" fill="url(#paint12_linear_1439_20072)"/>
<path d="M679.911 798.301C677.306 798.301 674.668 797.63 672.239 796.234L450.757 668.245C443.414 664.001 440.908 654.611 445.151 647.278C449.383 639.933 458.77 637.415 466.113 641.659L687.606 769.649C694.949 773.893 697.455 783.282 693.212 790.627C690.365 795.552 685.209 798.301 679.911 798.301Z" fill="url(#paint13_linear_1439_20072)"/>
<path d="M679.995 1054.12C671.52 1054.12 664.65 1047.25 664.65 1038.77L664.584 782.934C664.584 774.458 671.454 767.575 679.929 767.575H679.94C688.415 767.575 695.285 774.447 695.285 782.924L695.34 1038.76C695.351 1047.25 688.47 1054.12 679.995 1054.12Z" fill="url(#paint14_linear_1439_20072)"/>
<path d="M236.831 1310.04C231.521 1310.04 226.366 1307.28 223.519 1302.35C219.287 1295.02 221.804 1285.63 229.136 1281.39L672.254 1025.49C672.638 1025.27 673.023 1025.07 673.43 1024.87C681.124 1021.27 690.281 1024.59 693.864 1032.28C697.316 1039.69 694.381 1048.43 687.28 1052.27L244.492 1307.98C242.074 1309.38 239.436 1310.04 236.831 1310.04Z" fill="url(#paint15_linear_1439_20072)"/>
<path d="M1344.58 1182.22C1336.09 1182.22 1329.22 1175.33 1329.23 1166.86L1329.3 911.032C1329.3 902.555 1336.17 895.683 1344.64 895.683C1353.12 895.683 1360 902.566 1360 911.043L1359.92 1166.87C1359.92 1175.34 1353.05 1182.22 1344.58 1182.22Z" fill="url(#paint16_linear_1439_20072)"/>
<path d="M1123.05 1310.16C1117.74 1310.16 1112.58 1307.4 1109.74 1302.47C1105.51 1295.14 1108.02 1285.75 1115.35 1281.5L1336.9 1153.57C1344.24 1149.31 1353.63 1151.84 1357.86 1159.19C1362.11 1166.53 1359.59 1175.92 1352.25 1180.15L1130.71 1308.1C1128.29 1309.5 1125.65 1310.16 1123.05 1310.16Z" fill="url(#paint17_linear_1439_20072)"/>
<path d="M1123.03 1310.15C1114.56 1310.15 1107.69 1303.28 1107.69 1294.8L1107.67 1038.91C1107.67 1030.44 1114.54 1023.56 1123.01 1023.56C1131.49 1023.56 1138.37 1030.44 1138.37 1038.91L1138.38 1294.8C1138.38 1303.28 1131.51 1310.15 1123.03 1310.15Z" fill="url(#paint18_linear_1439_20072)"/>
<path d="M1123.03 1054.27C1117.72 1054.27 1112.56 1051.51 1109.72 1046.59C1105.49 1039.24 1108.01 1029.85 1115.35 1025.62L1336.98 897.742C1344.33 893.498 1353.71 896.016 1357.95 903.36C1362.18 910.716 1359.66 920.105 1352.32 924.338L1130.68 1052.22C1128.28 1053.61 1125.64 1054.27 1123.03 1054.27Z" fill="url(#paint19_linear_1439_20072)"/>
<path d="M1123.02 1310.16C1120.41 1310.16 1117.78 1309.5 1115.36 1308.1L672.263 1052.21C664.92 1047.98 662.402 1038.59 666.645 1031.24C670.877 1023.9 680.276 1021.37 687.608 1025.62L1130.71 1281.5C1138.05 1285.75 1140.56 1295.14 1136.33 1302.47C1133.48 1307.4 1128.33 1310.16 1123.02 1310.16Z" fill="url(#paint20_linear_1439_20072)"/>
<path d="M679.937 1054.27C671.462 1054.27 664.592 1047.39 664.592 1038.91L664.647 783.074C664.647 774.598 671.517 767.726 679.992 767.726C688.478 767.726 695.348 774.609 695.337 783.086L695.282 1038.92C695.282 1047.4 688.412 1054.27 679.937 1054.27Z" fill="url(#paint21_linear_1439_20072)"/>
<path d="M680.009 798.437C674.699 798.437 669.544 795.688 666.697 790.762C662.465 783.418 664.971 774.028 672.314 769.784L893.796 641.817C901.139 637.584 910.526 640.091 914.769 647.435C919.012 654.769 916.495 664.158 909.152 668.402L687.67 796.381C685.252 797.766 682.614 798.437 680.009 798.437Z" fill="url(#paint22_linear_1439_20072)"/>
<path d="M1344.63 926.394C1342.03 926.394 1339.39 925.734 1336.97 924.338L893.799 668.403C886.456 664.17 883.95 654.781 888.182 647.437C892.414 640.092 901.812 637.563 909.155 641.818L1352.33 897.742C1359.66 901.986 1362.18 911.375 1357.94 918.709C1355.1 923.634 1349.94 926.394 1344.63 926.394Z" fill="url(#paint23_linear_1439_20072)"/>
<path d="M680.172 286.5H679.787C671.312 286.5 664.431 279.628 664.431 271.151C664.431 262.663 671.312 255.792 679.787 255.792H679.985C688.46 255.792 695.429 262.663 695.429 271.151C695.429 279.628 688.647 286.5 680.172 286.5Z" fill="url(#paint24_linear_1439_20072)"/>
<path d="M236.9 1054.25C232.976 1054.25 229.04 1052.75 226.051 1049.75C224.314 1048.01 222.907 1045.69 222.159 1043.36C219.598 1035.28 224.061 1026.64 232.14 1024.08C239.197 1021.81 246.672 1024.95 250.167 1031.17C253.597 1037.04 252.784 1044.71 247.749 1049.75C244.759 1052.75 240.824 1054.25 236.9 1054.25Z" fill="url(#paint25_linear_1439_20072)"/>
<path d="M1122.99 1054.39C1120.55 1054.39 1118.07 1053.81 1115.78 1052.58C1108.39 1048.64 1105.54 1039.52 1109.31 1032.09C1113 1024.6 1122 1021.42 1129.57 1024.96C1137.26 1028.54 1140.58 1037.68 1136.99 1045.36C1136.88 1045.6 1136.67 1046.01 1136.54 1046.26C1133.78 1051.44 1128.48 1054.39 1122.99 1054.39Z" fill="url(#paint26_linear_1439_20072)"/>
<path d="M458.456 158.564C453.147 158.564 447.991 155.804 445.144 150.878C440.912 143.534 443.43 134.145 450.772 129.912L672.309 2.05433C679.652 -2.17863 689.039 0.339155 693.271 7.68361C697.514 15.0281 694.997 24.4175 687.654 28.6615L466.117 156.508C463.699 157.904 461.061 158.564 458.456 158.564Z" fill="url(#paint27_linear_1439_20072)"/>
<path d="M901.509 158.646C898.904 158.646 896.266 157.987 893.847 156.59L672.311 28.6561C664.968 24.4122 662.451 15.0227 666.694 7.67828C670.926 0.344816 680.313 -2.18396 687.656 2.05999L909.204 129.994C916.535 134.238 919.053 143.628 914.821 150.961C911.974 155.887 906.818 158.646 901.509 158.646Z" fill="url(#paint28_linear_1439_20072)"/>
<path d="M680.111 286.518C674.813 286.518 669.657 283.813 666.81 278.932C662.557 271.631 664.909 262.308 672.197 258.031L672.384 257.91L893.843 129.998C901.186 125.754 910.574 128.271 914.817 135.616C919.049 142.96 916.531 152.35 909.199 156.583L687.85 284.44C685.409 285.847 682.749 286.518 680.111 286.518Z" fill="url(#paint29_linear_1439_20072)"/>
<path d="M679.894 286.601C677.322 286.601 674.716 285.941 672.309 284.556L450.761 156.5C443.419 152.267 440.901 142.867 445.144 135.533C449.387 128.189 458.775 125.671 466.117 129.915L687.467 257.849C694.81 262.093 697.415 271.538 693.172 278.882C690.325 283.819 685.181 286.601 679.894 286.601Z" fill="url(#paint30_linear_1439_20072)"/>
<path d="M901.523 670.414C893.048 670.414 886.178 663.542 886.178 655.065V143.295C886.178 134.818 893.048 127.936 901.523 127.936C909.998 127.936 916.868 134.818 916.868 143.295V655.065C916.868 663.542 909.998 670.414 901.523 670.414Z" fill="url(#paint31_linear_1439_20072)"/>
<path d="M679.998 798.272C674.688 798.272 669.533 795.512 666.686 790.586C662.454 783.242 664.971 773.852 672.314 769.619L893.851 641.762C901.194 637.518 910.581 640.047 914.813 647.391C919.056 654.736 916.539 664.125 909.196 668.358L687.659 796.216C685.241 797.612 682.603 798.272 679.998 798.272Z" fill="url(#paint32_linear_1439_20072)"/>
<path d="M679.967 798.272C677.362 798.272 674.723 797.612 672.316 796.216L450.768 668.358C443.426 664.125 440.908 654.736 445.14 647.391C449.372 640.047 458.76 637.518 466.113 641.762L687.65 769.619C694.993 773.852 697.51 783.242 693.278 790.586C690.431 795.512 685.276 798.272 679.967 798.272Z" fill="url(#paint33_linear_1439_20072)"/>
<path d="M458.44 670.362C449.965 670.362 443.095 663.545 443.095 655.057V143.21C443.095 134.733 449.965 127.862 458.44 127.862C466.915 127.862 473.785 134.733 473.785 143.21V654.958C473.785 663.435 466.915 670.362 458.44 670.362Z" fill="url(#paint34_linear_1439_20072)"/>
<path d="M236.806 1310.05C234.201 1310.05 231.563 1309.38 229.145 1307.99L7.67368 1180.01C0.330887 1175.77 -2.17535 1166.38 2.05664 1159.04C6.29963 1151.69 15.687 1149.18 23.0298 1153.42L244.501 1281.4C251.843 1285.64 254.35 1295.03 250.118 1302.37C247.271 1307.29 242.104 1310.05 236.806 1310.05Z" fill="url(#paint35_linear_1439_20072)"/>
<path d="M15.3532 1182.07C6.87821 1182.07 0.00808692 1175.2 0.00808692 1166.72V910.839C0.00808692 902.362 6.87821 895.49 15.3532 895.49C23.8282 895.49 30.6983 902.362 30.6983 910.839V1166.72C30.6983 1175.2 23.8282 1182.07 15.3532 1182.07Z" fill="url(#paint36_linear_1439_20072)"/>
<path d="M236.894 1054.12C234.289 1054.12 231.651 1053.46 229.232 1052.07L7.67366 924.133C0.330871 919.9 -2.17535 910.511 2.05665 903.167C6.29964 895.822 15.676 893.304 23.0298 897.548L244.589 1025.47C251.92 1029.72 254.438 1039.1 250.206 1046.44C247.359 1051.36 242.203 1054.12 236.894 1054.12Z" fill="url(#paint37_linear_1439_20072)"/>
<path d="M236.818 1310.04C228.343 1310.04 221.462 1303.15 221.473 1294.68L221.55 1038.9C221.55 1030.41 228.42 1023.47 236.906 1023.47C245.381 1023.47 252.251 1030.28 252.251 1038.76L252.163 1294.69C252.163 1303.16 245.293 1310.04 236.818 1310.04Z" fill="url(#paint38_linear_1439_20072)"/>
<path d="M15.3698 926.2C10.0605 926.2 4.9052 923.44 2.05822 918.514C-2.17377 911.181 0.343441 901.791 7.67524 897.547L450.782 641.668C458.114 637.424 467.512 639.942 471.744 647.286C475.987 654.631 473.47 664.02 466.127 668.264L23.0313 924.144C20.6131 925.54 17.9749 926.2 15.3698 926.2Z" fill="url(#paint39_linear_1439_20072)"/>
<path d="M679.911 798.301C677.306 798.301 674.668 797.63 672.239 796.234L450.757 668.245C443.414 664.001 440.908 654.611 445.151 647.278C449.383 639.933 458.77 637.415 466.113 641.659L687.606 769.649C694.949 773.893 697.455 783.282 693.212 790.627C690.365 795.552 685.209 798.301 679.911 798.301Z" fill="url(#paint40_linear_1439_20072)"/>
<path d="M679.995 1054.12C671.52 1054.12 664.65 1047.25 664.65 1038.77L664.584 782.934C664.584 774.458 671.454 767.575 679.929 767.575H679.94C688.415 767.575 695.285 774.447 695.285 782.924L695.34 1038.76C695.351 1047.25 688.47 1054.12 679.995 1054.12Z" fill="url(#paint41_linear_1439_20072)"/>
<path d="M236.831 1310.04C231.521 1310.04 226.366 1307.28 223.519 1302.35C219.287 1295.02 221.804 1285.63 229.136 1281.39L672.254 1025.49C672.638 1025.27 673.023 1025.07 673.43 1024.87C681.124 1021.27 690.281 1024.59 693.864 1032.28C697.316 1039.69 694.381 1048.43 687.28 1052.27L244.492 1307.98C242.074 1309.38 239.436 1310.04 236.831 1310.04Z" fill="url(#paint42_linear_1439_20072)"/>
<path d="M1344.58 1182.22C1336.09 1182.22 1329.22 1175.33 1329.23 1166.86L1329.3 911.032C1329.3 902.555 1336.17 895.683 1344.64 895.683C1353.12 895.683 1360 902.566 1360 911.043L1359.92 1166.87C1359.92 1175.34 1353.05 1182.22 1344.58 1182.22Z" fill="url(#paint43_linear_1439_20072)"/>
<path d="M1123.05 1310.16C1117.74 1310.16 1112.58 1307.4 1109.74 1302.47C1105.51 1295.14 1108.02 1285.75 1115.35 1281.5L1336.9 1153.57C1344.24 1149.31 1353.63 1151.84 1357.86 1159.19C1362.11 1166.53 1359.59 1175.92 1352.25 1180.15L1130.71 1308.1C1128.29 1309.5 1125.65 1310.16 1123.05 1310.16Z" fill="url(#paint44_linear_1439_20072)"/>
<path d="M1123.03 1310.15C1114.56 1310.15 1107.69 1303.28 1107.69 1294.8L1107.67 1038.91C1107.67 1030.44 1114.54 1023.56 1123.01 1023.56C1131.49 1023.56 1138.37 1030.44 1138.37 1038.91L1138.38 1294.8C1138.38 1303.28 1131.51 1310.15 1123.03 1310.15Z" fill="url(#paint45_linear_1439_20072)"/>
<path d="M1123.03 1054.27C1117.72 1054.27 1112.56 1051.51 1109.72 1046.59C1105.49 1039.24 1108.01 1029.85 1115.35 1025.62L1336.98 897.742C1344.33 893.498 1353.71 896.016 1357.95 903.36C1362.18 910.716 1359.66 920.105 1352.32 924.338L1130.68 1052.22C1128.28 1053.61 1125.64 1054.27 1123.03 1054.27Z" fill="url(#paint46_linear_1439_20072)"/>
<path d="M1123.02 1310.16C1120.41 1310.16 1117.78 1309.5 1115.36 1308.1L672.263 1052.21C664.92 1047.98 662.402 1038.59 666.645 1031.24C670.877 1023.9 680.276 1021.37 687.608 1025.62L1130.71 1281.5C1138.05 1285.75 1140.56 1295.14 1136.33 1302.47C1133.48 1307.4 1128.33 1310.16 1123.02 1310.16Z" fill="url(#paint47_linear_1439_20072)"/>
<path d="M679.937 1054.27C671.462 1054.27 664.592 1047.39 664.592 1038.91L664.647 783.074C664.647 774.598 671.517 767.726 679.992 767.726C688.478 767.726 695.348 774.609 695.337 783.086L695.282 1038.92C695.282 1047.4 688.412 1054.27 679.937 1054.27Z" fill="url(#paint48_linear_1439_20072)"/>
<path d="M680.009 798.437C674.699 798.437 669.544 795.688 666.697 790.762C662.465 783.418 664.971 774.028 672.314 769.784L893.796 641.817C901.139 637.584 910.526 640.091 914.769 647.435C919.012 654.769 916.495 664.158 909.152 668.402L687.67 796.381C685.252 797.766 682.614 798.437 680.009 798.437Z" fill="url(#paint49_linear_1439_20072)"/>
<path d="M1344.63 926.394C1342.03 926.394 1339.39 925.734 1336.97 924.338L893.799 668.403C886.456 664.17 883.95 654.781 888.182 647.437C892.414 640.092 901.812 637.563 909.155 641.818L1352.33 897.742C1359.66 901.986 1362.18 911.375 1357.94 918.709C1355.1 923.634 1349.94 926.394 1344.63 926.394Z" fill="url(#paint50_linear_1439_20072)"/>
<path d="M680.172 286.5H679.787C671.312 286.5 664.431 279.628 664.431 271.151C664.431 262.663 671.312 255.792 679.787 255.792H679.985C688.46 255.792 695.429 262.663 695.429 271.151C695.429 279.628 688.647 286.5 680.172 286.5Z" fill="url(#paint51_linear_1439_20072)"/>
<path d="M236.9 1054.25C232.976 1054.25 229.04 1052.75 226.051 1049.75C224.314 1048.01 222.907 1045.69 222.159 1043.36C219.598 1035.28 224.061 1026.64 232.14 1024.08C239.197 1021.81 246.672 1024.95 250.167 1031.17C253.597 1037.04 252.784 1044.71 247.749 1049.75C244.759 1052.75 240.824 1054.25 236.9 1054.25Z" fill="url(#paint52_linear_1439_20072)"/>
<path d="M1122.99 1054.39C1120.55 1054.39 1118.07 1053.81 1115.78 1052.58C1108.39 1048.64 1105.54 1039.52 1109.31 1032.09C1113 1024.6 1122 1021.42 1129.57 1024.96C1137.26 1028.54 1140.58 1037.68 1136.99 1045.36C1136.88 1045.6 1136.67 1046.01 1136.54 1046.26C1133.78 1051.44 1128.48 1054.39 1122.99 1054.39Z" fill="url(#paint53_linear_1439_20072)"/>
<path d="M15.3653 670.425C6.89027 670.425 0.0201464 663.553 0.0201464 655.077V399.252C0.0201464 390.764 6.89027 383.892 15.3653 383.892C23.8402 383.892 30.7104 390.764 30.7104 399.252V655.077C30.7104 663.553 23.8402 670.425 15.3653 670.425Z" fill="url(#paint54_linear_1439_20072)"/>
<path d="M15.3779 414.603C10.0686 414.603 4.91329 411.843 2.06631 406.929C-2.16569 399.584 0.351528 390.195 7.68332 385.951L229.22 257.973C236.574 253.729 245.95 256.258 250.193 263.591C254.436 270.936 251.919 280.325 244.576 284.569L23.0394 412.547C20.6211 413.943 17.983 414.603 15.3779 414.603Z" fill="url(#paint55_linear_1439_20072)"/>
<path d="M453.165 423.157C450.362 423.157 447.537 422.388 444.987 420.782L228.716 284.25C221.538 279.731 219.394 270.243 223.923 263.074C228.452 255.906 237.927 253.762 245.094 258.292L461.377 394.813C468.544 399.343 470.687 408.82 466.158 415.989C463.245 420.617 458.255 423.157 453.165 423.157Z" fill="url(#paint56_linear_1439_20072)"/>
<path d="M244.253 798.437C241.725 798.437 239.153 797.81 236.778 796.48L7.87676 668.468C0.479006 664.334 -2.17012 654.978 1.96295 647.578C6.10701 640.179 15.4394 637.529 22.8591 641.674L251.761 769.685C259.158 773.82 261.797 783.165 257.663 790.575C254.849 795.6 249.639 798.437 244.253 798.437Z" fill="url(#paint57_linear_1439_20072)"/>
<path d="M901.534 423.351C896.39 423.351 891.356 420.757 888.454 416.062C884.002 408.838 886.244 399.383 893.455 394.93L1115 258.178C1122.21 253.736 1131.67 255.968 1136.13 263.181C1140.58 270.404 1138.34 279.86 1131.12 284.313L909.581 421.065C907.075 422.604 904.282 423.351 901.534 423.351Z" fill="url(#paint58_linear_1439_20072)"/>
<path d="M1344.59 414.539C1341.98 414.539 1339.34 413.879 1336.93 412.483L1115.39 284.538C1108.05 280.305 1105.53 270.915 1109.77 263.571C1114 256.226 1123.4 253.708 1130.73 257.952L1352.28 385.887C1359.61 390.131 1362.13 399.52 1357.9 406.853C1355.05 411.779 1349.9 414.539 1344.59 414.539Z" fill="url(#paint59_linear_1439_20072)"/>
<path d="M1344.6 670.343C1336.13 670.343 1329.26 663.471 1329.26 654.994V399.18C1329.26 390.703 1336.13 383.832 1344.6 383.832C1353.08 383.832 1359.95 390.703 1359.95 399.18V654.994C1359.95 663.471 1353.08 670.343 1344.6 670.343Z" fill="url(#paint60_linear_1439_20072)"/>
<path d="M1119.26 796.229C1113.88 796.229 1108.66 793.393 1105.85 788.357C1101.72 780.958 1104.37 771.601 1111.77 767.467L1337.12 641.589C1344.52 637.455 1353.87 640.105 1358 647.504C1362.14 654.903 1359.49 664.26 1352.09 668.394L1126.74 794.272C1124.36 795.603 1121.79 796.229 1119.26 796.229Z" fill="url(#paint61_linear_1439_20072)"/>
<path d="M461.495 1438.06C453.02 1438.06 446.15 1431.19 446.15 1422.71V1164.94C446.15 1156.47 453.02 1149.58 461.495 1149.58C469.97 1149.58 476.84 1156.47 476.84 1164.94V1422.71C476.84 1431.19 469.97 1438.06 461.495 1438.06Z" fill="url(#paint62_linear_1439_20072)"/>
<path d="M679.965 1566C677.327 1566 674.667 1565.32 672.226 1563.89L453.745 1435.95C446.424 1431.68 443.962 1422.27 448.249 1414.95C452.536 1407.63 461.945 1405.18 469.244 1409.46L687.736 1537.39C695.046 1541.68 697.508 1551.08 693.232 1558.4C690.374 1563.28 685.241 1566 679.965 1566Z" fill="url(#paint63_linear_1439_20072)"/>
<path d="M679.996 1566C674.687 1566 669.532 1563.24 666.685 1558.33C662.453 1550.98 664.959 1541.59 672.302 1537.35L893.85 1409.35C901.192 1405.11 910.58 1407.62 914.812 1414.97C919.055 1422.31 916.548 1431.7 909.206 1435.94L687.658 1563.94C685.24 1565.33 682.602 1566 679.996 1566Z" fill="url(#paint64_linear_1439_20072)"/>
<path d="M901.523 1438C893.048 1438 886.178 1431.13 886.178 1422.65V1182.28C886.178 1173.81 893.048 1166.93 901.523 1166.93C909.998 1166.93 916.868 1173.81 916.868 1182.28V1422.65C916.868 1431.13 909.998 1438 901.523 1438Z" fill="url(#paint65_linear_1439_20072)"/>
<path d="M15.3803 670.43C10.082 670.43 4.91569 667.681 2.06871 662.756C-2.16329 655.411 0.342932 646.022 7.68572 641.778L229.222 513.756C236.565 509.534 245.953 512.03 250.196 519.374C254.439 526.718 251.921 536.108 244.579 540.352L23.0418 668.374C20.6235 669.759 17.9854 670.43 15.3803 670.43Z" fill="url(#paint66_linear_1439_20072)"/>
<path d="M236.902 542.407C228.427 542.407 221.557 535.536 221.557 527.059V271.267C221.557 262.79 228.427 255.919 236.902 255.919C245.377 255.919 252.248 262.79 252.248 271.267V527.059C252.248 535.536 245.377 542.407 236.902 542.407Z" fill="url(#paint67_linear_1439_20072)"/>
<path d="M1123.06 542.471C1114.59 542.471 1107.72 535.599 1107.72 527.122V271.243C1107.72 262.766 1114.59 255.894 1123.06 255.894C1131.54 255.894 1138.41 262.766 1138.41 271.243V527.122C1138.41 535.599 1131.54 542.471 1123.06 542.471Z" fill="url(#paint68_linear_1439_20072)"/>
<path d="M1344.59 670.348C1341.98 670.348 1339.34 669.688 1336.94 668.292L1115.39 540.412C1108.05 536.179 1105.53 526.79 1109.77 519.445C1114 512.101 1123.39 509.583 1130.73 513.816L1352.27 641.695C1359.61 645.928 1362.13 655.318 1357.9 662.662C1355.05 667.588 1349.9 670.348 1344.59 670.348Z" fill="url(#paint69_linear_1439_20072)"/>
<path d="M461.513 1438.06C456.236 1438.06 451.114 1435.35 448.256 1430.47C443.969 1423.15 446.42 1413.74 453.741 1409.46L672.222 1281.47C679.532 1277.18 688.941 1279.63 693.228 1286.95C697.515 1294.27 695.053 1303.68 687.743 1307.95L469.251 1435.95C466.822 1437.38 464.151 1438.06 461.513 1438.06Z" fill="url(#paint70_linear_1439_20072)"/>
<path d="M901.509 1438C898.904 1438 896.266 1437.34 893.847 1435.95L672.311 1308C664.968 1303.77 662.451 1294.38 666.694 1287.03C670.926 1279.69 680.313 1277.17 687.656 1281.42L909.204 1409.35C916.535 1413.59 919.053 1422.98 914.821 1430.32C911.974 1435.24 906.818 1438 901.509 1438Z" fill="url(#paint71_linear_1439_20072)"/>
<path d="M458.423 670.31C455.818 670.31 453.18 669.651 450.761 668.254L229.225 540.353C221.893 536.12 219.376 526.731 223.608 519.375C227.84 512.042 237.238 509.513 244.581 513.757L466.117 641.658C473.449 645.891 475.966 655.281 471.734 662.625C468.887 667.551 463.732 670.31 458.423 670.31Z" fill="url(#paint72_linear_1439_20072)"/>
<path d="M901.491 670.467C896.182 670.467 891.027 667.708 888.18 662.782C883.948 655.449 886.464 646.061 893.796 641.817L1115.39 513.826C1122.73 509.582 1132.12 512.1 1136.36 519.444C1140.59 526.789 1138.08 536.178 1130.73 540.411L909.153 668.411C906.734 669.808 904.096 670.467 901.491 670.467Z" fill="url(#paint73_linear_1439_20072)"/>
<path d="M679.98 1310.06C671.505 1310.06 664.635 1303.19 664.635 1294.71L664.58 1038.92C664.58 1030.44 671.45 1023.56 679.925 1023.56H679.936C688.411 1023.56 695.281 1030.43 695.281 1038.91L695.325 1294.7C695.325 1303.18 688.455 1310.06 679.98 1310.06Z" fill="url(#paint74_linear_1439_20072)"/>
<path d="M679.993 798.432C671.507 798.432 664.637 791.549 664.648 783.072L664.824 271.148C664.824 262.66 671.694 255.789 680.169 255.789C688.644 255.8 695.525 262.671 695.525 271.148L695.339 783.083C695.339 791.56 688.468 798.432 679.993 798.432Z" fill="url(#paint75_linear_1439_20072)"/>
<path d="M236.806 1054.06C231.497 1054.06 226.331 1051.3 223.495 1046.37C219.263 1039.03 221.78 1029.64 229.123 1025.41L672.328 769.781C679.671 765.537 689.058 768.066 693.29 775.411C697.522 782.755 695.005 792.145 687.662 796.378L244.457 1052C242.049 1053.4 239.411 1054.06 236.806 1054.06Z" fill="url(#paint76_linear_1439_20072)"/>
<path d="M1123.07 1054.22C1120.47 1054.22 1117.83 1053.56 1115.42 1052.17L672.326 796.377C664.983 792.144 662.466 782.754 666.698 775.41C670.941 768.054 680.329 765.548 687.66 769.781L1130.76 1025.57C1138.1 1029.81 1140.62 1039.19 1136.38 1046.54C1133.54 1051.46 1128.38 1054.22 1123.07 1054.22Z" fill="url(#paint77_linear_1439_20072)"/>
</g>
<defs>
<linearGradient id="paint0_linear_1439_20072" x1="680" y1="1566" x2="680" y2="0" gradientUnits="userSpaceOnUse">
<stop offset="0.605" stop-color="#1C212C"/>
<stop offset="1" stop-color="#151921"/>
</linearGradient>
<linearGradient id="paint1_linear_1439_20072" x1="680" y1="1566" x2="680" y2="0" gradientUnits="userSpaceOnUse">
<stop offset="0.605" stop-color="#1C212C"/>
<stop offset="1" stop-color="#151921"/>
</linearGradient>
<linearGradient id="paint2_linear_1439_20072" x1="680" y1="1566" x2="680" y2="0" gradientUnits="userSpaceOnUse">
<stop offset="0.605" stop-color="#1C212C"/>
<stop offset="1" stop-color="#151921"/>
</linearGradient>
<linearGradient id="paint3_linear_1439_20072" x1="680" y1="1566" x2="680" y2="0" gradientUnits="userSpaceOnUse">
<stop offset="0.605" stop-color="#1C212C"/>
<stop offset="1" stop-color="#151921"/>
</linearGradient>
<linearGradient id="paint4_linear_1439_20072" x1="680" y1="1566" x2="680" y2="0" gradientUnits="userSpaceOnUse">
<stop offset="0.605" stop-color="#1C212C"/>
<stop offset="1" stop-color="#151921"/>
</linearGradient>
<linearGradient id="paint5_linear_1439_20072" x1="680" y1="1566" x2="680" y2="0" gradientUnits="userSpaceOnUse">
<stop offset="0.605" stop-color="#1C212C"/>
<stop offset="1" stop-color="#151921"/>
</linearGradient>
<linearGradient id="paint6_linear_1439_20072" x1="680" y1="1566" x2="680" y2="0" gradientUnits="userSpaceOnUse">
<stop offset="0.605" stop-color="#1C212C"/>
<stop offset="1" stop-color="#151921"/>
</linearGradient>
<linearGradient id="paint7_linear_1439_20072" x1="680" y1="1566" x2="680" y2="0" gradientUnits="userSpaceOnUse">
<stop offset="0.605" stop-color="#1C212C"/>
<stop offset="1" stop-color="#151921"/>
</linearGradient>
<linearGradient id="paint8_linear_1439_20072" x1="680" y1="1566" x2="680" y2="0" gradientUnits="userSpaceOnUse">
<stop offset="0.605" stop-color="#1C212C"/>
<stop offset="1" stop-color="#151921"/>
</linearGradient>
<linearGradient id="paint9_linear_1439_20072" x1="680" y1="1566" x2="680" y2="0" gradientUnits="userSpaceOnUse">
<stop offset="0.605" stop-color="#1C212C"/>
<stop offset="1" stop-color="#151921"/>
</linearGradient>
<linearGradient id="paint10_linear_1439_20072" x1="680" y1="1566" x2="680" y2="0" gradientUnits="userSpaceOnUse">
<stop offset="0.605" stop-color="#1C212C"/>
<stop offset="1" stop-color="#151921"/>
</linearGradient>
<linearGradient id="paint11_linear_1439_20072" x1="680" y1="1566" x2="680" y2="0" gradientUnits="userSpaceOnUse">
<stop offset="0.605" stop-color="#1C212C"/>
<stop offset="1" stop-color="#151921"/>
</linearGradient>
<linearGradient id="paint12_linear_1439_20072" x1="680" y1="1566" x2="680" y2="0" gradientUnits="userSpaceOnUse">
<stop offset="0.605" stop-color="#1C212C"/>
<stop offset="1" stop-color="#151921"/>
</linearGradient>
<linearGradient id="paint13_linear_1439_20072" x1="680" y1="1566" x2="680" y2="0" gradientUnits="userSpaceOnUse">
<stop offset="0.605" stop-color="#1C212C"/>
<stop offset="1" stop-color="#151921"/>
</linearGradient>
<linearGradient id="paint14_linear_1439_20072" x1="680" y1="1566" x2="680" y2="0" gradientUnits="userSpaceOnUse">
<stop offset="0.605" stop-color="#1C212C"/>
<stop offset="1" stop-color="#151921"/>
</linearGradient>
<linearGradient id="paint15_linear_1439_20072" x1="680" y1="1566" x2="680" y2="0" gradientUnits="userSpaceOnUse">
<stop offset="0.605" stop-color="#1C212C"/>
<stop offset="1" stop-color="#151921"/>
</linearGradient>
<linearGradient id="paint16_linear_1439_20072" x1="680" y1="1566" x2="680" y2="0" gradientUnits="userSpaceOnUse">
<stop offset="0.605" stop-color="#1C212C"/>
<stop offset="1" stop-color="#151921"/>
</linearGradient>
<linearGradient id="paint17_linear_1439_20072" x1="680" y1="1566" x2="680" y2="0" gradientUnits="userSpaceOnUse">
<stop offset="0.605" stop-color="#1C212C"/>
<stop offset="1" stop-color="#151921"/>
</linearGradient>
<linearGradient id="paint18_linear_1439_20072" x1="680" y1="1566" x2="680" y2="0" gradientUnits="userSpaceOnUse">
<stop offset="0.605" stop-color="#1C212C"/>
<stop offset="1" stop-color="#151921"/>
</linearGradient>
<linearGradient id="paint19_linear_1439_20072" x1="680" y1="1566" x2="680" y2="0" gradientUnits="userSpaceOnUse">
<stop offset="0.605" stop-color="#1C212C"/>
<stop offset="1" stop-color="#151921"/>
</linearGradient>
<linearGradient id="paint20_linear_1439_20072" x1="680" y1="1566" x2="680" y2="0" gradientUnits="userSpaceOnUse">
<stop offset="0.605" stop-color="#1C212C"/>
<stop offset="1" stop-color="#151921"/>
</linearGradient>
<linearGradient id="paint21_linear_1439_20072" x1="680" y1="1566" x2="680" y2="0" gradientUnits="userSpaceOnUse">
<stop offset="0.605" stop-color="#1C212C"/>
<stop offset="1" stop-color="#151921"/>
</linearGradient>
<linearGradient id="paint22_linear_1439_20072" x1="680" y1="1566" x2="680" y2="0" gradientUnits="userSpaceOnUse">
<stop offset="0.605" stop-color="#1C212C"/>
<stop offset="1" stop-color="#151921"/>
</linearGradient>
<linearGradient id="paint23_linear_1439_20072" x1="680" y1="1566" x2="680" y2="0" gradientUnits="userSpaceOnUse">
<stop offset="0.605" stop-color="#1C212C"/>
<stop offset="1" stop-color="#151921"/>
</linearGradient>
<linearGradient id="paint24_linear_1439_20072" x1="680" y1="1566" x2="680" y2="0" gradientUnits="userSpaceOnUse">
<stop offset="0.605" stop-color="#1C212C"/>
<stop offset="1" stop-color="#151921"/>
</linearGradient>
<linearGradient id="paint25_linear_1439_20072" x1="680" y1="1566" x2="680" y2="0" gradientUnits="userSpaceOnUse">
<stop offset="0.605" stop-color="#1C212C"/>
<stop offset="1" stop-color="#151921"/>
</linearGradient>
<linearGradient id="paint26_linear_1439_20072" x1="680" y1="1566" x2="680" y2="0" gradientUnits="userSpaceOnUse">
<stop offset="0.605" stop-color="#1C212C"/>
<stop offset="1" stop-color="#151921"/>
</linearGradient>
<linearGradient id="paint27_linear_1439_20072" x1="680" y1="1566" x2="680" y2="0" gradientUnits="userSpaceOnUse">
<stop offset="0.605" stop-color="#1C212C"/>
<stop offset="1" stop-color="#151921"/>
</linearGradient>
<linearGradient id="paint28_linear_1439_20072" x1="680" y1="1566" x2="680" y2="0" gradientUnits="userSpaceOnUse">
<stop offset="0.605" stop-color="#1C212C"/>
<stop offset="1" stop-color="#151921"/>
</linearGradient>
<linearGradient id="paint29_linear_1439_20072" x1="680" y1="1566" x2="680" y2="0" gradientUnits="userSpaceOnUse">
<stop offset="0.605" stop-color="#1C212C"/>
<stop offset="1" stop-color="#151921"/>
</linearGradient>
<linearGradient id="paint30_linear_1439_20072" x1="680" y1="1566" x2="680" y2="0" gradientUnits="userSpaceOnUse">
<stop offset="0.605" stop-color="#1C212C"/>
<stop offset="1" stop-color="#151921"/>
</linearGradient>
<linearGradient id="paint31_linear_1439_20072" x1="680" y1="1566" x2="680" y2="0" gradientUnits="userSpaceOnUse">
<stop offset="0.605" stop-color="#1C212C"/>
<stop offset="1" stop-color="#151921"/>
</linearGradient>
<linearGradient id="paint32_linear_1439_20072" x1="680" y1="1566" x2="680" y2="0" gradientUnits="userSpaceOnUse">
<stop offset="0.605" stop-color="#1C212C"/>
<stop offset="1" stop-color="#151921"/>
</linearGradient>
<linearGradient id="paint33_linear_1439_20072" x1="680" y1="1566" x2="680" y2="0" gradientUnits="userSpaceOnUse">
<stop offset="0.605" stop-color="#1C212C"/>
<stop offset="1" stop-color="#151921"/>
</linearGradient>
<linearGradient id="paint34_linear_1439_20072" x1="680" y1="1566" x2="680" y2="0" gradientUnits="userSpaceOnUse">
<stop offset="0.605" stop-color="#1C212C"/>
<stop offset="1" stop-color="#151921"/>
</linearGradient>
<linearGradient id="paint35_linear_1439_20072" x1="680" y1="1566" x2="680" y2="0" gradientUnits="userSpaceOnUse">
<stop offset="0.605" stop-color="#1C212C"/>
<stop offset="1" stop-color="#151921"/>
</linearGradient>
<linearGradient id="paint36_linear_1439_20072" x1="680" y1="1566" x2="680" y2="0" gradientUnits="userSpaceOnUse">
<stop offset="0.605" stop-color="#1C212C"/>
<stop offset="1" stop-color="#151921"/>
</linearGradient>
<linearGradient id="paint37_linear_1439_20072" x1="680" y1="1566" x2="680" y2="0" gradientUnits="userSpaceOnUse">
<stop offset="0.605" stop-color="#1C212C"/>
<stop offset="1" stop-color="#151921"/>
</linearGradient>
<linearGradient id="paint38_linear_1439_20072" x1="680" y1="1566" x2="680" y2="0" gradientUnits="userSpaceOnUse">
<stop offset="0.605" stop-color="#1C212C"/>
<stop offset="1" stop-color="#151921"/>
</linearGradient>
<linearGradient id="paint39_linear_1439_20072" x1="680" y1="1566" x2="680" y2="0" gradientUnits="userSpaceOnUse">
<stop offset="0.605" stop-color="#1C212C"/>
<stop offset="1" stop-color="#151921"/>
</linearGradient>
<linearGradient id="paint40_linear_1439_20072" x1="680" y1="1566" x2="680" y2="0" gradientUnits="userSpaceOnUse">
<stop offset="0.605" stop-color="#1C212C"/>
<stop offset="1" stop-color="#151921"/>
</linearGradient>
<linearGradient id="paint41_linear_1439_20072" x1="680" y1="1566" x2="680" y2="0" gradientUnits="userSpaceOnUse">
<stop offset="0.605" stop-color="#1C212C"/>
<stop offset="1" stop-color="#151921"/>
</linearGradient>
<linearGradient id="paint42_linear_1439_20072" x1="680" y1="1566" x2="680" y2="0" gradientUnits="userSpaceOnUse">
<stop offset="0.605" stop-color="#1C212C"/>
<stop offset="1" stop-color="#151921"/>
</linearGradient>
<linearGradient id="paint43_linear_1439_20072" x1="680" y1="1566" x2="680" y2="0" gradientUnits="userSpaceOnUse">
<stop offset="0.605" stop-color="#1C212C"/>
<stop offset="1" stop-color="#151921"/>
</linearGradient>
<linearGradient id="paint44_linear_1439_20072" x1="680" y1="1566" x2="680" y2="0" gradientUnits="userSpaceOnUse">
<stop offset="0.605" stop-color="#1C212C"/>
<stop offset="1" stop-color="#151921"/>
</linearGradient>
<linearGradient id="paint45_linear_1439_20072" x1="680" y1="1566" x2="680" y2="0" gradientUnits="userSpaceOnUse">
<stop offset="0.605" stop-color="#1C212C"/>
<stop offset="1" stop-color="#151921"/>
</linearGradient>
<linearGradient id="paint46_linear_1439_20072" x1="680" y1="1566" x2="680" y2="0" gradientUnits="userSpaceOnUse">
<stop offset="0.605" stop-color="#1C212C"/>
<stop offset="1" stop-color="#151921"/>
</linearGradient>
<linearGradient id="paint47_linear_1439_20072" x1="680" y1="1566" x2="680" y2="0" gradientUnits="userSpaceOnUse">
<stop offset="0.605" stop-color="#1C212C"/>
<stop offset="1" stop-color="#151921"/>
</linearGradient>
<linearGradient id="paint48_linear_1439_20072" x1="680" y1="1566" x2="680" y2="0" gradientUnits="userSpaceOnUse">
<stop offset="0.605" stop-color="#1C212C"/>
<stop offset="1" stop-color="#151921"/>
</linearGradient>
<linearGradient id="paint49_linear_1439_20072" x1="680" y1="1566" x2="680" y2="0" gradientUnits="userSpaceOnUse">
<stop offset="0.605" stop-color="#1C212C"/>
<stop offset="1" stop-color="#151921"/>
</linearGradient>
<linearGradient id="paint50_linear_1439_20072" x1="680" y1="1566" x2="680" y2="0" gradientUnits="userSpaceOnUse">
<stop offset="0.605" stop-color="#1C212C"/>
<stop offset="1" stop-color="#151921"/>
</linearGradient>
<linearGradient id="paint51_linear_1439_20072" x1="680" y1="1566" x2="680" y2="0" gradientUnits="userSpaceOnUse">
<stop offset="0.605" stop-color="#1C212C"/>
<stop offset="1" stop-color="#151921"/>
</linearGradient>
<linearGradient id="paint52_linear_1439_20072" x1="680" y1="1566" x2="680" y2="0" gradientUnits="userSpaceOnUse">
<stop offset="0.605" stop-color="#1C212C"/>
<stop offset="1" stop-color="#151921"/>
</linearGradient>
<linearGradient id="paint53_linear_1439_20072" x1="680" y1="1566" x2="680" y2="0" gradientUnits="userSpaceOnUse">
<stop offset="0.605" stop-color="#1C212C"/>
<stop offset="1" stop-color="#151921"/>
</linearGradient>
<linearGradient id="paint54_linear_1439_20072" x1="680" y1="1566" x2="680" y2="0" gradientUnits="userSpaceOnUse">
<stop offset="0.605" stop-color="#1C212C"/>
<stop offset="1" stop-color="#151921"/>
</linearGradient>
<linearGradient id="paint55_linear_1439_20072" x1="680" y1="1566" x2="680" y2="0" gradientUnits="userSpaceOnUse">
<stop offset="0.605" stop-color="#1C212C"/>
<stop offset="1" stop-color="#151921"/>
</linearGradient>
<linearGradient id="paint56_linear_1439_20072" x1="680" y1="1566" x2="680" y2="0" gradientUnits="userSpaceOnUse">
<stop offset="0.605" stop-color="#1C212C"/>
<stop offset="1" stop-color="#151921"/>
</linearGradient>
<linearGradient id="paint57_linear_1439_20072" x1="680" y1="1566" x2="680" y2="0" gradientUnits="userSpaceOnUse">
<stop offset="0.605" stop-color="#1C212C"/>
<stop offset="1" stop-color="#151921"/>
</linearGradient>
<linearGradient id="paint58_linear_1439_20072" x1="680" y1="1566" x2="680" y2="0" gradientUnits="userSpaceOnUse">
<stop offset="0.605" stop-color="#1C212C"/>
<stop offset="1" stop-color="#151921"/>
</linearGradient>
<linearGradient id="paint59_linear_1439_20072" x1="680" y1="1566" x2="680" y2="0" gradientUnits="userSpaceOnUse">
<stop offset="0.605" stop-color="#1C212C"/>
<stop offset="1" stop-color="#151921"/>
</linearGradient>
<linearGradient id="paint60_linear_1439_20072" x1="680" y1="1566" x2="680" y2="0" gradientUnits="userSpaceOnUse">
<stop offset="0.605" stop-color="#1C212C"/>
<stop offset="1" stop-color="#151921"/>
</linearGradient>
<linearGradient id="paint61_linear_1439_20072" x1="680" y1="1566" x2="680" y2="0" gradientUnits="userSpaceOnUse">
<stop offset="0.605" stop-color="#1C212C"/>
<stop offset="1" stop-color="#151921"/>
</linearGradient>
<linearGradient id="paint62_linear_1439_20072" x1="680" y1="1566" x2="680" y2="0" gradientUnits="userSpaceOnUse">
<stop offset="0.605" stop-color="#1C212C"/>
<stop offset="1" stop-color="#151921"/>
</linearGradient>
<linearGradient id="paint63_linear_1439_20072" x1="680" y1="1566" x2="680" y2="0" gradientUnits="userSpaceOnUse">
<stop offset="0.605" stop-color="#1C212C"/>
<stop offset="1" stop-color="#151921"/>
</linearGradient>
<linearGradient id="paint64_linear_1439_20072" x1="680" y1="1566" x2="680" y2="0" gradientUnits="userSpaceOnUse">
<stop offset="0.605" stop-color="#1C212C"/>
<stop offset="1" stop-color="#151921"/>
</linearGradient>
<linearGradient id="paint65_linear_1439_20072" x1="680" y1="1566" x2="680" y2="0" gradientUnits="userSpaceOnUse">
<stop offset="0.605" stop-color="#1C212C"/>
<stop offset="1" stop-color="#151921"/>
</linearGradient>
<linearGradient id="paint66_linear_1439_20072" x1="680" y1="1566" x2="680" y2="0" gradientUnits="userSpaceOnUse">
<stop offset="0.605" stop-color="#1C212C"/>
<stop offset="1" stop-color="#151921"/>
</linearGradient>
<linearGradient id="paint67_linear_1439_20072" x1="680" y1="1566" x2="680" y2="0" gradientUnits="userSpaceOnUse">
<stop offset="0.605" stop-color="#1C212C"/>
<stop offset="1" stop-color="#151921"/>
</linearGradient>
<linearGradient id="paint68_linear_1439_20072" x1="680" y1="1566" x2="680" y2="0" gradientUnits="userSpaceOnUse">
<stop offset="0.605" stop-color="#1C212C"/>
<stop offset="1" stop-color="#151921"/>
</linearGradient>
<linearGradient id="paint69_linear_1439_20072" x1="680" y1="1566" x2="680" y2="0" gradientUnits="userSpaceOnUse">
<stop offset="0.605" stop-color="#1C212C"/>
<stop offset="1" stop-color="#151921"/>
</linearGradient>
<linearGradient id="paint70_linear_1439_20072" x1="680" y1="1566" x2="680" y2="0" gradientUnits="userSpaceOnUse">
<stop offset="0.605" stop-color="#1C212C"/>
<stop offset="1" stop-color="#151921"/>
</linearGradient>
<linearGradient id="paint71_linear_1439_20072" x1="680" y1="1566" x2="680" y2="0" gradientUnits="userSpaceOnUse">
<stop offset="0.605" stop-color="#1C212C"/>
<stop offset="1" stop-color="#151921"/>
</linearGradient>
<linearGradient id="paint72_linear_1439_20072" x1="680" y1="1566" x2="680" y2="0" gradientUnits="userSpaceOnUse">
<stop offset="0.605" stop-color="#1C212C"/>
<stop offset="1" stop-color="#151921"/>
</linearGradient>
<linearGradient id="paint73_linear_1439_20072" x1="680" y1="1566" x2="680" y2="0" gradientUnits="userSpaceOnUse">
<stop offset="0.605" stop-color="#1C212C"/>
<stop offset="1" stop-color="#151921"/>
</linearGradient>
<linearGradient id="paint74_linear_1439_20072" x1="680" y1="1566" x2="680" y2="0" gradientUnits="userSpaceOnUse">
<stop offset="0.605" stop-color="#1C212C"/>
<stop offset="1" stop-color="#151921"/>
</linearGradient>
<linearGradient id="paint75_linear_1439_20072" x1="680" y1="1566" x2="680" y2="0" gradientUnits="userSpaceOnUse">
<stop offset="0.605" stop-color="#1C212C"/>
<stop offset="1" stop-color="#151921"/>
</linearGradient>
<linearGradient id="paint76_linear_1439_20072" x1="680" y1="1566" x2="680" y2="0" gradientUnits="userSpaceOnUse">
<stop offset="0.605" stop-color="#1C212C"/>
<stop offset="1" stop-color="#151921"/>
</linearGradient>
<linearGradient id="paint77_linear_1439_20072" x1="680" y1="1566" x2="680" y2="0" gradientUnits="userSpaceOnUse">
<stop offset="0.605" stop-color="#1C212C"/>
<stop offset="1" stop-color="#151921"/>
</linearGradient>
</defs>
</svg>
