<svg width="32" height="32" viewBox="0 0 32 32" fill="none" xmlns="http://www.w3.org/2000/svg">
<rect width="32" height="32" rx="16" fill="#F7931A"/>
<path fill-rule="evenodd" clip-rule="evenodd" d="M23.6268 14.0075C23.9457 11.871 22.322 10.7225 20.1017 9.95632L20.822 7.06217L19.0634 6.62318L18.3622 9.44114C17.8999 9.32562 17.4251 9.21678 16.9532 9.10887L17.6595 6.27232L15.902 5.83333L15.1813 8.72654C14.7987 8.63928 14.4229 8.55303 14.0583 8.46216L14.0604 8.45306L11.6352 7.84637L11.1674 9.72804C11.1674 9.72804 12.4722 10.0277 12.4447 10.0461C13.1568 10.2242 13.2856 10.6964 13.2642 11.0707L12.4437 14.3679C12.4928 14.3803 12.5564 14.3984 12.6265 14.4267C12.5679 14.4121 12.5054 14.3961 12.4407 14.3806L11.2906 18.9994C11.2036 19.2161 10.9827 19.5414 10.4848 19.4179C10.5024 19.4435 9.20661 19.0983 9.20661 19.0983L8.3335 21.115L10.622 21.6865C11.0478 21.7935 11.465 21.9054 11.8759 22.0106L11.1481 24.938L12.9047 25.377L13.6254 22.4807C14.1053 22.6112 14.571 22.7316 15.0269 22.8451L14.3086 25.7277L16.0673 26.1667L16.795 23.2448C19.7938 23.8134 22.0486 23.5841 22.9977 20.8669C23.7625 18.6791 22.9597 17.4173 21.382 16.5944C22.5311 16.3289 23.3966 15.5718 23.6274 14.0078L23.6268 14.0075ZM19.6087 19.6519C19.0653 21.8396 15.3884 20.657 14.1963 20.3605L15.162 16.4822C16.354 16.7803 20.1767 17.3703 19.6087 19.6519ZM20.1526 13.9758C19.6568 15.9658 16.5965 14.9548 15.6038 14.7069L16.4794 11.1896C17.4721 11.4375 20.6689 11.9001 20.1526 13.9758Z" fill="white"/>
</svg>
