<svg width="24" height="24" viewBox="0 0 24 24" fill="none" xmlns="http://www.w3.org/2000/svg">
<g clip-path="url(#clip0_41_90)">
<path d="M23.0512 12.0009C23.0512 18.6283 17.8936 24.0009 11.5312 24.0009C5.16891 24.0009 0.0112305 18.6283 0.0112305 12.0009C0.0112305 5.3735 5.16891 0.000915527 11.5312 0.000915527C17.8936 0.000915527 23.0512 5.3735 23.0512 12.0009Z" fill="#FFD15C"/>
<path d="M5.95129 16.9189C6.05069 16.8486 6.14349 16.7432 6.18967 16.5937C6.241 16.4275 6.21071 16.2813 6.18668 16.2003C6.18589 16.1976 6.18505 16.1949 6.18421 16.1922L6.20337 16.0757C6.25627 16.1067 6.31715 16.1484 6.38659 16.1992C6.40333 16.2115 6.42673 16.2288 6.45109 16.2469C6.48305 16.2707 6.51674 16.2958 6.53921 16.312C6.57778 16.34 6.63258 16.379 6.69062 16.4111C8.22685 17.4057 9.4973 17.8157 10.5064 17.7649C11.5496 17.7124 12.2812 17.1657 12.6587 16.3679C13.0234 15.5967 13.0361 14.6411 12.7805 13.7559C12.5232 12.865 11.9822 11.9991 11.1757 11.3999C9.81662 10.3902 8.57139 8.85499 7.94171 7.54959C7.62192 6.88661 7.49471 6.35194 7.5283 6.00282C7.54389 5.84034 7.5917 5.74204 7.64885 5.67879C7.70606 5.61548 7.81029 5.54567 8.01109 5.51123C8.43641 5.43824 8.92833 5.27867 9.42755 5.11676C9.62135 5.05389 9.81623 4.99066 10.0088 4.93201C10.7283 4.71284 11.4901 4.52872 12.2907 4.53028C13.8437 4.53332 15.6663 5.23566 17.5852 8.15735C20.0502 11.9106 18.6969 16.1046 15.8571 18.3079C14.4408 19.4067 12.6739 19.99 10.8581 19.7682C9.22319 19.5686 7.51082 18.7115 5.95129 16.9189Z" fill="white"/>
<path d="M6.23722 15.9475C6.23722 15.9476 6.23669 15.9487 6.23543 15.9506M6.08287 16.0208C6.08281 16.0207 6.08439 16.0209 6.0878 16.0218M5.95129 16.9189C6.05069 16.8486 6.14349 16.7432 6.18967 16.5937C6.241 16.4275 6.21071 16.2813 6.18668 16.2003C6.18589 16.1976 6.18505 16.1949 6.18421 16.1922L6.20337 16.0757C6.25627 16.1067 6.31715 16.1484 6.38659 16.1992C6.40333 16.2115 6.42673 16.2288 6.45109 16.2469C6.48305 16.2707 6.51674 16.2958 6.53921 16.312C6.57778 16.34 6.63258 16.379 6.69062 16.4111C8.22685 17.4057 9.4973 17.8157 10.5064 17.7649C11.5496 17.7124 12.2812 17.1657 12.6587 16.3679C13.0234 15.5967 13.0361 14.6411 12.7805 13.7559C12.5232 12.865 11.9822 11.9991 11.1757 11.3999C9.81662 10.3902 8.57139 8.85499 7.94171 7.54959C7.62192 6.88661 7.49471 6.35194 7.5283 6.00282C7.54389 5.84034 7.5917 5.74204 7.64885 5.67879C7.70606 5.61548 7.81029 5.54567 8.01109 5.51123C8.43641 5.43824 8.92833 5.27867 9.42755 5.11676C9.62135 5.05389 9.81623 4.99066 10.0088 4.93201C10.7283 4.71284 11.4901 4.52872 12.2907 4.53028C13.8437 4.53332 15.6663 5.23566 17.5852 8.15735C20.0502 11.9106 18.6969 16.1046 15.8571 18.3079C14.4408 19.4067 12.6739 19.99 10.8581 19.7682C9.22319 19.5686 7.51082 18.7115 5.95129 16.9189Z" stroke="black" stroke-width="0.966314"/>
<path d="M7.36121 5.70294C7.36121 5.70294 11.7649 4.48145 12.7291 4.48145C13.6933 4.48145 17.546 6.43027 18.6703 9.99162C20.2642 15.0403 15.9288 18.3507 15.4392 18.0261C20.1035 14.0089 12.4685 6.58323 8.71621 7.14152C8.24717 7.21133 8.50774 7.6301 8.50774 7.6301L8.40352 8.71584L7.62178 7.35867L7.36121 5.70294Z" fill="black"/>
<path d="M18.0299 8.47168C19.4206 11.0217 19.1316 9.56174 18.8229 12.4768C19.3942 11.5142 20.2874 12.235 20.6564 12.6031C20.7225 12.6691 20.8316 12.6282 20.8285 12.5328C20.8145 12.1004 20.6955 11.1661 20.0084 10.1637C19.0661 8.78915 18.0299 8.47168 18.0299 8.47168Z" fill="black"/>
<path d="M18.8229 12.4768C18.8761 12.34 18.9591 12.1264 18.9591 12.1264M18.8229 12.4768C19.1316 9.56174 19.4206 11.0217 18.0299 8.47168C18.0299 8.47168 19.0661 8.78915 20.0084 10.1637C20.6955 11.1661 20.8145 12.1004 20.8285 12.5328C20.8316 12.6282 20.7225 12.6691 20.6564 12.6031C20.2874 12.235 19.3942 11.5142 18.8229 12.4768Z" stroke="black" stroke-width="0.0542873"/>
<path d="M6.8416 12.0895C6.25485 13.1243 5.05101 13.0467 5.07406 14.2808C6.1493 16.7694 6.15565 16.5909 6.15565 16.5909C8.14743 15.4254 7.32891 12.8518 7.03338 12.0949C6.99994 12.0093 6.88669 12.01 6.8416 12.0895Z" fill="black"/>
<path d="M2.32511 14.3765C3.46912 14.532 4.15157 13.496 5.07102 14.2748C6.29157 16.6895 6.1526 16.5848 6.1526 16.5848C4.04467 17.5021 2.60173 15.2459 2.21109 14.5372C2.16693 14.4572 2.23718 14.3646 2.32511 14.3765Z" fill="black"/>
<path d="M11.9236 12.8423C11.9236 12.8423 13.0702 14.0639 12.4708 14.2538C11.7234 13.7746 10.3843 14.147 9.72786 14.3776C9.56625 14.4344 9.40781 14.285 9.46606 14.118C9.68927 13.4782 10.2404 12.2939 11.2982 12.1366C11.9236 11.9736 11.9236 12.8423 11.9236 12.8423Z" fill="black"/>
<path d="M12.6258 6.86882C12.4955 6.67884 12.235 6.16309 13.0427 6.16309C13.8506 6.16309 15.0849 7.11587 15.3359 7.46833C15.2577 7.68312 14.7366 7.73118 14.476 7.71029C14.2154 7.68941 13.7723 7.64474 13.4337 7.46833C13.0949 7.29191 12.7562 7.05885 12.6258 6.86882Z" fill="white"/>
</g>
<defs>
<clipPath id="clip0_41_90">
<rect width="24" height="24" fill="white"/>
</clipPath>
</defs>
</svg>
