<svg width="20" height="24" viewBox="0 0 20 24" fill="none" xmlns="http://www.w3.org/2000/svg">
<path fillRule="evenodd" clip-rule="evenodd" d="M0 17.9987V6.00126L10 0L17.9221 4.75532L16.8831 5.37831L10 1.24594L1.03897 6.62425V17.3757L10 22.7488L18.9561 17.3757V9.00707L20 8.38416V17.9987L10 24L0 17.9987ZM5.99381 8.44903V6.86045H10.9939C11.8693 6.86588 12.7073 7.22977 13.3264 7.87303C13.9453 8.51641 14.2955 9.38741 14.3007 10.2971C14.306 10.9936 14.1017 11.6743 13.7162 12.2439C13.3615 12.789 12.8616 13.2148 12.2777 13.4691C11.6994 13.6597 11.096 13.7543 10.4894 13.7495H7.49234V17.3835H5.99381V12.1609H10.9889C11.4615 12.1555 11.913 11.9569 12.2458 11.608C12.5786 11.2593 12.7659 10.7884 12.7672 10.2971C12.7699 10.0543 12.7248 9.81339 12.6346 9.58932C12.5444 9.36514 12.411 9.1627 12.2426 8.99414C12.0798 8.82018 11.8848 8.68223 11.6693 8.58858C11.4539 8.49486 11.2225 8.44738 10.9889 8.44903H5.99381ZM11.1662 14.8132L12.5148 17.259H14.2632L12.7297 14.4809C12.2261 14.6674 11.6997 14.7793 11.1662 14.8132ZM17.914 7.26141V5.99973L18.9481 5.37668L19.9824 5.99973V7.26141L18.9481 7.85845L17.914 7.26141Z" fill="url(#paint0_linear_41_419)"/>
<defs>
<linearGradient id="paint0_linear_41_419" x1="20.0464" y1="6.16604" x2="-1.38249" y2="14.4123" gradientUnits="userSpaceOnUse">
<stop stop-color="#C200FB"/>
<stop offset="0.489658" stop-color="#3772FF"/>
<stop offset="0.489758" stop-color="#3773FE"/>
<stop offset="1" stop-color="#5AC4BE"/>
</linearGradient>
</defs>
</svg>
