<svg width="60" height="15" viewBox="0 0 60 15" fill="none" xmlns="http://www.w3.org/2000/svg">
<g clipPath="url(#clip0_972_112279)">
<path d="M0 7.5C0 3.35787 3.32372 0 7.42372 0C11.5237 0 14.8474 3.35787 14.8474 7.5C14.8474 11.6421 11.5237 15 7.42372 15C3.32372 15 0 11.6421 0 7.5ZM0.690579 7.5C0.690579 11.2508 3.71108 14.3023 7.42372 14.3023C11.1364 14.3023 14.1569 11.2508 14.1569 7.5C14.1569 3.74921 11.1364 0.697674 7.42372 0.697674C3.71108 0.697674 0.690579 3.74921 0.690579 7.5ZM4.0493 11.9681C3.55695 11.9588 3.21747 11.6258 3.0883 11.3602C2.95913 11.0946 2.95646 10.7497 3.08014 10.4881C3.20381 10.2265 5.58113 5.37796 5.65945 5.21131C5.73777 5.04466 5.72961 5.0537 5.73071 4.86802C5.7318 4.68235 5.73071 2.71475 5.73071 2.71475C5.73071 2.71475 5.54142 2.71475 5.42779 2.71475C5.15313 2.71475 5.03102 2.51321 5.02961 2.35005C5.0282 2.19149 5.13712 1.97743 5.41382 1.9768C5.64925 1.9768 6.06171 1.9768 6.46084 1.9768L6.4577 3.1056H7.29816V3.47474H6.45785V3.85307H7.29816V4.22045H6.45785V5.16913C6.45785 5.26427 6.44483 5.26728 6.3979 5.36749C6.35097 5.46771 3.84291 10.5958 3.76381 10.7664C3.68471 10.937 3.84401 11.2245 4.08022 11.2289C4.31643 11.2334 10.4685 11.2262 10.7686 11.2262C11.0687 11.2262 11.151 10.8655 11.092 10.7485C11.0329 10.6314 8.47026 5.40698 8.42569 5.30724C8.38112 5.2075 8.38677 5.21607 8.38896 5.05354C8.39116 4.89101 8.38896 1.97743 8.38896 1.97743H9.4603C9.55529 1.97653 9.64675 2.01378 9.71455 2.081C9.78235 2.14822 9.82094 2.2399 9.82184 2.33586C9.82273 2.43183 9.78585 2.52422 9.71932 2.59272C9.65278 2.66122 9.56204 2.70021 9.46705 2.70111H9.4603C9.36221 2.70317 9.11643 2.70111 9.11643 2.70111C9.11643 2.70111 9.11643 4.85185 9.11643 4.97315C9.11643 5.09445 9.15017 5.12156 9.22864 5.28171C9.30712 5.44186 11.5689 10.0471 11.7227 10.3589C11.8765 10.6706 11.9304 11.1187 11.6552 11.4912C11.3801 11.8636 11.0551 11.9527 10.7964 11.9556C10.5858 11.9573 6.57447 11.9715 4.82307 11.9715C4.42269 11.9705 4.1408 11.9699 4.0493 11.9681ZM7.15691 10.1321C7.15691 10.082 7.17164 10.0329 7.19923 9.99119C7.22682 9.94947 7.26604 9.91695 7.31193 9.89775C7.35781 9.87855 7.40831 9.87352 7.45702 9.88331C7.50573 9.8931 7.55048 9.91726 7.5856 9.95274C7.62072 9.98822 7.64463 10.0334 7.65432 10.0826C7.66401 10.1319 7.65904 10.1829 7.64003 10.2292C7.62103 10.2756 7.58884 10.3152 7.54754 10.3431C7.50625 10.371 7.45769 10.3858 7.40803 10.3858C7.34143 10.3858 7.27755 10.3591 7.23046 10.3115C7.18337 10.264 7.15691 10.1994 7.15691 10.1321ZM7.90383 10.079C7.89147 10.0668 7.88365 10.0507 7.88173 10.0334C7.8798 10.016 7.88388 9.99857 7.89326 9.98393C7.90265 9.96929 7.91676 9.95839 7.93321 9.95307C7.94966 9.94776 7.96742 9.94836 7.98347 9.95478C7.99952 9.9612 8.01288 9.97304 8.02127 9.98829C8.02966 10.0035 8.03256 10.0212 8.02948 10.0384C8.0264 10.0556 8.01753 10.0711 8.00438 10.0824C7.99123 10.0937 7.97462 10.1001 7.95735 10.1004C7.94747 10.1007 7.93763 10.0989 7.92844 10.0952C7.91925 10.0915 7.91088 10.086 7.90383 10.079ZM6.81068 10.079C6.79839 10.0667 6.79072 10.0505 6.78896 10.0331C6.7872 10.0157 6.79147 9.99825 6.80104 9.98368C6.8106 9.96912 6.82487 9.95837 6.84141 9.95325C6.85796 9.94814 6.87574 9.94898 6.89174 9.95564C6.90773 9.96229 6.92094 9.97435 6.92912 9.98975C6.93729 10.0052 6.93993 10.0229 6.93656 10.0401C6.9332 10.0572 6.92406 10.0727 6.91069 10.0838C6.89732 10.0948 6.88055 10.1009 6.86326 10.1009C6.84355 10.1009 6.82464 10.0931 6.81068 10.079ZM8.23327 9.87923C8.1971 9.84486 8.17182 9.80044 8.16063 9.75156C8.14944 9.70269 8.15285 9.65156 8.17042 9.60464C8.18798 9.55772 8.21893 9.51712 8.25933 9.48796C8.29974 9.4588 8.34779 9.4424 8.39742 9.44083C8.44705 9.43926 8.49602 9.45258 8.53816 9.47912C8.58029 9.50566 8.61369 9.54423 8.63414 9.58994C8.65458 9.63566 8.66115 9.68647 8.65302 9.73596C8.64489 9.78544 8.62242 9.83138 8.58845 9.86797L8.58295 9.87368C8.55939 9.89767 8.53138 9.91673 8.50051 9.92976C8.46965 9.94279 8.43654 9.94955 8.40309 9.94963C8.37159 9.94979 8.34036 9.94365 8.31122 9.93157C8.28207 9.91948 8.25558 9.9017 8.23327 9.87923ZM6.2488 9.87368C6.21608 9.83846 6.19435 9.79428 6.18632 9.74666C6.1783 9.69904 6.18433 9.65008 6.20367 9.60591C6.22301 9.56173 6.2548 9.52428 6.29507 9.49824C6.33534 9.4722 6.38231 9.45872 6.43012 9.45948C6.47793 9.46024 6.52446 9.47521 6.5639 9.50251C6.60334 9.52982 6.63395 9.56825 6.65191 9.61302C6.66987 9.65779 6.67437 9.70691 6.66487 9.75425C6.65537 9.80159 6.63228 9.84506 6.59848 9.87923C6.57619 9.90173 6.54971 9.91954 6.52056 9.93163C6.49141 9.94371 6.46017 9.94983 6.42866 9.94963C6.39521 9.94956 6.36209 9.94282 6.33123 9.92978C6.30036 9.91675 6.27235 9.89768 6.2488 9.87368ZM7.33881 9.72495C7.33881 9.71004 7.34319 9.69548 7.35139 9.68309C7.35959 9.6707 7.37124 9.66104 7.38487 9.65535C7.3985 9.64965 7.4135 9.64817 7.42797 9.65109C7.44243 9.65401 7.45572 9.6612 7.46614 9.67175C7.47656 9.68229 7.48364 9.69573 7.4865 9.71035C7.48936 9.72497 7.48786 9.74012 7.4822 9.75388C7.47653 9.76764 7.46695 9.77939 7.45467 9.78765C7.44239 9.79591 7.42796 9.8003 7.41321 9.80026C7.40342 9.80026 7.39374 9.79832 7.3847 9.79453C7.37567 9.79074 7.36746 9.78519 7.36055 9.77819C7.35364 9.7712 7.34816 9.76289 7.34443 9.75376C7.3407 9.74462 7.33879 9.73483 7.33881 9.72495ZM7.33881 9.51295C7.33878 9.49804 7.34313 9.48346 7.35131 9.47105C7.35949 9.45864 7.37113 9.44896 7.38476 9.44324C7.39839 9.43752 7.41339 9.43601 7.42787 9.43891C7.44235 9.44181 7.45564 9.44899 7.46608 9.45953C7.47652 9.47008 7.48362 9.48351 7.48649 9.49814C7.48936 9.51276 7.48787 9.52792 7.48221 9.54169C7.47655 9.55546 7.46697 9.56722 7.45468 9.57548C7.4424 9.58375 7.42797 9.58814 7.41321 9.58811C7.39348 9.58811 7.37455 9.58019 7.3606 9.56609C7.34665 9.552 7.33881 9.53288 7.33881 9.51295ZM8.08024 9.4722C8.06812 9.45992 8.06058 9.44377 8.05892 9.4265C8.05726 9.40924 8.06157 9.39192 8.07112 9.37751C8.08068 9.3631 8.09488 9.35247 8.11132 9.34745C8.12775 9.34243 8.1454 9.34332 8.16126 9.34997C8.17712 9.35661 8.19021 9.36861 8.1983 9.38391C8.20638 9.39921 8.20897 9.41687 8.20562 9.43389C8.20226 9.4509 8.19318 9.46621 8.1799 9.47722C8.16663 9.48822 8.14999 9.49424 8.13282 9.49424C8.12305 9.49424 8.11338 9.49229 8.10436 9.48851C8.09534 9.48473 8.08714 9.47919 8.08024 9.4722ZM6.64619 9.4722C6.63403 9.4599 6.62647 9.44373 6.62479 9.42643C6.62311 9.40913 6.62741 9.39178 6.63697 9.37732C6.64653 9.36287 6.66075 9.35221 6.67721 9.34716C6.69368 9.34211 6.71136 9.34299 6.72726 9.34963C6.74316 9.35627 6.75629 9.36828 6.76441 9.38361C6.77253 9.39893 6.77514 9.41662 6.7718 9.43367C6.76846 9.45073 6.75937 9.46608 6.74609 9.47712C6.7328 9.48817 6.71613 9.49422 6.69893 9.49424C6.68914 9.49425 6.67944 9.49231 6.67039 9.48853C6.66134 9.48475 6.65311 9.4792 6.64619 9.4722ZM7.33881 9.30016C7.33881 9.28526 7.34319 9.27069 7.35139 9.2583C7.35959 9.24591 7.37124 9.23625 7.38487 9.23056C7.3985 9.22486 7.4135 9.22338 7.42797 9.2263C7.44243 9.22922 7.45572 9.23641 7.46614 9.24696C7.47656 9.25751 7.48364 9.27094 7.4865 9.28556C7.48936 9.30018 7.48786 9.31533 7.4822 9.32909C7.47653 9.34285 7.46695 9.3546 7.45467 9.36286C7.44239 9.37112 7.42796 9.37551 7.41321 9.37548C7.40342 9.37548 7.39374 9.37353 7.3847 9.36974C7.37567 9.36595 7.36746 9.3604 7.36055 9.3534C7.35364 9.34641 7.34816 9.33811 7.34443 9.32897C7.3407 9.31983 7.33879 9.31004 7.33881 9.30016ZM7.93177 9.3222C7.9196 9.3099 7.91204 9.29371 7.91036 9.27641C7.90868 9.2591 7.913 9.24174 7.92257 9.22729C7.93214 9.21284 7.94637 9.20218 7.96285 9.19715C7.97932 9.19211 7.99701 9.193 8.01291 9.19966C8.02881 9.20632 8.04193 9.21835 8.05003 9.23369C8.05814 9.24903 8.06072 9.26674 8.05736 9.28379C8.05399 9.30084 8.04487 9.31619 8.03156 9.32721C8.01824 9.33823 8.00156 9.34425 7.98435 9.34424C7.96463 9.34421 7.94572 9.33628 7.93177 9.3222ZM6.79467 9.3222C6.7825 9.3099 6.77494 9.29371 6.77326 9.27641C6.77158 9.2591 6.7759 9.24174 6.78547 9.22729C6.79504 9.21284 6.80927 9.20218 6.82575 9.19715C6.84222 9.19211 6.85991 9.193 6.87581 9.19966C6.89171 9.20632 6.90483 9.21835 6.91293 9.23369C6.92104 9.24903 6.92362 9.26674 6.92025 9.28379C6.91689 9.30084 6.90777 9.31619 6.89445 9.32721C6.88114 9.33823 6.86446 9.34425 6.84725 9.34424C6.82752 9.34421 6.80862 9.33628 6.79467 9.3222ZM8.67806 9.2935C8.6659 9.2812 8.65833 9.26501 8.65666 9.24771C8.65498 9.2304 8.65929 9.21304 8.66886 9.19859C8.67843 9.18414 8.69267 9.17348 8.70914 9.16845C8.72562 9.16341 8.74331 9.1643 8.75921 9.17096C8.77511 9.17762 8.78822 9.18965 8.79633 9.20499C8.80443 9.22033 8.80702 9.23804 8.80365 9.25509C8.80028 9.27214 8.79116 9.28749 8.77785 9.29851C8.76454 9.30953 8.74786 9.31555 8.73064 9.31554C8.71092 9.31553 8.69201 9.3076 8.67806 9.2935ZM6.02216 9.2935C6.01 9.2812 6.00243 9.26501 6.00075 9.24771C5.99907 9.2304 6.00339 9.21304 6.01296 9.19859C6.02253 9.18414 6.03676 9.17348 6.05324 9.16845C6.06971 9.16341 6.08741 9.1643 6.1033 9.17096C6.1192 9.17762 6.13232 9.18965 6.14042 9.20499C6.14853 9.22033 6.15112 9.23804 6.14775 9.25509C6.14438 9.27214 6.13526 9.28749 6.12195 9.29851C6.10864 9.30953 6.09195 9.31555 6.07474 9.31554C6.06497 9.31554 6.0553 9.31359 6.04628 9.30981C6.03725 9.30603 6.02906 9.30049 6.02216 9.2935ZM7.78251 9.17172C7.77034 9.15942 7.76278 9.14324 7.7611 9.12593C7.75942 9.10863 7.76374 9.09127 7.77331 9.07681C7.78288 9.06236 7.79711 9.05171 7.81359 9.04667C7.83006 9.04163 7.84775 9.04252 7.86365 9.04918C7.87955 9.05585 7.89267 9.06788 7.90077 9.08322C7.90888 9.09856 7.91147 9.11626 7.9081 9.13332C7.90473 9.15037 7.89561 9.16571 7.8823 9.17674C7.86898 9.18776 7.8523 9.19378 7.83509 9.19376C7.81536 9.19375 7.79645 9.18582 7.78251 9.17172ZM6.9433 9.17172C6.93114 9.15942 6.92357 9.14324 6.92189 9.12593C6.92021 9.10863 6.92453 9.09127 6.9341 9.07681C6.94367 9.06236 6.9579 9.05171 6.97438 9.04667C6.99085 9.04163 7.00854 9.04252 7.02444 9.04918C7.04034 9.05585 7.05346 9.06788 7.06156 9.08322C7.06967 9.09856 7.07226 9.11626 7.06889 9.13332C7.06552 9.15037 7.0564 9.16571 7.04309 9.17674C7.02977 9.18776 7.01309 9.19378 6.99588 9.19376C6.97615 9.19375 6.95724 9.18582 6.9433 9.17172ZM6.96857 8.69715C6.96857 8.60777 6.9948 8.5204 7.04395 8.44608C7.0931 8.37177 7.16296 8.31385 7.2447 8.27964C7.32643 8.24544 7.41637 8.23649 7.50314 8.25393C7.58991 8.27136 7.66961 8.3144 7.73217 8.3776C7.79473 8.4408 7.83733 8.52132 7.85459 8.60898C7.87185 8.69664 7.86299 8.78751 7.82913 8.87008C7.79528 8.95266 7.73794 9.02323 7.66439 9.07289C7.59083 9.12255 7.50434 9.14905 7.41588 9.14905C7.29724 9.14905 7.18347 9.10144 7.09958 9.01669C7.0157 8.93194 6.96857 8.817 6.96857 8.69715ZM8.58515 8.68922C8.58515 8.63904 8.59988 8.58999 8.62747 8.54827C8.65507 8.50655 8.69429 8.47403 8.74017 8.45483C8.78606 8.43563 8.83655 8.4306 8.88526 8.44039C8.93397 8.45018 8.97872 8.47434 9.01384 8.50982C9.04896 8.54531 9.07288 8.59051 9.08256 8.63972C9.09225 8.68894 9.08728 8.73995 9.06827 8.7863C9.04927 8.83266 9.01708 8.87228 8.97578 8.90016C8.93449 8.92804 8.88594 8.94292 8.83627 8.94292C8.76967 8.94292 8.7058 8.91619 8.6587 8.86861C8.61161 8.82103 8.58515 8.7565 8.58515 8.68922ZM5.74436 8.68922C5.74436 8.63904 5.75909 8.58999 5.78668 8.54827C5.81427 8.50655 5.85349 8.47403 5.89938 8.45483C5.94527 8.43563 5.99576 8.4306 6.04447 8.44039C6.09318 8.45018 6.13793 8.47434 6.17305 8.50982C6.20817 8.54531 6.23208 8.59051 6.24177 8.63972C6.25146 8.68894 6.24649 8.73995 6.22748 8.7863C6.20848 8.83266 6.17629 8.87228 6.13499 8.90016C6.0937 8.92804 6.04515 8.94292 5.99548 8.94292C5.92888 8.94292 5.86501 8.91619 5.81791 8.86861C5.77082 8.82103 5.74436 8.7565 5.74436 8.68922ZM8.35538 8.69461C8.35538 8.67971 8.35975 8.66514 8.36795 8.65275C8.37615 8.64036 8.3878 8.63071 8.40143 8.62501C8.41507 8.61931 8.43006 8.61783 8.44453 8.62075C8.45899 8.62367 8.47228 8.63086 8.4827 8.64141C8.49312 8.65196 8.50021 8.66539 8.50307 8.68001C8.50592 8.69463 8.50443 8.70978 8.49876 8.72354C8.49309 8.7373 8.48351 8.74905 8.47123 8.75731C8.45895 8.76557 8.44452 8.76996 8.42977 8.76993C8.41999 8.76993 8.4103 8.76798 8.40126 8.76419C8.39223 8.7604 8.38402 8.75485 8.37711 8.74786C8.3702 8.74086 8.36472 8.73256 8.36099 8.72342C8.35727 8.71428 8.35536 8.70449 8.35538 8.69461ZM8.14553 8.69461C8.14557 8.67975 8.14995 8.66524 8.15815 8.6529C8.16634 8.64056 8.17797 8.63095 8.19157 8.62528C8.20516 8.61962 8.22012 8.61815 8.23454 8.62107C8.24896 8.62399 8.2622 8.63116 8.27259 8.64168C8.28298 8.65219 8.29005 8.66559 8.2929 8.68016C8.29576 8.69474 8.29428 8.70984 8.28864 8.72357C8.28301 8.73729 8.27347 8.74902 8.26124 8.75727C8.24901 8.76552 8.23464 8.76993 8.21993 8.76993C8.21015 8.76993 8.20046 8.76798 8.19142 8.76419C8.18239 8.7604 8.17418 8.75485 8.16727 8.74786C8.16036 8.74086 8.15488 8.73256 8.15115 8.72342C8.14742 8.71428 8.14551 8.70449 8.14553 8.69461ZM7.93491 8.69461C7.93494 8.67975 7.93933 8.66524 7.94752 8.6529C7.95572 8.64056 7.96734 8.63095 7.98094 8.62528C7.99454 8.61962 8.00949 8.61815 8.02391 8.62107C8.03833 8.62399 8.05157 8.63116 8.06196 8.64168C8.07235 8.65219 8.07942 8.66559 8.08228 8.68016C8.08514 8.69474 8.08365 8.70984 8.07802 8.72357C8.07238 8.73729 8.06285 8.74902 8.05062 8.75727C8.03839 8.76552 8.02401 8.76993 8.0093 8.76993C7.99952 8.76993 7.98983 8.76798 7.9808 8.76419C7.97176 8.7604 7.96355 8.75485 7.95664 8.74786C7.94973 8.74086 7.94426 8.73256 7.94053 8.72342C7.9368 8.71428 7.93489 8.70449 7.93491 8.69461ZM6.7479 8.69461C6.7479 8.67971 6.75227 8.66515 6.76046 8.65276C6.76865 8.64038 6.7803 8.63073 6.79392 8.62502C6.80754 8.61932 6.82253 8.61783 6.83699 8.62074C6.85145 8.62364 6.86474 8.63082 6.87516 8.64135C6.88559 8.65189 6.89269 8.66531 6.89557 8.67992C6.89844 8.69452 6.89697 8.70967 6.89132 8.72343C6.88568 8.73719 6.87613 8.74896 6.86387 8.75723C6.85161 8.76551 6.83719 8.76993 6.82245 8.76993C6.80268 8.76993 6.78371 8.76199 6.76973 8.74787C6.75575 8.73374 6.7479 8.71458 6.7479 8.69461ZM6.53743 8.69461C6.53746 8.67975 6.54185 8.66524 6.55004 8.6529C6.55823 8.64056 6.56986 8.63095 6.58346 8.62528C6.59706 8.61962 6.61201 8.61815 6.62643 8.62107C6.64085 8.62399 6.65409 8.63116 6.66448 8.64168C6.67487 8.65219 6.68194 8.66559 6.6848 8.68016C6.68766 8.69474 6.68617 8.70984 6.68054 8.72357C6.6749 8.73729 6.66537 8.74902 6.65314 8.75727C6.64091 8.76552 6.62653 8.76993 6.61182 8.76993C6.60204 8.76993 6.59235 8.76798 6.58332 8.76419C6.57428 8.7604 6.56607 8.75485 6.55916 8.74786C6.55225 8.74086 6.54677 8.73256 6.54305 8.72342C6.53932 8.71428 6.53741 8.70449 6.53743 8.69461ZM6.32743 8.69461C6.32743 8.67971 6.3318 8.66515 6.33999 8.65276C6.34819 8.64038 6.35983 8.63073 6.37345 8.62502C6.38707 8.61932 6.40206 8.61783 6.41652 8.62074C6.43099 8.62364 6.44427 8.63082 6.4547 8.64135C6.46512 8.65189 6.47222 8.66531 6.4751 8.67992C6.47797 8.69452 6.4765 8.70967 6.47086 8.72343C6.46521 8.73719 6.45566 8.74896 6.4434 8.75723C6.43114 8.76551 6.41672 8.76993 6.40198 8.76993C6.38221 8.76993 6.36325 8.76199 6.34926 8.74787C6.33528 8.73374 6.32743 8.71458 6.32743 8.69461ZM7.78282 8.32452C7.77066 8.31223 7.7631 8.29605 7.76142 8.27875C7.75974 8.26145 7.76404 8.2441 7.7736 8.22965C7.78316 8.2152 7.79738 8.20454 7.81384 8.19949C7.83031 8.19444 7.848 8.19531 7.86389 8.20196C7.87979 8.2086 7.89292 8.22061 7.90104 8.23593C7.90916 8.25126 7.91177 8.26895 7.90843 8.286C7.90509 8.30305 7.896 8.31841 7.88272 8.32945C7.86943 8.34049 7.85276 8.34654 7.83556 8.34656C7.82577 8.34657 7.81607 8.34463 7.80702 8.34084C7.79797 8.33706 7.78975 8.33152 7.78282 8.32452ZM6.94361 8.32452C6.93145 8.31222 6.92388 8.29604 6.9222 8.27873C6.92053 8.26143 6.92484 8.24407 6.93441 8.22962C6.94398 8.21516 6.95822 8.20451 6.97469 8.19947C6.99116 8.19443 7.00886 8.19532 7.02476 8.20199C7.04065 8.20865 7.05377 8.22068 7.06188 8.23602C7.06998 8.25136 7.07257 8.26906 7.0692 8.28612C7.06583 8.30317 7.05671 8.31851 7.0434 8.32954C7.03009 8.34056 7.0134 8.34658 6.99619 8.34656C6.97647 8.34653 6.95756 8.33861 6.94361 8.32452ZM8.67838 8.19276C8.6661 8.18045 8.65842 8.16422 8.65666 8.14684C8.6549 8.12945 8.65917 8.11199 8.66874 8.09743C8.6783 8.08287 8.69258 8.07211 8.70912 8.06699C8.72566 8.06188 8.74344 8.06272 8.75944 8.06938C8.77543 8.07603 8.78864 8.08809 8.79682 8.10349C8.805 8.1189 8.80763 8.13669 8.80427 8.15383C8.80091 8.17097 8.79176 8.18641 8.77839 8.1975C8.76502 8.20859 8.74826 8.21465 8.73096 8.21464C8.72116 8.21458 8.71146 8.21256 8.70244 8.20869C8.69342 8.20483 8.68524 8.1992 8.67838 8.19212V8.19276ZM6.03817 8.19276C6.02589 8.18045 6.01821 8.16422 6.01645 8.14684C6.01469 8.12945 6.01896 8.11199 6.02853 8.09743C6.03809 8.08287 6.05237 8.07211 6.06891 8.06699C6.08545 8.06188 6.10323 8.06272 6.11923 8.06938C6.13522 8.07603 6.14844 8.08809 6.15661 8.10349C6.16479 8.1189 6.16742 8.13669 6.16406 8.15383C6.1607 8.17097 6.15155 8.18641 6.13818 8.1975C6.12481 8.20859 6.10805 8.21465 6.09075 8.21464C6.08094 8.21461 6.07124 8.2126 6.06222 8.20873C6.05319 8.20487 6.04501 8.19922 6.03817 8.19212V8.19276ZM7.93177 8.17405C7.91961 8.16175 7.91204 8.14558 7.91036 8.12828C7.90868 8.11098 7.91299 8.09363 7.92254 8.07917C7.9321 8.06472 7.94633 8.05406 7.96279 8.04901C7.97925 8.04396 7.99694 8.04484 8.01284 8.05148C8.02874 8.05812 8.04187 8.07013 8.04999 8.08545C8.05811 8.10078 8.06072 8.11847 8.05738 8.13552C8.05404 8.15258 8.04495 8.16793 8.03166 8.17897C8.01837 8.19002 8.00171 8.19606 7.9845 8.19609C7.97471 8.19609 7.96501 8.19415 7.95597 8.19037C7.94692 8.18659 7.9387 8.18104 7.93177 8.17405ZM6.79467 8.17405C6.78251 8.16175 6.77494 8.14558 6.77326 8.12828C6.77158 8.11098 6.77588 8.09363 6.78544 8.07917C6.795 8.06472 6.80923 8.05406 6.82569 8.04901C6.84215 8.04396 6.85984 8.04484 6.87574 8.05148C6.89164 8.05812 6.90476 8.07013 6.91289 8.08545C6.92101 8.10078 6.92362 8.11847 6.92028 8.13552C6.91694 8.15258 6.90785 8.16793 6.89456 8.17897C6.88127 8.19002 6.86461 8.19606 6.8474 8.19609C6.83761 8.19609 6.82791 8.19415 6.81887 8.19037C6.80982 8.18659 6.8016 8.18104 6.79467 8.17405ZM7.34148 8.08969C7.34151 8.07483 7.3459 8.06032 7.35409 8.04798C7.36229 8.03564 7.37392 8.02603 7.38751 8.02037C7.40111 8.0147 7.41606 8.01324 7.43048 8.01616C7.44491 8.01907 7.45815 8.02625 7.46853 8.03676C7.47892 8.04728 7.48599 8.06067 7.48885 8.07525C7.49171 8.08982 7.49023 8.10493 7.48459 8.11865C7.47896 8.13237 7.46942 8.1441 7.45719 8.15235C7.44496 8.16061 7.43058 8.16501 7.41588 8.16501C7.40609 8.16501 7.39641 8.16306 7.38737 8.15927C7.37833 8.15549 7.37013 8.14994 7.36321 8.14294C7.3563 8.13595 7.35083 8.12764 7.3471 8.1185C7.34337 8.10937 7.34146 8.09958 7.34148 8.08969ZM8.08024 8.02326C8.06812 8.01097 8.06058 7.99482 8.05892 7.97756C8.05726 7.96029 8.06157 7.94298 8.07112 7.92857C8.08068 7.91415 8.09488 7.90353 8.11132 7.89851C8.12775 7.89349 8.1454 7.89437 8.16126 7.90102C8.17712 7.90767 8.19021 7.91967 8.1983 7.93497C8.20638 7.95027 8.20897 7.96793 8.20562 7.98494C8.20226 8.00196 8.19318 8.01727 8.1799 8.02827C8.16663 8.03928 8.14999 8.04529 8.13282 8.0453C8.12305 8.0453 8.11338 8.04335 8.10436 8.03957C8.09534 8.03579 8.08714 8.03024 8.08024 8.02326ZM6.64619 8.02326C6.63403 8.01096 6.62647 7.99478 6.62479 7.97748C6.62311 7.96019 6.62741 7.94283 6.63697 7.92838C6.64653 7.91393 6.66075 7.90327 6.67721 7.89822C6.69368 7.89317 6.71136 7.89404 6.72726 7.90069C6.74316 7.90733 6.75629 7.91934 6.76441 7.93466C6.77253 7.94999 6.77514 7.96768 6.7718 7.98473C6.76846 8.00178 6.75937 8.01714 6.74609 8.02818C6.7328 8.03922 6.71613 8.04527 6.69893 8.0453C6.68914 8.0453 6.67944 8.04336 6.67039 8.03958C6.66134 8.03579 6.65312 8.03025 6.64619 8.02326ZM7.34148 7.87595C7.34151 7.86109 7.3459 7.84658 7.35409 7.83424C7.36229 7.8219 7.37392 7.81229 7.38751 7.80663C7.40111 7.80096 7.41606 7.7995 7.43048 7.80241C7.44491 7.80533 7.45815 7.8125 7.46853 7.82302C7.47892 7.83354 7.48599 7.84693 7.48885 7.86151C7.49171 7.87608 7.49023 7.89118 7.48459 7.90491C7.47896 7.91863 7.46942 7.93036 7.45719 7.93861C7.44496 7.94686 7.43058 7.95127 7.41588 7.95127C7.39614 7.95127 7.37722 7.94335 7.36327 7.92926C7.34932 7.91516 7.34148 7.89604 7.34148 7.87611V7.87595ZM6.24283 7.8685C6.20665 7.83415 6.18135 7.78974 6.17014 7.74087C6.15893 7.692 6.16232 7.64087 6.17986 7.59394C6.19741 7.54702 6.22833 7.5064 6.26873 7.47722C6.30912 7.44805 6.35716 7.43162 6.40679 7.43003C6.45642 7.42843 6.5054 7.44174 6.54755 7.46826C6.5897 7.49478 6.62311 7.53333 6.64358 7.57904C6.66404 7.62474 6.67064 7.67555 6.66253 7.72504C6.65441 7.77453 6.63196 7.82048 6.59801 7.85708C6.59613 7.85898 6.59424 7.86105 6.59236 7.86279C6.56882 7.88682 6.54081 7.90592 6.50995 7.91898C6.47908 7.93204 6.44596 7.93881 6.4125 7.9389C6.38102 7.93905 6.34982 7.9329 6.3207 7.92082C6.29159 7.90874 6.26512 7.89095 6.24283 7.8685ZM8.23845 7.86279C8.20578 7.82757 8.18409 7.78341 8.1761 7.73582C8.16811 7.68823 8.17417 7.63932 8.19352 7.59519C8.21287 7.55105 8.24465 7.51365 8.28491 7.48765C8.32516 7.46165 8.37211 7.4482 8.41988 7.44898C8.46765 7.44976 8.51414 7.46474 8.55354 7.49204C8.59294 7.51934 8.62352 7.55776 8.64144 7.6025C8.65937 7.64724 8.66386 7.69633 8.65435 7.74363C8.64484 7.79094 8.62176 7.83436 8.58798 7.8685C8.56569 7.89095 8.53922 7.90874 8.5101 7.92082C8.48099 7.9329 8.44979 7.93905 8.41831 7.9389C8.38485 7.93881 8.35173 7.93204 8.32086 7.91898C8.28999 7.90592 8.26199 7.88682 8.23845 7.86279ZM7.34085 7.66395C7.34085 7.64906 7.34523 7.6345 7.35342 7.62211C7.36161 7.60972 7.37325 7.60007 7.38687 7.59437C7.4005 7.58867 7.41549 7.58718 7.42995 7.59008C7.44441 7.59299 7.45769 7.60016 7.46812 7.6107C7.47855 7.62123 7.48565 7.63465 7.48852 7.64926C7.4914 7.66387 7.48992 7.67901 7.48428 7.69278C7.47864 7.70654 7.46908 7.7183 7.45682 7.72658C7.44456 7.73485 7.43015 7.73927 7.4154 7.73927C7.39566 7.73923 7.37674 7.73127 7.36279 7.71715C7.34884 7.70303 7.34101 7.6839 7.34101 7.66395H7.34085ZM7.15691 7.2463C7.15691 7.19612 7.17164 7.14707 7.19923 7.10535C7.22682 7.06363 7.26604 7.03111 7.31193 7.01191C7.35781 6.99271 7.40831 6.98769 7.45702 6.99748C7.50573 7.00726 7.55048 7.03143 7.5856 7.06691C7.62072 7.10239 7.64463 7.14759 7.65432 7.19681C7.66401 7.24602 7.65904 7.29703 7.64003 7.34339C7.62103 7.38974 7.58884 7.42937 7.54754 7.45724C7.50625 7.48512 7.45769 7.5 7.40803 7.5C7.34143 7.5 7.27755 7.47327 7.23046 7.42569C7.18337 7.37812 7.15691 7.31359 7.15691 7.2463ZM7.90336 7.41168C7.8912 7.39938 7.88364 7.38321 7.88195 7.36591C7.88027 7.34861 7.88458 7.33126 7.89414 7.3168C7.9037 7.30235 7.91792 7.29169 7.93438 7.28664C7.95085 7.2816 7.96853 7.28247 7.98443 7.28911C8.00033 7.29576 8.01346 7.30776 8.02158 7.32309C8.0297 7.33841 8.03231 7.35611 8.02897 7.37316C8.02563 7.39021 8.01654 7.40556 8.00325 7.4166C7.98997 7.42765 7.9733 7.4337 7.9561 7.43372C7.9463 7.43373 7.93661 7.43178 7.92756 7.428C7.91851 7.42422 7.91029 7.41867 7.90336 7.41168ZM6.81068 7.40581C6.79855 7.39353 6.79102 7.37738 6.78935 7.36012C6.78769 7.34285 6.792 7.32554 6.80156 7.31112C6.81111 7.29671 6.82531 7.28609 6.84175 7.28107C6.85818 7.27604 6.87583 7.27693 6.89169 7.28358C6.90755 7.29023 6.92064 7.30223 6.92873 7.31753C6.93682 7.33283 6.9394 7.35049 6.93605 7.3675C6.9327 7.38451 6.92361 7.39983 6.91034 7.41083C6.89706 7.42184 6.88043 7.42785 6.86326 7.42785C6.84353 7.42782 6.82463 7.4199 6.81068 7.40581Z" fill="url(#paint0_linear_972_112279)"/>
<path d="M17.7855 10.7505H19.9483C22.3126 10.7505 23.2794 9.31206 23.2794 7.45624C23.2794 6.64758 23.086 5.92009 22.6114 5.31565C21.838 4.25899 20.6602 4.17908 19.8516 4.17908H17.7855V10.7505ZM19.0951 5.34356H20.0268C20.8178 5.34356 21.2573 5.64483 21.5297 6.00064C21.8373 6.4091 21.9692 6.95963 21.9692 7.47527C21.9692 8.65624 21.4242 9.58859 20.018 9.58859H19.0951V5.34356ZM26.1528 10.7505H29.8003V9.58732H27.4618V7.99789H29.7558V6.83405H27.4624V5.34356H29.801V4.17971H26.1535L26.1528 10.7505ZM32.2437 10.7505H33.7115L35.2233 8.22939L36.7965 10.7505H38.2907L36.0407 7.32305L38.0622 4.17971H36.585L35.276 6.32855L33.9482 4.17971H32.4635L34.5026 7.29641L32.2437 10.7505ZM40.9544 10.7505H44.3998V9.58732H42.2634V4.18035H40.9538L40.9544 10.7505ZM48.3468 9.46301H50.9132L51.3878 10.7505H52.8205L50.244 4.17971H49.0926L46.4558 10.7505H47.8797L48.3468 9.46301ZM50.5617 8.40635H48.6883L49.6112 5.7425L50.5617 8.40635ZM55.4384 10.7505H57.4423C58.3652 10.7505 58.7783 10.6884 59.2968 10.2888C59.7539 9.96914 60 9.40973 60 8.81417C60 8.53003 59.956 7.60656 58.8662 7.23362C59.3584 6.95836 59.6666 6.48838 59.6666 5.88394C59.6666 5.34229 59.4733 4.8628 59.0338 4.56978C58.6998 4.31227 58.2076 4.17908 57.5742 4.17908H55.4384V10.7505ZM56.748 5.34356H57.4687C57.706 5.34356 57.8994 5.3702 58.0494 5.44123C58.234 5.52051 58.4104 5.72538 58.4104 6.0628C58.4104 6.37358 58.2961 6.58605 58.0412 6.71988C57.8743 6.79092 57.6633 6.80868 57.4787 6.80868H56.7492L56.748 5.34356ZM56.748 7.91861H57.6269C57.8554 7.91861 58.0751 7.91861 58.2861 8.00741C58.5498 8.12284 58.7431 8.35371 58.7431 8.73553C58.7431 9.15286 58.541 9.37485 58.2773 9.49028C58.0751 9.57908 57.8378 9.58796 57.6708 9.58796H56.748V7.91861Z" fill="white"/>
</g>
<defs>
<linearGradient id="paint0_linear_972_112279" x1="1.91965" y1="1.58245" x2="13.0265" y2="13.3192" gradientUnits="userSpaceOnUse">
<stop stop-color="#4D2FE5"/>
<stop offset="0.53" stop-color="#D51FD5"/>
<stop offset="1" stop-color="#FB767C"/>
</linearGradient>
<clipPath id="clip0_972_112279">
<rect width="60" height="15" fill="white"/>
</clipPath>
</defs>
</svg>
