<svg width="140" height="37" viewBox="0 0 140 37" fill="none" xmlns="http://www.w3.org/2000/svg">
<path d="M54.6602 10.4103H58.7044V26.2336H54.6602V24.3662C53.4476 25.9057 51.7445 26.677 49.5479 26.677C47.4566 26.677 45.6632 25.8693 44.1707 24.2569C42.6752 22.6414 41.9289 20.6646 41.9289 18.3235C41.9289 15.9823 42.6752 14.0025 44.1707 12.3901C45.6662 10.7747 47.4596 9.96997 49.5479 9.96997C51.7445 9.96997 53.4476 10.7412 54.6602 12.2808V10.4103ZM47.1948 21.5331C48.0102 22.3681 49.0453 22.7841 50.3001 22.7841C51.5549 22.7841 52.593 22.3681 53.4205 21.5331C54.245 20.7011 54.6602 19.6292 54.6602 18.3204C54.6602 17.0117 54.248 15.9428 53.4205 15.1078C52.593 14.2758 51.5549 13.8567 50.3001 13.8567C49.0453 13.8567 48.0102 14.2727 47.1948 15.1078C46.3793 15.9428 45.9731 17.0117 45.9731 18.3204C45.9731 19.6292 46.3793 20.7011 47.1948 21.5331Z" fill="white"/>
<path d="M65.6734 13.131C66.0495 12.1198 66.6724 11.3577 67.539 10.8536C68.4056 10.3465 69.3745 10.0945 70.4397 10.0945V14.6523C69.206 14.5035 68.1047 14.7586 67.1297 15.4114C66.1578 16.0643 65.6704 17.1514 65.6704 18.6696V26.2336H61.6262V10.4103H65.6704V13.131H65.6734Z" fill="white"/>
<path d="M79.3971 26.6772C77.035 26.6772 75.0641 25.8756 73.4843 24.2723C71.9046 22.669 71.1162 20.6861 71.1162 18.3237C71.1162 15.9613 71.9046 13.9784 73.4843 12.3751C75.0641 10.7719 77.032 9.97021 79.3971 9.97021C80.9227 9.97021 82.3129 10.3407 83.5677 11.0786C84.8225 11.8164 85.7733 12.8094 86.4203 14.0544L82.9388 16.1101C82.6259 15.4572 82.1504 14.938 81.5125 14.5584C80.8746 14.1788 80.1584 13.9875 79.364 13.9875C78.1514 13.9875 77.1464 14.3944 76.352 15.2052C75.5576 16.019 75.1604 17.0575 75.1604 18.3237C75.1604 19.5687 75.5576 20.5981 76.352 21.4088C77.1464 22.2226 78.1484 22.6265 79.364 22.6265C80.1795 22.6265 80.9047 22.4413 81.5426 22.0738C82.1805 21.7064 82.6559 21.1932 82.9689 20.5404L86.4805 22.5657C85.7914 23.8107 84.8195 24.8067 83.5647 25.5567C82.3129 26.3037 80.9227 26.6772 79.3971 26.6772Z" fill="white"/>
<path d="M99.7119 10.4105H103.756V26.2339H99.7119V24.3664C98.4993 25.906 96.7961 26.6772 94.5995 26.6772C92.5082 26.6772 90.7148 25.8695 89.2223 24.2571C87.7268 22.6417 86.9806 20.6649 86.9806 18.3237C86.9806 15.9826 87.7268 14.0027 89.2223 12.3903C90.7178 10.7749 92.5112 9.97021 94.5995 9.97021C96.7961 9.97021 98.4993 10.7415 99.7119 12.281V10.4105ZM92.2495 21.5333C93.0649 22.3684 94.1 22.7844 95.3548 22.7844C96.6096 22.7844 97.6477 22.3684 98.4752 21.5333C99.2997 20.7013 99.7149 19.6294 99.7149 18.3207C99.7149 17.0119 99.3027 15.9431 98.4752 15.108C97.6477 14.276 96.6096 13.857 95.3548 13.857C94.1 13.857 93.0649 14.273 92.2495 15.108C91.434 15.9431 91.0278 17.0119 91.0278 18.3207C91.0248 19.6294 91.434 20.7013 92.2495 21.5333Z" fill="white"/>
<path d="M115.398 9.96704C117.113 9.96704 118.528 10.547 119.647 11.707C120.766 12.8669 121.326 14.4702 121.326 16.5168V26.2337H117.282V17.0239C117.282 15.9703 116.999 15.1626 116.436 14.6038C115.871 14.0451 115.118 13.7657 114.18 13.7657C113.136 13.7657 112.299 14.0937 111.67 14.7465C111.044 15.3994 110.728 16.3832 110.728 17.6889V26.2337H106.681V10.4104H110.728V12.1837C111.709 10.7049 113.268 9.96704 115.398 9.96704Z" fill="white"/>
<path d="M135.956 10.4105H140V26.2339H135.956V24.3664C134.743 25.906 133.04 26.6772 130.843 26.6772C128.752 26.6772 126.959 25.8695 125.466 24.2571C123.971 22.6417 123.224 20.6649 123.224 18.3237C123.224 15.9826 123.971 14.0027 125.466 12.3903C126.962 10.7749 128.755 9.97021 130.843 9.97021C133.04 9.97021 134.743 10.7415 135.956 12.281V10.4105ZM128.493 21.5333C129.309 22.3684 130.344 22.7844 131.599 22.7844C132.853 22.7844 133.891 22.3684 134.719 21.5333C135.543 20.7013 135.959 19.6294 135.959 18.3207C135.959 17.0119 135.546 15.9431 134.719 15.108C133.891 14.276 132.853 13.857 131.599 13.857C130.344 13.857 129.309 14.273 128.493 15.108C127.678 15.9431 127.272 17.0119 127.272 18.3207C127.269 19.6294 127.678 20.7013 128.493 21.5333Z" fill="white"/>
<path d="M8.73339 22.5743L8.00561 26.0254L2.61968 22.4895L0 19.595V16.993L6.11206 14.2231L8.44689 13.9805L8.73339 22.5743Z" fill="#1C4B7E"/>
<path d="M34.6391 20.5591V23.2027L32.4772 25.3861L27.0304 27.2321L22.2059 27.5262L22.1351 27.5196L24.7021 23.9172L24.9507 18.2528L21.7482 15.1473L20.533 14.6189L19.1367 14.0107L20.7092 14.1387L27.8207 16.1958L32.1874 18.2944L34.6391 20.5591Z" fill="#1C4B7E"/>
<path d="M34.6388 20.559L32.1871 18.2942L27.8204 16.1956L20.7089 14.1385L19.1364 14.0106H19.1348L18.4481 13.9541L12.9733 13.5088L10.1363 13.8046L8.44689 13.9807L6.11206 14.2233L0 16.9932L1.19541 15.1438L7.4853 12.5019L9.06271 12.4371L14.6792 12.2078L21.9158 13.007L26.2957 14.3512L28.6108 15.0624L32.9775 17.8738L34.6388 20.559Z" fill="#255B8F"/>
<path d="M19.2812 15.8035L18.4481 13.9541L12.9749 13.5088L10.1378 13.8046L9.80029 22.5463L10.5215 23.4984L12.5451 22.1026L14.0698 22.0461L17.4453 23.7044L19.6698 22.4349L19.2812 15.8035ZM12.5435 20.2615C12.5435 20.8564 12.066 21.3383 11.4765 21.3383C10.887 21.3383 10.4095 20.8564 10.4095 20.2615V19.0585C10.4095 18.4637 10.887 17.9818 11.4765 17.9818C11.7712 17.9818 12.038 18.1031 12.2306 18.2975C12.4233 18.4919 12.5418 18.7611 12.5418 19.0585V20.2615H12.5435ZM18.2241 20.2615C18.2241 20.8564 17.7466 21.3383 17.1572 21.3383C16.5677 21.3383 16.0902 20.8564 16.0902 20.2615V19.0585C16.0902 18.4637 16.5677 17.9818 17.1572 17.9818C17.4519 17.9818 17.7186 18.1031 17.9113 18.2975C18.1039 18.4919 18.2241 18.7611 18.2241 19.0585V20.2615Z" fill="#FFE97F"/>
<g filter="url(#filter0_d_6_9)">
<path d="M10.5193 23.4982L17.4431 23.7043L19.6676 22.4348L19.2806 15.8034L18.4475 13.954L19.1341 14.0105H19.1358L20.532 14.6186L21.4146 22.5744L18.9612 27.1837L15.9348 32.8697L15.0934 35.5L10.5193 31.7215L7.8584 26.7284L8.00495 26.0255L8.73273 22.5744L8.44622 13.9806L10.1356 13.8044L9.79971 22.5461L10.5193 23.4982Z" fill="white"/>
</g>
<path d="M24.9506 18.2523L24.702 23.9167L22.135 27.5191L21.2919 28.7005L19.8775 29.749L15.0942 35.4998L15.9356 32.8695L18.962 27.1835L21.4154 22.5742L20.5329 14.6184L21.748 15.1468L24.9506 18.2523Z" fill="#BFC6CD"/>
<path d="M12.5441 19.0582V20.2612C12.5441 20.856 12.0666 21.3379 11.4771 21.3379C10.8877 21.3379 10.4102 20.856 10.4102 20.2612V19.0582C10.4102 18.4633 10.8877 17.9814 11.4771 17.9814C11.7719 17.9814 12.0386 18.1027 12.2313 18.2971C12.4256 18.4916 12.5441 18.7607 12.5441 19.0582Z" fill="#151D26"/>
<path d="M18.2238 19.0582V20.2612C18.2238 20.856 17.7463 21.3379 17.1568 21.3379C16.5673 21.3379 16.0898 20.856 16.0898 20.2612V19.0582C16.0898 18.4633 16.5673 17.9814 17.1568 17.9814C17.4516 17.9814 17.7183 18.1027 17.9109 18.2971C18.1036 18.4916 18.2238 18.7607 18.2238 19.0582Z" fill="#151D26"/>
<path d="M25.6995 4.10901L21.8729 9.31314L21.9157 13.0069L14.679 12.2077L9.06256 12.437L11.4764 6.54325L18.2241 1.38231L23.5359 0.5L28.9432 1.96886L29.233 2.59861L25.6995 4.10901Z" fill="#255B8F"/>
<path d="M25.3671 8.01214L26.2957 14.3511L21.9158 13.0069L21.873 9.31317L25.6997 4.10903L29.2332 2.59863L26.2809 4.86506L25.3671 8.01214Z" fill="#1C4B7E"/>
<path opacity="0.7" d="M8.44678 13.9807L8.48466 15.1372L12.9007 14.6187L18.1121 14.5589L21.0233 15.1372L22.6731 16.0444L21.7478 15.1471L19.1363 14.0106L12.9732 13.5088L8.44678 13.9807Z" fill="#848589"/>
<path d="M23.5359 0.5L18.8053 1.71463L13.5659 6.49839L12.5434 12.2957L9.06256 12.437L11.4764 6.54325L18.2241 1.38231L23.5359 0.5Z" fill="#4F99CB"/>
<path d="M0 16.9932L6.11206 14.2233L10.4096 13.007H18.2242C18.2242 13.007 22.2369 13.0419 21.9142 13.007C21.5931 12.9721 14.6792 12.2095 14.6792 12.2095L7.4853 12.5036L1.19541 15.1455L0 16.9932Z" fill="#4F99CB"/>
<path opacity="0.5" d="M8.44689 13.9805L6.11206 14.2231L0 16.993V19.595L2.61968 22.4895L8.00561 26.0254L4.79151 21.1237L4.91665 18.6064L8.53745 16.7105L8.44689 13.9805Z" fill="#20436F"/>
<path opacity="0.5" d="M19.1367 14.0107L20.7092 14.1387L27.8207 16.1958L32.1874 18.2944L27.8504 17.982L24.9507 18.2528L21.7482 15.1473L19.1367 14.0107Z" fill="#20436F"/>
<path d="M10.4102 19.0583L11.4771 19.6598L10.4102 20.2613V19.0583Z" fill="white"/>
<path d="M16.0898 19.0583L17.1568 19.6598L16.0898 20.2613V19.0583Z" fill="white"/>
<path d="M15.2314 25.1914C15.2149 25.3211 15.1902 25.4523 15.1573 25.5836C14.7802 25.8627 14.3472 26.0737 13.8812 26.2L12.9295 26.1485C12.4256 26.0006 11.9662 25.7531 11.5776 25.4241C11.6451 25.2828 11.7143 25.1416 11.7851 25.0004C12.0403 24.9887 12.2791 24.9405 12.4948 24.8674C12.7533 24.9987 13.0563 25.1433 13.3493 25.1898C13.5716 25.1914 13.9553 25.1599 14.1726 25.11C14.3076 25.0851 14.4427 25.0519 14.5744 25.007C14.8247 25.12 14.9235 25.1566 15.2314 25.1914Z" fill="#FFE97F"/>
<path d="M9.09424 24.5102L9.54541 25.6185L10.3819 26.3778L12.0383 25.8511L12.6656 24.4504L14.0965 24.5335L15.753 26.3778L16.3161 27.0441L17.4259 26.9362C17.4259 26.9362 18.9539 26.1868 18.9539 26.0272C18.9539 25.8677 19.2108 24.7827 19.2108 24.7827L18.6229 24.3723L12.0679 23.0015L9.09424 24.5102Z" fill="#BFC6CD"/>
<path d="M12.2256 21.7684L13.2596 21.6787L13.5445 21.8881L14.1307 21.8648L13.8244 22.0459L12.9155 22.0775L12.2256 21.7684Z" fill="#BFC6CD"/>
<path d="M14.5952 21.6055L15.8581 22.1488L19.2122 24.7825L17.1573 23.7041L14.5952 21.6055Z" fill="#BFC6CD"/>
<path d="M10.1052 23.498L9.09424 24.5116L9.59974 25.4637L10.1052 25.8592L11.7485 25.0583L12.473 24.2325H14.1624L14.7173 24.9303L15.9423 26.3012L17.3468 26.1383L18.5044 25.1862C18.5044 25.1862 18.6493 24.4883 18.6246 24.372C18.5999 24.2557 17.36 23.7041 17.36 23.7041L14.5954 21.6055L13.8232 22.0458L12.9143 22.0774L12.226 21.7683L10.1052 23.498Z" fill="white"/>
<path d="M12.9297 26.1484L14.2255 26.2764L14.9846 26.1069L15.3501 25.9275L15.0867 25.635L14.5697 25.9158L13.8814 26.1999L12.9297 26.1484Z" fill="#8EACAF"/>
<defs>
<filter id="filter0_d_6_9" x="7.8584" y="13.8044" width="13.5562" height="22.6956" filterUnits="userSpaceOnUse" color-interpolation-filters="sRGB">
<feFlood flood-opacity="0" result="BackgroundImageFix"/>
<feColorMatrix in="SourceAlpha" type="matrix" values="0 0 0 0 0 0 0 0 0 0 0 0 0 0 0 0 0 0 127 0" result="hardAlpha"/>
<feOffset dy="1"/>
<feComposite in2="hardAlpha" operator="out"/>
<feColorMatrix type="matrix" values="0 0 0 0 0 0 0 0 0 0 0 0 0 0 0 0 0 0 0.1 0"/>
<feBlend mode="normal" in2="BackgroundImageFix" result="effect1_dropShadow_6_9"/>
<feBlend mode="normal" in="SourceGraphic" in2="effect1_dropShadow_6_9" result="shape"/>
</filter>
</defs>
</svg>
