<svg width="101" height="19" viewBox="0 0 101 19" fill="none" xmlns="http://www.w3.org/2000/svg">
<g clipPath="url(#clip0_972_112275)">
<g clipPath="url(#clip1_972_112275)">
<path d="M37.9488 13.0858C37.0892 13.937 35.9713 14.4043 34.7714 14.4043C33.5716 14.4043 32.4284 13.937 31.5827 13.0858C30.7232 12.2346 30.2758 11.1317 30.2758 9.90822C30.2758 8.68469 30.7232 7.58313 31.5827 6.71908C32.441 5.86788 33.5602 5.4121 34.7714 5.4121C35.9826 5.4121 37.0892 5.86788 37.9488 6.71908C38.8083 7.58184 39.2671 8.69753 39.2671 9.90822C39.2671 11.1189 38.8083 12.2346 37.9488 13.0858ZM36.9367 7.63063C36.3595 7.01951 35.5831 6.69469 34.7714 6.69469C33.9598 6.69469 33.1821 7.01951 32.5935 7.63063C32.005 8.24175 31.6987 9.04545 31.6987 9.90822C31.6987 10.771 32.005 11.5631 32.5935 12.1742C33.1821 12.7854 33.9472 13.1089 34.7714 13.1089C35.5957 13.1089 36.3481 12.7854 36.9367 12.1742C37.5253 11.5631 37.8429 10.7723 37.8429 9.90822C37.8429 9.04417 37.5253 8.24175 36.9367 7.63063ZM42.6965 14.1758H41.4135V5.60468H43.4855C44.3451 5.60468 45.0269 5.62908 45.5928 6.0489C46.1121 6.43278 46.441 7.14019 46.441 7.967C46.441 8.79382 46.1121 9.51407 45.5928 9.89666C45.0269 10.3049 44.3451 10.328 43.4855 10.328H42.6978V14.1758H42.6965ZM43.1326 9.18796C44.3917 9.18796 45.0269 9.04417 45.0269 8.04917C45.0269 7.05417 44.403 6.80253 43.1326 6.80253H42.7784V9.18796H43.1326ZM48.2584 5.6034H52.9558V6.79098H49.6234V8.93761H52.9558V10.1611H49.6234V12.9304H52.9558V14.1771H48.2584V5.60468V5.6034ZM55.1034 5.26831L60.4473 10.5078C60.7876 10.8442 61.0825 11.1908 61.3648 11.5516V5.60468H62.6239V14.5122L57.1754 9.17769C56.8692 8.87727 56.5982 8.55373 56.3638 8.21864V14.1771H55.1034V5.26959V5.26831ZM65.1345 5.6034H67.2532C68.148 5.6034 68.8198 5.63935 69.3365 6.03478C69.8558 6.41866 70.1608 7.07857 70.1608 7.84504C70.1608 8.7553 69.7373 9.3921 68.9484 9.6309C69.9251 9.78625 70.5251 10.59 70.5251 11.7403C70.5251 12.4477 70.2654 13.0948 69.8432 13.5274C69.2433 14.1386 68.4417 14.1745 67.2658 14.1745H65.1345V5.60468V5.6034ZM66.9948 9.22391C68.23 9.22391 68.7845 8.93633 68.7845 8.03762C68.7845 6.97072 68.2073 6.76659 66.9948 6.76659H66.4755V9.22391H66.9948ZM66.9469 13.0126C67.7132 13.0126 68.2539 12.9767 68.5829 12.7481C68.9118 12.5209 69.1135 12.1242 69.1135 11.6568C69.1135 11.1176 68.8891 10.6978 68.4669 10.4706C68.148 10.3024 67.7724 10.278 67.3591 10.278H66.4755V13.0113H66.9457L66.9469 13.0126ZM79.8063 13.0845C78.9467 13.9357 77.8288 14.403 76.6289 14.403C75.4291 14.403 74.2859 13.9357 73.4402 13.0845C72.5807 12.2333 72.1333 11.1305 72.1333 9.90693C72.1333 8.6834 72.5807 7.58184 73.4402 6.7178C74.2985 5.86659 75.4177 5.41082 76.6289 5.41082C77.8401 5.41082 78.9467 5.86659 79.8063 6.7178C80.6658 7.58056 81.1246 8.69624 81.1246 9.90693C81.1246 11.1176 80.6658 12.2333 79.8063 13.0845ZM78.7942 7.62935C78.217 7.01822 77.4406 6.69341 76.6289 6.69341C75.8173 6.69341 75.0396 7.01822 74.451 7.62935C73.8625 8.24047 73.5562 9.04417 73.5562 9.90693C73.5562 10.7697 73.8625 11.5618 74.451 12.173C75.0396 12.7841 75.8047 13.1076 76.6289 13.1076C77.4532 13.1076 78.2056 12.7841 78.7942 12.173C79.3828 11.5618 79.7004 10.771 79.7004 9.90693C79.7004 9.04289 79.3828 8.24047 78.7942 7.62935ZM90.5798 13.0845C89.7202 13.9357 88.6023 14.403 87.4024 14.403C86.2026 14.403 85.0594 13.9357 84.2137 13.0845C83.3542 12.2333 82.9067 11.1305 82.9067 9.90693C82.9067 8.6834 83.3542 7.58184 84.2137 6.7178C85.072 5.86659 86.1912 5.41082 87.4024 5.41082C88.6136 5.41082 89.7202 5.86659 90.5798 6.7178C91.4393 7.58056 91.8981 8.69624 91.8981 9.90693C91.8981 11.1176 91.4393 12.2333 90.5798 13.0845ZM89.5677 7.62935C88.9905 7.01822 88.2141 6.69341 87.4024 6.69341C86.5907 6.69341 85.8131 7.01822 85.2245 7.62935C84.6359 8.24047 84.3297 9.04417 84.3297 9.90693C84.3297 10.7697 84.6359 11.5618 85.2245 12.173C85.8131 12.7841 86.5781 13.1076 87.4024 13.1076C88.2267 13.1076 88.9791 12.7841 89.5677 12.173C90.1563 11.5618 90.4739 10.771 90.4739 9.90693C90.4739 9.04289 90.1563 8.24047 89.5677 7.62935ZM94.0432 5.6034H95.4082V9.1533L98.4343 5.6034H100.105L96.7744 9.41649L100.504 14.1758H98.7393L95.4069 9.80037V14.1758H94.0419V5.60468L94.0432 5.6034Z" fill="white"/>
<path d="M22.6394 3.81104V15.9205L26.3209 17.3353V2.44629L22.6394 3.81104Z" fill="url(#paint0_linear_972_112275)"/>
<path d="M18.2546 2.69796V17.0336L20.706 18.3085V1.47314L18.2546 2.69796Z" fill="url(#paint1_linear_972_112275)"/>
<path d="M14.3777 1.72481V18.0068L16.3199 19.2817V0.5L14.3777 1.72481Z" fill="url(#paint2_linear_972_112275)"/>
<path d="M0.5 2.44629V17.3353L4.18148 15.9205V3.81104L0.5 2.44629Z" fill="url(#paint3_linear_972_112275)"/>
<path d="M6.11621 1.47314V18.3085L8.56633 17.0336V2.69796L6.11621 1.47314Z" fill="url(#paint4_linear_972_112275)"/>
<path d="M10.5009 0.5V19.2817L12.4431 18.0068V1.72481L10.5009 0.5Z" fill="url(#paint5_linear_972_112275)"/>
</g>
</g>
<defs>
<linearGradient id="paint0_linear_972_112275" x1="20.9354" y1="14.1847" x2="29.5461" y2="5.73172" gradientUnits="userSpaceOnUse">
<stop stop-color="#A100FF"/>
<stop offset="1" stop-color="#00E9B2"/>
</linearGradient>
<linearGradient id="paint1_linear_972_112275" x1="15.6621" y1="14.3927" x2="24.6887" y2="5.53145" gradientUnits="userSpaceOnUse">
<stop stop-color="#A100FF"/>
<stop offset="1" stop-color="#00E9B2"/>
</linearGradient>
<linearGradient id="paint2_linear_972_112275" x1="11.1802" y1="14.7497" x2="20.9218" y2="5.1865" gradientUnits="userSpaceOnUse">
<stop stop-color="#A100FF"/>
<stop offset="1" stop-color="#00E9B2"/>
</linearGradient>
<linearGradient id="paint3_linear_972_112275" x1="-2.5803" y1="14.1975" x2="6.05484" y2="5.71933" gradientUnits="userSpaceOnUse">
<stop stop-color="#A100FF"/>
<stop offset="1" stop-color="#00E9B2"/>
</linearGradient>
<linearGradient id="paint4_linear_972_112275" x1="2.28349" y1="14.4056" x2="11.3358" y2="5.51909" gradientUnits="userSpaceOnUse">
<stop stop-color="#A100FF"/>
<stop offset="1" stop-color="#00E9B2"/>
</linearGradient>
<linearGradient id="paint5_linear_972_112275" x1="6.06316" y1="14.7625" x2="15.8304" y2="5.17542" gradientUnits="userSpaceOnUse">
<stop stop-color="#A100FF"/>
<stop offset="1" stop-color="#00E9B2"/>
</linearGradient>
<clipPath id="clip0_972_112275">
<rect width="100" height="19" fill="white" transform="translate(0.5)"/>
</clipPath>
<clipPath id="clip1_972_112275">
<rect width="100" height="18.7817" fill="white" transform="translate(0.5 0.5)"/>
</clipPath>
</defs>
</svg>
