<svg width="81" height="19" viewBox="0 0 81 19" fill="none" xmlns="http://www.w3.org/2000/svg">
<g clipPath="url(#clip0_972_112277)">
<g clipPath="url(#clip1_972_112277)">
<path d="M19.8072 12.1225C19.7056 12.1299 19.6167 12.0505 19.6112 11.9471L19.2701 6.52643C19.2629 6.42303 19.3409 6.33257 19.4425 6.32703C20.5148 6.25687 21.4384 7.084 21.5073 8.17515L21.6235 10.0233C21.6924 11.1107 20.8795 12.0523 19.8072 12.1225Z" fill="#F37B21"/>
<path d="M19.7963 12.1592C19.6802 12.1592 19.5822 12.0669 19.5749 11.9469L19.2338 6.5262C19.2265 6.4025 19.3191 6.29357 19.4406 6.28618C20.5311 6.21602 21.4746 7.05977 21.5436 8.16938L21.6597 10.0175C21.6942 10.5548 21.52 11.0736 21.1698 11.4779C20.8196 11.8822 20.337 12.1241 19.809 12.1573C19.8053 12.1592 19.7999 12.1592 19.7963 12.1592ZM19.5695 6.35634C19.5277 6.35634 19.486 6.35819 19.4443 6.36003C19.4044 6.36188 19.3681 6.38034 19.3427 6.41173C19.3173 6.44127 19.3027 6.48004 19.3064 6.52066L19.6475 11.9413C19.6529 12.0244 19.7237 12.089 19.8053 12.0816C20.3134 12.0484 20.7797 11.8158 21.1154 11.4262C21.4529 11.0366 21.6198 10.5382 21.5871 10.0193L21.471 8.17123C21.4383 7.65427 21.2097 7.17978 20.8269 6.83822C20.4767 6.5262 20.034 6.35634 19.5695 6.35634Z" fill="#F37B21"/>
<g opacity="0.35">
<path opacity="0.35" d="M21.569 9.15344L21.6234 10.0212C21.6924 11.1105 20.8795 12.0521 19.8072 12.1223C19.7056 12.1296 19.6167 12.0502 19.6112 11.945L19.5205 10.5031C19.5532 10.5677 19.6203 10.6083 19.6965 10.6046L19.8235 10.5954C20.669 10.5418 21.3549 9.9418 21.569 9.15344Z" fill="#371A45"/>
</g>
<path d="M1.85671 7.46776C1.95832 7.46038 2.04723 7.53977 2.05267 7.64316L2.39379 13.0638C2.40105 13.1672 2.32303 13.2577 2.22142 13.2632C1.14908 13.3334 0.225532 12.5062 0.156583 11.4151L0.0404582 9.56882C-0.0284906 8.47767 0.78438 7.53792 1.85671 7.46776Z" fill="#F37B21"/>
<path d="M2.09453 13.3076C1.6137 13.3076 1.15283 13.1322 0.788129 12.8054C0.390766 12.4491 0.153075 11.9579 0.120415 11.4207L0.00429043 9.57256C-0.030184 9.0353 0.144002 8.51649 0.494189 8.11216C0.844376 7.70783 1.32702 7.46596 1.85502 7.43273C1.9784 7.42719 2.08364 7.51951 2.0909 7.64321L2.43201 13.0639C2.43564 13.1248 2.41568 13.182 2.37758 13.2282C2.33766 13.2743 2.28504 13.3002 2.22517 13.3039C2.17981 13.3057 2.13807 13.3076 2.09453 13.3076ZM1.85865 7.50474C1.35061 7.53797 0.884294 7.7706 0.548623 8.16016C0.211137 8.54973 0.0442077 9.04822 0.0768677 9.56702L0.192992 11.4151C0.225652 11.9321 0.454272 12.4066 0.837119 12.7482C1.21997 13.0897 1.71168 13.2614 2.21972 13.2282C2.25964 13.2263 2.29593 13.2079 2.32133 13.1765C2.34673 13.1469 2.36125 13.1082 2.35762 13.0676L2.01651 7.6469C2.01106 7.56382 1.94211 7.4992 1.85865 7.50474Z" fill="#F37B21"/>
<g opacity="0.35">
<path opacity="0.35" d="M2.29962 11.5611L2.39397 13.0658C2.40123 13.1692 2.3232 13.2596 2.21978 13.2652C1.6573 13.3021 1.13475 13.0916 0.755527 12.7242C0.412598 12.3937 0.187607 11.934 0.154947 11.4171L0.105957 10.6379C0.452515 11.3008 1.16015 11.7328 1.9458 11.6829L2.13995 11.67C2.21434 11.6663 2.2724 11.622 2.29962 11.5611Z" fill="#371A45"/>
</g>
<path d="M10.8583 19.4634C15.994 19.4634 20.1574 15.227 20.1574 10.0012C20.1574 4.77541 15.994 0.539062 10.8583 0.539062C5.72264 0.539062 1.55933 4.77541 1.55933 10.0012C1.55933 15.227 5.72264 19.4634 10.8583 19.4634Z" fill="#F37B21"/>
<path d="M10.8603 19.5C10.8367 19.5 10.8149 19.5 10.7932 19.5C5.6456 19.4631 1.4869 15.1705 1.52318 9.93261C1.55947 4.71689 5.74176 0.5 10.8585 0.5C10.8821 0.5 10.9038 0.5 10.9256 0.5C13.4187 0.518463 15.7575 1.52284 17.5084 3.33034C19.2593 5.13784 20.2137 7.53061 20.1956 10.0674C20.1575 15.2831 15.977 19.5 10.8603 19.5ZM10.8567 0.575697C8.40899 0.575697 6.10284 1.53761 4.35734 3.28787C2.59552 5.05476 1.61572 7.41429 1.59758 9.93077C1.57943 12.4472 2.52657 14.8215 4.26299 16.6143C5.99941 18.407 8.31827 19.404 10.7914 19.4225C13.2626 19.4391 15.5978 18.4772 17.3596 16.7103C19.1215 14.9434 20.1012 12.5839 20.1194 10.0674C20.1375 7.55092 19.1904 5.17661 17.454 3.38388C15.7176 1.59115 13.3987 0.59416 10.9256 0.575697C10.902 0.575697 10.8784 0.575697 10.8567 0.575697Z" fill="#F37B21"/>
<path d="M19.8997 10.0988C19.9142 11.91 19.3499 13.5974 18.3719 14.9969C17.6389 16.0456 14.6069 17.8974 10.8474 17.962C7.36005 18.023 4.17208 16.1564 3.42272 15.1188C2.42296 13.7359 1.83326 12.0577 1.81875 10.2465C1.78065 5.45169 5.81233 3.43186 10.8057 3.39124C15.799 3.35063 19.8634 5.30398 19.8997 10.0988Z" fill="#08171C"/>
<path d="M10.6789 18.1707C7.14615 18.1707 4.02894 16.3078 3.2578 15.2407C2.19635 13.771 1.62843 12.0448 1.61391 10.2465C1.59577 7.90727 2.50299 6.09423 4.31199 4.86277C5.89237 3.78454 8.13865 3.20481 10.8059 3.18266C13.4731 3.1605 15.7266 3.70515 17.3252 4.75753C19.1523 5.9613 20.0886 7.75772 20.1067 10.097C20.1212 11.8934 19.5787 13.6307 18.5408 15.117C17.8205 16.1472 14.8267 18.1005 10.8512 18.1689C10.7932 18.1707 10.7351 18.1707 10.6789 18.1707ZM10.942 3.59807C10.8966 3.59807 10.8512 3.59807 10.8077 3.59807C8.15135 3.62022 1.9768 4.31073 2.02398 10.2428C2.03668 11.9525 2.5792 13.5938 3.58803 14.9933C4.29384 15.9718 7.33303 17.7535 10.6825 17.7535C10.7369 17.7535 10.7895 17.7535 10.844 17.7516C14.6253 17.687 17.5483 15.8149 18.2052 14.8751C19.194 13.4609 19.7093 11.8084 19.6948 10.1006C19.6495 4.26642 13.6672 3.59807 10.942 3.59807Z" fill="#08171C"/>
<path d="M16.5319 7.04316C15.7172 6.31573 14.8245 6.31204 13.8792 6.49297C13.9028 6.40435 13.9191 6.34343 13.9155 6.35635C13.373 6.56313 12.8141 6.79946 12.2408 6.98039C12.0194 7.05055 11.7599 6.98962 11.5168 6.99147C11.3934 6.99332 11.27 6.99701 11.1466 7.00624C10.5134 7.0524 9.87109 7.18902 9.24874 7.12625C8.60824 7.06163 7.9877 6.80684 7.35446 6.54836C7.40708 6.61852 7.4597 6.69053 7.54316 6.79946C6.57788 6.74961 5.67248 6.78653 4.9848 7.56566C4.88319 7.07086 5.11363 6.48744 5.59446 6.08864C6.6559 5.20797 7.76271 5.36675 8.904 5.95756C8.8169 5.86155 8.72981 5.76554 8.64272 5.66954C8.66993 5.62338 8.66812 5.62707 8.69534 5.57907C9.01649 5.66954 9.35579 5.72308 9.65699 5.86155C10.3791 6.19388 11.0505 6.14034 11.7273 5.736C11.994 5.57722 12.3061 5.49414 12.5964 5.37783C12.6272 5.42029 12.6236 5.41475 12.6544 5.45722L12.3623 5.84124C13.3875 5.13227 14.4507 4.80548 15.6047 5.50522C16.1382 5.83385 16.4648 6.31389 16.5319 7.04316Z" fill="#F37B21"/>
<path d="M12.8396 8.40568L13.3785 8.37799C13.07 8.18782 12.767 8.00135 12.4912 7.83149C13.1353 7.89242 13.7849 7.9515 14.4145 8.01058C14.42 8.00319 14.3692 8.0752 14.3165 8.14536C14.3456 8.18782 14.4036 8.1989 14.4454 8.16936C14.7248 7.96812 15.006 7.76503 15.2746 7.57117C15.3943 7.97919 15.2782 8.32999 14.9171 8.57185C14.3837 8.93002 13.3948 8.85617 12.8396 8.40568Z" fill="#F37B21"/>
<path d="M6.22236 8.02173C6.5544 8.21928 6.8683 8.4076 7.18401 8.59592C7.21848 8.54607 7.21123 8.47776 7.16768 8.43529C7.13139 8.39837 7.10236 8.37252 7.09873 8.36698C7.70294 8.25805 8.34525 8.14358 8.94583 8.03465C8.8914 8.08635 8.7789 8.21005 8.65008 8.31159C8.51037 8.42052 8.35614 8.51099 8.12208 8.66608C8.39424 8.63469 8.56661 8.61438 8.74987 8.59223C8.35977 9.09441 7.21485 9.27719 6.69955 9.00025C6.31126 8.78793 6.14252 8.45376 6.22236 8.02173Z" fill="#F37B21"/>
<path d="M11.466 13.9094C11.466 13.9094 13.7667 13.3629 15.0967 12.2127C14.9443 11.8416 14.6939 11.4686 14.7247 11.5628C14.4326 10.8076 14.106 10.647 13.9409 10.623C13.6669 10.9295 13.4183 11.2064 13.1698 11.4834C13.1135 11.4372 13.1371 11.4557 13.0809 11.4095C13.1153 11.3597 13.1516 11.3117 13.1861 11.2618C13.7849 10.4199 13.6252 9.51526 12.7688 8.95214C12.4767 8.76013 12.1755 8.57919 11.867 8.41118C11.5114 8.21732 11.1648 8.35026 11.0106 8.7269C10.9471 8.88014 10.9017 9.04076 10.8201 9.28078C10.7348 9.09246 10.6822 8.97799 10.6314 8.86352C10.4064 8.35764 10.0562 8.25979 9.60802 8.58289C9.37577 8.7509 9.14171 8.91522 8.91672 9.09061C8.07845 9.74235 7.9714 10.6599 8.63367 11.5018C8.71169 11.6015 8.79515 11.6994 8.8768 11.7991C8.84414 11.836 8.85321 11.8249 8.82237 11.86C8.54294 11.6625 8.26533 11.4631 7.97502 11.2563C7.43613 12.0631 7.16941 12.9309 7.14038 13.8614L7.21296 13.9186C7.21477 13.9205 9.3032 14.5408 11.466 13.9094ZM12.7815 9.90482C12.0122 10.815 11.5912 10.9018 11.1576 10.2298C11.7146 10.2002 12.1374 9.65373 12.7815 9.90482ZM10.5679 10.2593C10.2249 10.9793 9.73503 10.9221 8.94212 10.095C9.53726 9.77558 10.0145 10.2852 10.5679 10.2593Z" fill="#F37B21"/>
<path d="M14.7883 13.3833C13.5091 13.7765 12.551 13.9722 11.7509 14.0867C10.6386 14.3507 9.39211 14.539 8.10748 14.5409C8.07301 14.5501 8.03672 14.5575 8.00043 14.5667C7.52323 14.707 7.63028 14.6295 7.28735 14.827L9.21973 14.9563C9.2778 14.96 9.28868 15.0412 9.23606 15.0615C8.93124 15.1815 8.65726 15.2905 8.35062 15.4123C8.92761 16.0825 9.54452 16.5385 10.3356 16.6881C11.4043 16.8912 12.4313 16.7029 13.4075 16.2616C13.9391 16.0216 14.5379 15.3625 14.7574 14.816C15.0459 14.0959 15.4904 13.1672 14.7883 13.3833Z" fill="#F37B21"/>
<path d="M34.1741 10.7809C34.1741 11.0754 34.1365 11.3412 34.0613 11.5783C33.9899 11.8116 33.8941 12.0181 33.7738 12.1979C33.6535 12.3776 33.5126 12.5306 33.351 12.6568C33.1893 12.783 33.0221 12.8863 32.8492 12.9666C32.6763 13.0469 32.4997 13.1062 32.3192 13.1444C32.1426 13.1827 31.9753 13.2018 31.8175 13.2018H26.1627V11.7102H31.8175C32.0994 11.7102 32.3174 11.6261 32.4715 11.4578C32.6293 11.2896 32.7083 11.0639 32.7083 10.7809C32.7083 10.6432 32.6876 10.517 32.6462 10.4023C32.6049 10.2875 32.5448 10.1881 32.4658 10.104C32.3907 10.0198 32.2967 9.95481 32.1839 9.90892C32.0749 9.86302 31.9528 9.84008 31.8175 9.84008H28.4461C28.2093 9.84008 27.9537 9.79801 27.6793 9.71387C27.4049 9.6259 27.1494 9.48631 26.9126 9.29509C26.6795 9.10386 26.4841 8.85336 26.3262 8.54358C26.1721 8.23379 26.0951 7.85517 26.0951 7.4077C26.0951 6.96024 26.1721 6.58353 26.3262 6.27757C26.4841 5.96778 26.6795 5.71728 26.9126 5.52606C27.1494 5.33101 27.4049 5.19141 27.6793 5.10728C27.9537 5.01931 28.2093 4.97533 28.4461 4.97533H33.4355V6.46688H28.4461C28.1679 6.46688 27.9499 6.55293 27.7921 6.72503C27.638 6.89713 27.5609 7.12469 27.5609 7.4077C27.5609 7.69454 27.638 7.9221 27.7921 8.09037C27.9499 8.25483 28.1679 8.33705 28.4461 8.33705H31.8175H31.8288C31.9866 8.34088 32.1539 8.36382 32.3305 8.40589C32.5072 8.44414 32.6819 8.50533 32.8548 8.58947C33.0315 8.67361 33.1987 8.78069 33.3566 8.91073C33.5145 9.03693 33.6535 9.18991 33.7738 9.36966C33.8978 9.54942 33.9956 9.75594 34.067 9.98923C34.1384 10.2225 34.1741 10.4864 34.1741 10.7809Z" fill="#FFFAF5"/>
<path d="M43.8768 9.8745C43.8768 10.3755 43.7922 10.8364 43.6231 11.257C43.4539 11.6777 43.219 12.0411 42.9183 12.347C42.6177 12.653 42.2606 12.892 41.8472 13.0641C41.4375 13.2324 40.9902 13.3165 40.5054 13.3165H38.5208C38.036 13.3165 37.5868 13.2324 37.1734 13.0641C36.76 12.892 36.4029 12.653 36.1022 12.347C35.8015 12.0411 35.5647 11.6777 35.3919 11.257C35.2227 10.8364 35.1382 10.3755 35.1382 9.8745V8.30263C35.1382 7.80545 35.2227 7.34651 35.3919 6.92582C35.5647 6.5013 35.8015 6.13797 36.1022 5.83584C36.4029 5.52988 36.76 5.29085 37.1734 5.11875C37.5868 4.94665 38.036 4.8606 38.5208 4.8606H40.5054C40.9902 4.8606 41.4375 4.94665 41.8472 5.11875C42.2606 5.29085 42.6177 5.52988 42.9183 5.83584C43.219 6.13797 43.4539 6.5013 43.6231 6.92582C43.7922 7.34651 43.8768 7.80545 43.8768 8.30263V9.8745ZM42.4109 8.30263C42.4109 8.00815 42.364 7.74235 42.27 7.50523C42.1798 7.26429 42.0501 7.05968 41.881 6.8914C41.7156 6.7193 41.5145 6.58735 41.2777 6.49556C41.0447 6.39995 40.7872 6.35215 40.5054 6.35215H38.5208C38.2352 6.35215 37.974 6.39995 37.7372 6.49556C37.5042 6.58735 37.3031 6.7193 37.1339 6.8914C36.9648 7.05968 36.8333 7.26429 36.7393 7.50523C36.6491 7.74235 36.604 8.00815 36.604 8.30263V9.8745C36.604 10.169 36.6491 10.4367 36.7393 10.6776C36.8333 10.9148 36.9648 11.1194 37.1339 11.2915C37.3031 11.4597 37.5042 11.5917 37.7372 11.6873C37.974 11.7791 38.2352 11.825 38.5208 11.825H40.4941C40.7797 11.825 41.0391 11.7791 41.2721 11.6873C41.5089 11.5917 41.7119 11.4597 41.881 11.2915C42.0501 11.1194 42.1798 10.9148 42.27 10.6776C42.364 10.4367 42.4109 10.169 42.4109 9.8745V8.30263Z" fill="#FFFAF5"/>
<path d="M52.7507 13.2018H46.0642C45.959 13.2018 45.8613 13.1827 45.7711 13.1444C45.6809 13.1062 45.6019 13.0546 45.5343 12.9895C45.4704 12.9207 45.4197 12.8404 45.3821 12.7486C45.3445 12.6568 45.3257 12.5574 45.3257 12.4503V4.97533H46.7915V11.7102H52.7507V13.2018Z" fill="#FFFAF5"/>
<path d="M61.7599 13.2018H60.2941V11.1825H55.1411V13.2018H53.6753V9.08856C53.6753 8.48812 53.7768 7.93548 53.9797 7.43065C54.1827 6.92582 54.4646 6.49174 54.8254 6.12841C55.1862 5.76509 55.6128 5.48207 56.1052 5.27938C56.5976 5.07668 57.135 4.97533 57.7176 4.97533H61.0214C61.1229 4.97533 61.2187 4.99445 61.3089 5.0327C61.3991 5.07094 61.478 5.12449 61.5457 5.19333C61.6133 5.26217 61.666 5.34248 61.7036 5.43427C61.7411 5.52606 61.7599 5.62358 61.7599 5.72684V13.2018ZM55.1411 9.69092H60.2941V6.46688H57.7176C57.6725 6.46688 57.5767 6.47453 57.4301 6.48983C57.2873 6.5013 57.12 6.53381 56.9283 6.58735C56.7404 6.64089 56.5412 6.72312 56.3307 6.83403C56.1202 6.94494 55.9267 7.09792 55.75 7.29297C55.5734 7.48802 55.4268 7.73278 55.3103 8.02727C55.1975 8.31793 55.1411 8.6717 55.1411 9.08856V9.69092Z" fill="#FFFAF5"/>
<path d="M71.5246 8.41737C71.5246 8.75775 71.4833 9.06179 71.4006 9.32951C71.3179 9.59722 71.2052 9.83434 71.0623 10.0409C70.9233 10.2436 70.7617 10.4176 70.5775 10.5629C70.3933 10.7082 70.1997 10.8268 69.9968 10.9186C69.7976 11.0104 69.5946 11.0773 69.3879 11.1194C69.1849 11.1614 68.9933 11.1825 68.8128 11.1825H65.4978V9.69092H68.8128C69.0008 9.67562 69.1699 9.63738 69.3202 9.57619C69.4743 9.51117 69.6059 9.42512 69.7149 9.31803C69.8239 9.21095 69.9085 9.08283 69.9686 8.93367C70.0287 8.78069 70.0588 8.60859 70.0588 8.41737V7.74043C70.04 7.55303 70.0005 7.38093 69.9404 7.22413C69.8803 7.06732 69.7976 6.93347 69.6923 6.82256C69.5909 6.71165 69.4668 6.6256 69.3202 6.5644C69.1737 6.49939 69.0045 6.46688 68.8128 6.46688H65.5091C65.3136 6.46688 65.1652 6.51851 65.0637 6.62177C64.9622 6.72503 64.9115 6.87419 64.9115 7.06924V13.2018H63.4456V7.06924C63.4456 6.68679 63.5133 6.36171 63.6486 6.09399C63.7877 5.82628 63.9587 5.61019 64.1616 5.44574C64.3684 5.28129 64.592 5.16273 64.8325 5.09007C65.0731 5.01358 65.2948 4.97533 65.4978 4.97533H68.8128C69.1436 4.97533 69.4405 5.01931 69.7036 5.10728C69.9667 5.19141 70.1979 5.30615 70.3971 5.45148C70.6 5.59298 70.771 5.75744 70.9101 5.94484C71.0529 6.13224 71.1695 6.3292 71.2597 6.53572C71.3536 6.73842 71.4213 6.94494 71.4626 7.15529C71.504 7.36181 71.5246 7.55686 71.5246 7.74043V8.41737Z" fill="#FFFAF5"/>
<path d="M79.4289 9.84008H74.8002V8.33705H79.4289V9.84008ZM80.0885 13.2018H74.8002C74.5972 13.2018 74.3755 13.1655 74.1349 13.0928C73.8944 13.0201 73.6708 12.9016 73.464 12.7371C73.2611 12.5688 73.0901 12.3528 72.951 12.0889C72.8157 11.8212 72.748 11.4942 72.748 11.1079V5.72684C72.748 5.62358 72.7668 5.52606 72.8044 5.43427C72.842 5.34248 72.8927 5.26217 72.9566 5.19333C73.0243 5.12449 73.1032 5.07094 73.1934 5.0327C73.2836 4.99445 73.3814 4.97533 73.4866 4.97533H80.0885V6.46688H74.2139V11.1079C74.2139 11.3029 74.2646 11.4521 74.3661 11.5554C74.4676 11.6586 74.616 11.7102 74.8115 11.7102H80.0885V13.2018Z" fill="#FFFAF5"/>
</g>
</g>
<defs>
<clipPath id="clip0_972_112277">
<rect width="80.5" height="19" fill="white" transform="translate(0.5)"/>
</clipPath>
<clipPath id="clip1_972_112277">
<rect width="80.5" height="19" fill="white" transform="translate(0 0.5)"/>
</clipPath>
</defs>
</svg>
